if (_typeface_js && _typeface_js.loadFace) _typeface_js.loadFace({"glyphs":{"0":{"ha":849,"x_min":83,"x_max":766,"o":"m 425 -18 q 168 106 252 -18 q 83 491 83 229 q 167 877 83 754 q 423 1000 251 1000 q 682 877 597 1000 q 766 491 766 754 q 682 106 766 229 q 425 -18 597 -18 m 425 126 q 559 214 517 126 q 601 491 601 301 q 558 768 601 681 q 423 856 515 856 q 290 768 332 856 q 248 491 248 681 q 290 214 248 301 q 425 126 332 126 z "},"1":{"ha":623,"x_min":37,"x_max":458,"o":"m 458 982 l 458 0 l 297 0 l 297 815 l 83 741 l 37 873 l 319 982 l 458 982 z "},"2":{"ha":726,"x_min":35,"x_max":655,"o":"m 655 141 l 655 0 l 45 0 l 45 142 l 373 522 q 461 640 437 597 q 486 723 486 682 q 445 817 486 783 q 334 852 404 852 q 220 833 278 852 q 109 779 161 814 l 35 902 q 180 972 95 945 q 347 1000 266 1000 q 505 966 437 1000 q 611 873 574 933 q 648 735 648 814 q 613 595 648 665 q 494 431 578 526 l 235 141 l 655 141 z "},"3":{"ha":765,"x_min":35,"x_max":682,"o":"m 425 608 q 612 512 543 593 q 682 308 682 431 q 640 138 682 212 q 518 23 597 64 q 335 -18 439 -18 q 172 6 254 -18 q 35 69 91 30 l 96 202 q 218 150 156 168 q 335 132 281 132 q 469 178 422 132 q 517 308 517 224 q 471 431 517 387 q 346 476 426 476 q 258 465 304 476 l 195 545 l 475 841 l 58 841 l 58 982 l 651 982 l 651 841 l 425 608 z "},"4":{"ha":791,"x_min":30,"x_max":734,"o":"m 734 332 l 734 194 l 614 194 l 614 0 l 457 0 l 457 194 l 30 194 l 30 332 l 388 982 l 614 982 l 614 332 l 734 332 m 457 332 l 457 837 l 197 332 l 457 332 z "},"5":{"ha":754,"x_min":46,"x_max":677,"o":"m 366 633 q 530 594 460 633 q 638 483 600 555 q 677 317 677 411 q 633 141 677 217 q 511 24 590 65 q 328 -18 433 -18 q 173 5 250 -18 q 46 64 96 27 l 106 195 q 220 147 161 164 q 328 130 278 130 q 463 179 415 130 q 511 313 511 228 q 467 441 511 396 q 343 487 423 487 q 264 477 305 487 q 189 448 224 467 l 90 500 l 115 982 l 632 982 l 632 841 l 259 841 l 241 613 q 366 633 302 633 z "},"6":{"ha":772,"x_min":61,"x_max":722,"o":"m 430 627 q 583 587 517 627 q 686 477 650 548 q 722 312 722 406 q 681 139 722 214 q 566 23 640 64 q 395 -18 492 -18 q 219 24 294 -18 q 102 144 144 66 q 61 323 61 221 q 103 535 61 437 q 248 758 145 633 l 449 1000 l 575 902 l 373 671 q 321 610 338 631 q 430 627 377 627 m 395 123 q 514 172 471 123 q 557 308 557 221 q 511 448 557 397 q 384 498 465 498 q 255 469 317 498 q 224 324 224 410 q 269 176 224 229 q 395 123 315 123 z "},"7":{"ha":674,"x_min":16,"x_max":636,"o":"m 636 982 l 636 841 l 256 -14 l 104 49 l 468 841 l 16 841 l 16 982 l 636 982 z "},"8":{"ha":799,"x_min":61,"x_max":738,"o":"m 399 -18 q 220 16 297 -18 q 102 113 144 50 q 61 256 61 175 q 116 408 61 338 q 262 511 171 477 q 143 602 189 537 q 98 745 98 667 q 135 878 98 821 q 240 968 172 936 q 399 1000 308 1000 q 558 968 490 1000 q 664 878 627 936 q 701 745 701 821 q 656 604 701 667 q 536 515 610 541 q 682 418 627 488 q 738 259 738 349 q 696 114 738 176 q 577 17 654 52 q 399 -18 500 -18 m 406 572 q 505 636 469 595 q 541 730 541 677 q 503 828 541 792 q 399 864 465 864 q 295 829 332 864 q 258 731 258 793 q 297 637 258 680 q 406 572 336 595 m 399 119 q 529 159 481 119 q 576 267 576 199 q 528 374 576 324 q 393 454 479 423 q 268 378 313 427 q 222 269 222 328 q 269 159 222 199 q 399 119 316 119 z "},"9":{"ha":772,"x_min":50,"x_max":711,"o":"m 377 1000 q 553 958 477 1000 q 669 838 628 916 q 711 659 711 761 q 669 447 711 545 q 522 224 627 349 l 323 -18 l 195 80 l 399 311 l 449 372 q 342 355 400 355 q 189 395 255 355 q 86 505 122 434 q 50 670 50 576 q 91 843 50 768 q 205 959 132 918 q 377 1000 279 1000 m 214 674 q 260 534 214 585 q 388 484 305 484 q 515 513 452 484 q 548 658 548 575 q 503 806 548 753 q 377 859 457 859 q 257 810 300 859 q 214 674 214 761 z "},"\r":{"ha":0,"x_min":0,"x_max":0,"o":""}," ":{"ha":288,"x_min":0,"x_max":0,"o":""},"A":{"ha":907,"x_min":27,"x_max":880,"o":"m 637 228 l 269 228 l 198 0 l 27 0 l 365 982 l 543 982 l 880 0 l 708 0 l 637 228 m 593 370 l 452 823 l 312 370 l 593 370 z "},"Ꜳ":{"ha":1588,"x_min":27,"x_max":1563,"o":"m 951 228 l 880 0 l 708 0 l 637 228 l 269 228 l 198 0 l 27 0 l 365 982 l 543 982 l 795 248 l 1047 982 l 1225 982 l 1563 0 l 1390 0 l 1320 228 l 951 228 m 994 370 l 1275 370 l 1135 825 l 994 370 m 593 370 l 452 823 l 312 370 l 593 370 z "},"Ꜻ":{"ha":1226,"x_min":27,"x_max":1194,"o":"m 1043 499 l 1160 499 l 1160 362 l 1000 362 l 887 0 l 753 0 l 708 0 l 595 362 l 309 362 l 198 0 l 27 0 l 365 982 l 543 982 l 704 499 l 890 499 l 1023 982 l 1194 982 l 1043 499 m 553 499 l 452 823 l 351 499 l 553 499 m 806 194 l 854 370 l 747 370 l 806 194 z "},"Ꜽ":{"ha":1221,"x_min":27,"x_max":1188,"o":"m 1188 982 l 880 0 q 528 -298 806 -209 l 472 -163 q 621 -92 566 -130 q 709 0 675 -54 l 708 0 l 637 228 l 269 228 l 198 0 l 27 0 l 365 982 l 543 982 l 806 218 l 1017 982 l 1188 982 m 593 370 l 452 823 l 312 370 l 593 370 z "},"Á":{"ha":907,"x_min":27,"x_max":880,"o":"m 481 1059 l 346 1059 l 346 1076 l 545 1256 l 728 1256 l 728 1240 l 481 1059 m 637 228 l 269 228 l 198 0 l 27 0 l 365 982 l 543 982 l 880 0 l 708 0 l 637 228 m 593 370 l 452 823 l 312 370 l 593 370 z "},"Ă":{"ha":907,"x_min":27,"x_max":880,"o":"m 453 1059 q 300 1117 355 1059 q 241 1280 245 1175 l 338 1280 q 454 1179 351 1179 q 572 1280 557 1179 l 665 1280 q 606 1117 661 1175 q 453 1059 551 1059 m 637 228 l 269 228 l 198 0 l 27 0 l 365 982 l 543 982 l 880 0 l 708 0 l 637 228 m 593 370 l 452 823 l 312 370 l 593 370 z "},"Ắ":{"ha":907,"x_min":27,"x_max":880,"o":"m 502 1218 l 396 1218 l 396 1232 l 498 1404 l 640 1404 l 640 1390 l 502 1218 m 453 1036 q 304 1085 358 1036 q 244 1222 250 1134 l 327 1222 q 454 1131 340 1131 q 583 1222 570 1131 l 662 1222 q 602 1085 656 1134 q 453 1036 548 1036 m 637 228 l 269 228 l 198 0 l 27 0 l 365 982 l 543 982 l 880 0 l 708 0 l 637 228 m 593 370 l 452 823 l 312 370 l 593 370 z "},"Ặ":{"ha":907,"x_min":27,"x_max":880,"o":"m 453 1059 q 300 1117 355 1059 q 241 1280 245 1175 l 338 1280 q 454 1179 351 1179 q 572 1280 557 1179 l 665 1280 q 606 1117 661 1175 q 453 1059 551 1059 m 708 0 l 637 228 l 269 228 l 198 0 l 27 0 l 365 982 l 543 982 l 880 0 l 708 0 m 593 370 l 452 823 l 312 370 l 593 370 m 454 -109 q 527 -134 500 -109 q 553 -203 553 -160 q 528 -275 553 -250 q 454 -300 502 -300 q 382 -274 408 -300 q 355 -205 355 -248 q 381 -134 355 -159 q 454 -109 407 -109 z "},"Ằ":{"ha":907,"x_min":27,"x_max":880,"o":"m 406 1218 l 275 1390 l 275 1404 l 418 1404 l 511 1232 l 511 1218 l 406 1218 m 453 1036 q 304 1085 358 1036 q 244 1222 250 1134 l 327 1222 q 454 1131 340 1131 q 583 1222 570 1131 l 662 1222 q 602 1085 656 1134 q 453 1036 548 1036 m 637 228 l 269 228 l 198 0 l 27 0 l 365 982 l 543 982 l 880 0 l 708 0 l 637 228 m 593 370 l 452 823 l 312 370 l 593 370 z "},"Ẳ":{"ha":907,"x_min":27,"x_max":880,"o":"m 437 1337 q 366 1316 407 1337 l 335 1383 q 396 1409 362 1400 q 464 1419 430 1419 q 552 1394 521 1419 q 583 1326 583 1370 q 569 1279 583 1294 q 530 1255 555 1264 q 508 1242 515 1248 q 500 1226 500 1236 l 503 1208 l 403 1208 q 400 1230 400 1222 q 411 1267 400 1255 q 442 1289 422 1279 q 461 1301 454 1295 q 468 1317 468 1308 q 460 1332 468 1326 q 437 1337 452 1337 m 453 1036 q 304 1085 358 1036 q 244 1222 250 1134 l 327 1222 q 454 1131 340 1131 q 583 1222 570 1131 l 662 1222 q 602 1085 656 1134 q 453 1036 548 1036 m 637 228 l 269 228 l 198 0 l 27 0 l 365 982 l 543 982 l 880 0 l 708 0 l 637 228 m 593 370 l 452 823 l 312 370 l 593 370 z "},"Ẵ":{"ha":907,"x_min":27,"x_max":880,"o":"m 368 1322 q 311 1257 317 1322 l 232 1257 q 269 1376 232 1333 q 372 1419 305 1419 q 430 1408 407 1419 q 477 1378 453 1397 q 510 1357 498 1363 q 538 1351 522 1351 q 595 1416 589 1351 l 674 1416 q 637 1297 674 1340 q 534 1255 601 1255 q 476 1265 499 1255 q 429 1295 453 1276 q 396 1316 408 1310 q 368 1322 384 1322 m 454 1131 q 583 1222 570 1131 l 662 1222 q 602 1085 656 1134 q 453 1036 548 1036 q 304 1085 358 1036 q 244 1222 250 1134 l 327 1222 q 454 1131 340 1131 m 637 228 l 269 228 l 198 0 l 27 0 l 365 982 l 543 982 l 880 0 l 708 0 l 637 228 m 593 370 l 452 823 l 312 370 l 593 370 z "},"Ǎ":{"ha":907,"x_min":27,"x_max":880,"o":"m 374 1059 l 216 1240 l 216 1256 l 338 1256 l 456 1146 l 574 1256 l 690 1256 l 690 1240 l 532 1059 l 374 1059 m 637 228 l 269 228 l 198 0 l 27 0 l 365 982 l 543 982 l 880 0 l 708 0 l 637 228 m 593 370 l 452 823 l 312 370 l 593 370 z "},"Â":{"ha":907,"x_min":27,"x_max":880,"o":"m 334 1059 l 216 1059 l 216 1076 l 374 1256 l 532 1256 l 690 1076 l 690 1059 l 570 1059 l 450 1169 l 334 1059 m 637 228 l 269 228 l 198 0 l 27 0 l 365 982 l 543 982 l 880 0 l 708 0 l 637 228 m 593 370 l 452 823 l 312 370 l 593 370 z "},"Ấ":{"ha":907,"x_min":27,"x_max":880,"o":"m 726 1211 l 620 1211 l 620 1225 l 722 1397 l 864 1397 l 864 1383 l 726 1211 m 347 1065 l 237 1065 l 237 1078 l 378 1267 l 528 1267 l 669 1078 l 669 1065 l 556 1065 l 450 1176 l 347 1065 m 637 228 l 269 228 l 198 0 l 27 0 l 365 982 l 543 982 l 880 0 l 708 0 l 637 228 m 593 370 l 452 823 l 312 370 l 593 370 z "},"Ậ":{"ha":907,"x_min":27,"x_max":880,"o":"m 334 1059 l 216 1059 l 216 1076 l 374 1256 l 532 1256 l 690 1076 l 690 1059 l 570 1059 l 450 1169 l 334 1059 m 708 0 l 637 228 l 269 228 l 198 0 l 27 0 l 365 982 l 543 982 l 880 0 l 708 0 m 593 370 l 452 823 l 312 370 l 593 370 m 454 -109 q 527 -134 500 -109 q 553 -203 553 -160 q 528 -275 553 -250 q 454 -300 502 -300 q 382 -274 408 -300 q 355 -205 355 -248 q 381 -134 355 -159 q 454 -109 407 -109 z "},"Ầ":{"ha":907,"x_min":27,"x_max":880,"o":"m 183 1211 l 53 1383 l 53 1397 l 195 1397 l 289 1225 l 289 1211 l 183 1211 m 237 1078 l 378 1267 l 528 1267 l 669 1078 l 669 1065 l 556 1065 l 450 1176 l 347 1065 l 237 1065 l 237 1078 m 637 228 l 269 228 l 198 0 l 27 0 l 365 982 l 543 982 l 880 0 l 708 0 l 637 228 m 593 370 l 452 823 l 312 370 l 593 370 z "},"Ẩ":{"ha":907,"x_min":27,"x_max":880,"o":"m 661 1329 q 590 1308 631 1329 l 559 1375 q 620 1401 586 1392 q 688 1411 654 1411 q 776 1386 745 1411 q 807 1318 807 1362 q 793 1271 807 1286 q 754 1246 779 1256 q 732 1234 739 1240 q 724 1218 724 1227 l 727 1200 l 627 1200 q 624 1222 624 1214 q 635 1259 624 1246 q 666 1280 646 1271 q 685 1293 678 1287 q 692 1309 692 1299 q 684 1324 692 1318 q 661 1329 675 1329 m 347 1065 l 237 1065 l 237 1078 l 378 1267 l 528 1267 l 669 1078 l 669 1065 l 556 1065 l 450 1176 l 347 1065 m 637 228 l 269 228 l 198 0 l 27 0 l 365 982 l 543 982 l 880 0 l 708 0 l 637 228 m 593 370 l 452 823 l 312 370 l 593 370 z "},"Ẫ":{"ha":907,"x_min":27,"x_max":880,"o":"m 368 1322 q 311 1257 317 1322 l 232 1257 q 269 1376 232 1333 q 372 1419 305 1419 q 430 1408 407 1419 q 477 1378 453 1397 q 510 1357 498 1363 q 538 1351 522 1351 q 595 1416 589 1351 l 674 1416 q 637 1297 674 1340 q 534 1255 601 1255 q 476 1265 499 1255 q 429 1295 453 1276 q 396 1316 408 1310 q 368 1322 384 1322 m 526 1222 l 669 1055 l 669 1042 l 562 1042 l 452 1141 l 340 1042 l 237 1042 l 237 1055 l 380 1222 l 526 1222 m 637 228 l 269 228 l 198 0 l 27 0 l 365 982 l 543 982 l 880 0 l 708 0 l 637 228 m 593 370 l 452 823 l 312 370 l 593 370 z "},"Ȁ":{"ha":907,"x_min":27,"x_max":880,"o":"m 312 1059 l 149 1240 l 149 1256 l 305 1256 l 423 1076 l 423 1059 l 312 1059 m 540 1059 l 377 1240 l 377 1256 l 530 1256 l 648 1076 l 648 1059 l 540 1059 m 637 228 l 269 228 l 198 0 l 27 0 l 365 982 l 543 982 l 880 0 l 708 0 l 637 228 m 593 370 l 452 823 l 312 370 l 593 370 z "},"Ä":{"ha":907,"x_min":27,"x_max":880,"o":"m 316 1058 q 250 1082 274 1058 q 227 1146 227 1105 q 250 1213 227 1190 q 316 1236 274 1236 q 382 1212 358 1236 q 406 1147 406 1188 q 382 1082 406 1105 q 316 1058 358 1058 m 591 1058 q 526 1082 549 1058 q 502 1146 502 1105 q 526 1213 502 1190 q 591 1236 549 1236 q 657 1212 633 1236 q 681 1147 681 1188 q 657 1082 681 1105 q 591 1058 633 1058 m 637 228 l 269 228 l 198 0 l 27 0 l 365 982 l 543 982 l 880 0 l 708 0 l 637 228 m 593 370 l 452 823 l 312 370 l 593 370 z "},"Ǟ":{"ha":907,"x_min":27,"x_max":880,"o":"m 667 1298 l 239 1298 l 239 1411 l 667 1411 l 667 1298 m 316 1058 q 250 1082 274 1058 q 227 1146 227 1105 q 250 1213 227 1190 q 316 1236 274 1236 q 382 1212 358 1236 q 406 1147 406 1188 q 382 1082 406 1105 q 316 1058 358 1058 m 591 1236 q 657 1212 633 1236 q 681 1147 681 1188 q 657 1082 681 1105 q 591 1058 633 1058 q 526 1082 549 1058 q 502 1146 502 1105 q 526 1213 502 1190 q 591 1236 549 1236 m 637 228 l 269 228 l 198 0 l 27 0 l 365 982 l 543 982 l 880 0 l 708 0 l 637 228 m 593 370 l 452 823 l 312 370 l 593 370 z "},"Ȧ":{"ha":907,"x_min":27,"x_max":880,"o":"m 453 1062 q 380 1088 407 1062 q 354 1157 354 1114 q 380 1228 354 1203 q 453 1253 406 1253 q 526 1227 499 1253 q 552 1158 552 1202 q 526 1087 552 1112 q 453 1062 500 1062 m 637 228 l 269 228 l 198 0 l 27 0 l 365 982 l 543 982 l 880 0 l 708 0 l 637 228 m 593 370 l 452 823 l 312 370 l 593 370 z "},"Ạ":{"ha":907,"x_min":27,"x_max":880,"o":"m 637 228 l 269 228 l 198 0 l 27 0 l 365 982 l 543 982 l 880 0 l 708 0 l 637 228 m 593 370 l 452 823 l 312 370 l 593 370 m 454 -300 q 382 -274 408 -300 q 355 -205 355 -248 q 381 -134 355 -159 q 454 -109 407 -109 q 527 -134 500 -109 q 553 -203 553 -160 q 528 -275 553 -250 q 454 -300 502 -300 z "},"Ǡ":{"ha":907,"x_min":27,"x_max":880,"o":"m 667 1298 l 239 1298 l 239 1411 l 667 1411 l 667 1298 m 354 1157 q 380 1228 354 1203 q 453 1253 406 1253 q 526 1227 499 1253 q 552 1158 552 1202 q 526 1087 552 1112 q 453 1062 500 1062 q 380 1088 407 1062 q 354 1157 354 1114 m 637 228 l 269 228 l 198 0 l 27 0 l 365 982 l 543 982 l 880 0 l 708 0 l 637 228 m 593 370 l 452 823 l 312 370 l 593 370 z "},"À":{"ha":907,"x_min":27,"x_max":880,"o":"m 423 1059 l 189 1240 l 189 1256 l 372 1256 l 559 1076 l 559 1059 l 423 1059 m 637 228 l 269 228 l 198 0 l 27 0 l 365 982 l 543 982 l 880 0 l 708 0 l 637 228 m 593 370 l 452 823 l 312 370 l 593 370 z "},"Ả":{"ha":907,"x_min":27,"x_max":880,"o":"m 438 1198 q 346 1169 396 1198 l 308 1249 q 383 1282 340 1271 q 469 1294 426 1294 q 572 1267 536 1294 q 609 1194 609 1241 q 591 1141 609 1158 q 544 1114 574 1124 q 517 1099 525 1105 q 509 1082 509 1093 l 511 1059 l 396 1059 q 393 1089 393 1076 q 406 1128 393 1115 q 442 1152 419 1141 q 465 1164 457 1158 q 472 1179 472 1169 q 438 1198 472 1198 m 637 228 l 269 228 l 198 0 l 27 0 l 365 982 l 543 982 l 880 0 l 708 0 l 637 228 m 593 370 l 452 823 l 312 370 l 593 370 z "},"Ȃ":{"ha":907,"x_min":27,"x_max":880,"o":"m 452 1175 q 334 1073 349 1175 l 241 1073 q 300 1236 245 1179 q 453 1294 355 1294 q 606 1236 551 1294 q 665 1073 661 1179 l 568 1073 q 452 1175 555 1175 m 637 228 l 269 228 l 198 0 l 27 0 l 365 982 l 543 982 l 880 0 l 708 0 l 637 228 m 593 370 l 452 823 l 312 370 l 593 370 z "},"Ɑ":{"ha":924,"x_min":72,"x_max":810,"o":"m 810 982 l 810 0 l 662 0 l 662 129 q 399 -18 575 -18 q 157 115 243 -18 q 72 488 72 248 q 159 865 72 731 q 404 1000 245 1000 q 542 970 477 1000 q 647 891 606 941 l 647 982 l 810 982 m 448 133 q 554 156 506 133 q 647 229 602 179 l 647 760 q 554 829 610 803 q 442 854 498 854 q 240 496 240 854 q 448 133 240 133 z "},"Ā":{"ha":907,"x_min":27,"x_max":880,"o":"m 667 1095 l 239 1095 l 239 1207 l 667 1207 l 667 1095 m 637 228 l 269 228 l 198 0 l 27 0 l 365 982 l 543 982 l 880 0 l 708 0 l 637 228 m 593 370 l 452 823 l 312 370 l 593 370 z "},"Ꜵ":{"ha":1484,"x_min":27,"x_max":1412,"o":"m 998 1000 q 1305 871 1199 1000 q 1412 491 1412 743 q 1305 111 1412 239 q 998 -18 1199 -18 q 768 43 861 -18 q 639 220 675 104 l 637 228 l 269 228 l 198 0 l 27 0 l 365 982 l 543 982 l 631 715 q 998 1000 708 1000 m 998 127 q 1244 491 1244 127 q 998 854 1244 854 q 753 491 753 854 q 998 127 753 127 m 593 370 l 452 823 l 312 370 l 593 370 z "},"Ą":{"ha":907,"x_min":27,"x_max":947,"o":"m 947 -266 q 876 -296 916 -285 q 793 -307 836 -307 q 675 -271 718 -307 q 633 -172 633 -236 q 664 -75 633 -119 q 750 0 694 -30 l 708 0 l 637 228 l 269 228 l 198 0 l 27 0 l 365 982 l 543 982 l 880 0 q 766 -144 766 -65 q 830 -199 766 -199 q 910 -179 868 -199 l 947 -266 m 593 370 l 452 823 l 312 370 l 593 370 z "},"Å":{"ha":907,"x_min":27,"x_max":880,"o":"m 453 1039 q 322 1080 369 1039 q 275 1196 275 1122 q 322 1312 275 1271 q 453 1354 369 1354 q 584 1312 537 1354 q 631 1196 631 1271 q 584 1080 631 1122 q 453 1039 537 1039 m 453 1272 q 378 1196 378 1272 q 453 1120 378 1120 q 528 1196 528 1120 q 453 1272 528 1272 m 637 228 l 269 228 l 198 0 l 27 0 l 365 982 l 543 982 l 880 0 l 708 0 l 637 228 m 593 370 l 452 823 l 312 370 l 593 370 z "},"Ǻ":{"ha":907,"x_min":27,"x_max":880,"o":"m 491 1233 l 354 1233 l 354 1249 l 541 1419 l 724 1419 l 724 1402 l 491 1233 m 637 228 l 269 228 l 198 0 l 27 0 l 338 905 q 275 1032 275 944 q 322 1148 275 1107 q 453 1190 369 1190 q 584 1148 537 1190 q 631 1032 631 1107 q 570 905 631 947 l 880 0 l 708 0 l 637 228 m 453 1108 q 378 1032 378 1108 q 453 956 378 956 q 528 1032 528 956 q 453 1108 528 1108 m 593 370 l 452 823 l 312 370 l 593 370 z "},"Ḁ":{"ha":907,"x_min":27,"x_max":880,"o":"m 637 228 l 269 228 l 198 0 l 27 0 l 365 982 l 543 982 l 880 0 l 708 0 l 637 228 m 593 370 l 452 823 l 312 370 l 593 370 m 454 -393 q 324 -352 370 -393 q 278 -236 278 -311 q 325 -120 278 -161 q 454 -79 372 -79 q 584 -120 537 -79 q 631 -236 631 -161 q 585 -352 631 -311 q 454 -393 538 -393 m 454 -313 q 529 -236 529 -313 q 454 -159 529 -159 q 380 -236 380 -159 q 454 -313 380 -313 z "},"Ⱥ":{"ha":907,"x_min":27,"x_max":880,"o":"m 637 228 l 454 228 l 327 -145 l 218 -145 l 347 228 l 269 228 l 198 0 l 27 0 l 365 982 l 543 982 l 575 888 l 648 1099 l 755 1099 l 629 731 l 880 0 l 708 0 l 637 228 m 396 370 l 499 670 l 452 823 l 312 370 l 396 370 m 593 370 l 551 506 l 505 370 l 593 370 z "},"Ã":{"ha":907,"x_min":27,"x_max":880,"o":"m 357 1147 q 302 1069 311 1147 l 210 1069 q 252 1212 213 1161 q 357 1263 290 1263 q 420 1250 393 1263 q 481 1214 448 1237 q 519 1190 503 1198 q 549 1183 534 1183 q 604 1260 595 1183 l 696 1260 q 654 1117 693 1168 q 549 1066 616 1066 q 487 1078 513 1066 q 425 1115 461 1090 q 389 1139 404 1131 q 357 1147 373 1147 m 637 228 l 269 228 l 198 0 l 27 0 l 365 982 l 543 982 l 880 0 l 708 0 l 637 228 m 593 370 l 452 823 l 312 370 l 593 370 z "},"Ɐ":{"ha":907,"x_min":27,"x_max":880,"o":"m 880 982 l 543 0 l 365 0 l 27 982 l 199 982 l 270 754 l 639 754 l 709 982 l 880 982 m 595 612 l 315 612 l 456 157 l 595 612 z "},"Ꜷ":{"ha":1427,"x_min":27,"x_max":1320,"o":"m 1320 982 l 1320 340 q 1226 76 1320 170 q 963 -18 1133 -18 q 758 41 836 -18 q 637 228 680 100 l 269 228 l 198 0 l 27 0 l 365 982 l 543 982 l 783 285 q 854 163 812 198 q 968 127 897 127 q 1157 350 1157 127 l 1157 982 l 1320 982 m 312 370 l 593 370 l 452 823 l 312 370 z "},"Ꜹ":{"ha":1221,"x_min":27,"x_max":1188,"o":"m 1188 982 l 880 0 l 708 0 l 637 228 l 269 228 l 198 0 l 27 0 l 365 982 l 543 982 l 806 218 l 1017 982 l 1188 982 m 593 370 l 452 823 l 312 370 l 593 370 z "},"Æ":{"ha":1251,"x_min":-7,"x_max":1204,"o":"m 1204 145 l 1204 0 l 606 0 l 606 216 l 277 216 l 167 0 l -7 0 l 503 982 l 666 982 l 1187 982 l 1187 837 l 764 837 l 764 575 l 1072 575 l 1072 429 l 764 429 l 764 145 l 1204 145 m 606 358 l 606 863 l 349 358 l 606 358 z "},"Ǽ":{"ha":1251,"x_min":-7,"x_max":1204,"o":"m 703 1059 l 567 1059 l 567 1076 l 766 1256 l 949 1256 l 949 1240 l 703 1059 m 1204 145 l 1204 0 l 606 0 l 606 216 l 277 216 l 167 0 l -7 0 l 503 982 l 666 982 l 1187 982 l 1187 837 l 764 837 l 764 575 l 1072 575 l 1072 429 l 764 429 l 764 145 l 1204 145 m 606 358 l 606 863 l 349 358 l 606 358 z "},"Ǣ":{"ha":1251,"x_min":-7,"x_max":1204,"o":"m 888 1095 l 460 1095 l 460 1207 l 888 1207 l 888 1095 m 1204 145 l 1204 0 l 606 0 l 606 216 l 277 216 l 167 0 l -7 0 l 503 982 l 666 982 l 1187 982 l 1187 837 l 764 837 l 764 575 l 1072 575 l 1072 429 l 764 429 l 764 145 l 1204 145 m 606 358 l 606 863 l 349 358 l 606 358 z "},"B":{"ha":878,"x_min":114,"x_max":819,"o":"m 636 518 q 819 290 819 465 q 736 76 819 152 q 505 0 654 0 l 202 0 l 114 0 l 114 982 l 275 982 l 458 982 q 684 909 604 982 q 764 705 764 837 q 636 518 764 563 m 275 837 l 275 572 l 458 572 q 598 703 598 572 q 450 837 598 837 l 275 837 m 513 145 q 652 288 652 145 q 505 433 652 433 l 275 433 l 275 145 l 513 145 z "},"Ḃ":{"ha":878,"x_min":114,"x_max":819,"o":"m 425 1062 q 352 1088 378 1062 q 326 1157 326 1114 q 351 1228 326 1203 q 425 1253 377 1253 q 497 1227 471 1253 q 524 1158 524 1202 q 498 1087 524 1112 q 425 1062 472 1062 m 636 518 q 819 290 819 465 q 736 76 819 152 q 505 0 654 0 l 202 0 l 114 0 l 114 982 l 275 982 l 458 982 q 684 909 604 982 q 764 705 764 837 q 636 518 764 563 m 275 837 l 275 572 l 458 572 q 598 703 598 572 q 450 837 598 837 l 275 837 m 513 145 q 652 288 652 145 q 505 433 652 433 l 275 433 l 275 145 l 513 145 z "},"Ḅ":{"ha":878,"x_min":114,"x_max":819,"o":"m 636 518 q 819 290 819 465 q 736 76 819 152 q 505 0 654 0 l 202 0 l 114 0 l 114 982 l 275 982 l 458 982 q 684 909 604 982 q 764 705 764 837 q 636 518 764 563 m 275 837 l 275 572 l 458 572 q 598 703 598 572 q 450 837 598 837 l 275 837 m 513 145 q 652 288 652 145 q 505 433 652 433 l 275 433 l 275 145 l 513 145 m 448 -296 q 375 -270 401 -296 q 349 -201 349 -244 q 374 -130 349 -155 q 448 -104 400 -104 q 520 -130 494 -104 q 547 -199 547 -156 q 521 -271 547 -245 q 448 -296 495 -296 z "},"Ɓ":{"ha":975,"x_min":-22,"x_max":918,"o":"m 735 518 q 918 290 918 465 q 835 76 918 152 q 602 0 751 0 l 300 0 l 212 0 l 212 836 q 146 814 168 836 q 125 749 125 793 q 129 688 125 728 l -18 688 q -22 747 -22 716 q 39 920 -22 859 q 212 982 100 982 l 373 982 l 556 982 q 782 909 701 982 q 863 705 863 837 q 735 518 863 563 m 373 837 l 373 572 l 556 572 q 696 703 696 572 q 548 837 696 837 l 373 837 m 610 145 q 750 288 750 145 q 602 433 750 433 l 373 433 l 373 145 l 610 145 z "},"Ḇ":{"ha":878,"x_min":114,"x_max":819,"o":"m 636 518 q 819 290 819 465 q 736 76 819 152 q 505 0 654 0 l 202 0 l 114 0 l 114 982 l 275 982 l 458 982 q 684 909 604 982 q 764 705 764 837 q 636 518 764 563 m 275 837 l 275 572 l 458 572 q 598 703 598 572 q 450 837 598 837 l 275 837 m 513 145 q 652 288 652 145 q 505 433 652 433 l 275 433 l 275 145 l 513 145 m 233 -130 l 662 -130 l 662 -243 l 233 -243 l 233 -130 z "},"Ƀ":{"ha":878,"x_min":26,"x_max":819,"o":"m 636 518 q 819 290 819 465 q 736 76 819 152 q 505 0 654 0 l 202 0 l 114 0 l 114 228 l 26 228 l 26 349 l 114 349 l 114 982 l 275 982 l 458 982 q 684 909 604 982 q 764 705 764 837 q 636 518 764 563 m 275 837 l 275 572 l 458 572 q 598 703 598 572 q 450 837 598 837 l 275 837 m 513 145 q 652 288 652 145 q 505 433 652 433 l 275 433 l 275 349 l 449 349 l 449 228 l 275 228 l 275 145 l 513 145 z "},"Ƃ":{"ha":849,"x_min":114,"x_max":791,"o":"m 454 637 q 704 557 617 637 q 791 319 791 476 q 705 81 791 161 q 460 0 618 0 l 114 0 l 114 982 l 277 982 l 716 982 l 716 856 l 277 856 l 277 637 l 454 637 m 452 145 q 623 321 623 145 q 463 496 623 496 l 277 496 l 277 145 l 452 145 z "},"C":{"ha":817,"x_min":58,"x_max":774,"o":"m 506 -16 q 176 112 293 -16 q 58 471 58 240 q 112 751 58 632 q 265 935 165 871 q 499 1000 365 1000 q 642 980 572 1000 q 766 925 712 960 l 711 799 q 496 852 604 852 q 297 755 368 852 q 227 483 227 659 q 299 221 227 309 q 514 133 372 133 q 719 180 636 133 l 774 57 q 660 3 731 23 q 506 -16 589 -16 z "},"Ć":{"ha":817,"x_min":58,"x_max":774,"o":"m 370 1076 l 570 1256 l 753 1256 l 753 1240 l 506 1059 l 370 1059 l 370 1076 m 506 -16 q 176 112 293 -16 q 58 471 58 240 q 112 751 58 632 q 265 935 165 871 q 499 1000 365 1000 q 642 980 572 1000 q 766 925 712 960 l 711 799 q 496 852 604 852 q 297 755 368 852 q 227 483 227 659 q 299 221 227 309 q 514 133 372 133 q 719 180 636 133 l 774 57 q 660 3 731 23 q 506 -16 589 -16 z "},"Ꞓ":{"ha":817,"x_min":-35,"x_max":774,"o":"m 774 57 q 660 3 731 23 q 506 -16 589 -16 q 186 100 304 -16 q 58 429 69 217 l -35 429 l -35 555 l 61 555 q 132 792 75 692 q 283 946 189 892 q 499 1000 377 1000 q 642 980 572 1000 q 766 925 712 960 l 711 799 q 496 852 604 852 q 313 774 381 852 q 229 555 244 697 l 444 555 l 444 429 l 228 429 q 514 133 251 133 q 719 180 636 133 l 774 57 z "},"Č":{"ha":817,"x_min":58,"x_max":774,"o":"m 399 1059 l 240 1240 l 240 1256 l 362 1256 l 480 1146 l 598 1256 l 715 1256 l 715 1240 l 556 1059 l 399 1059 m 774 57 q 660 3 731 23 q 506 -16 589 -16 q 176 112 293 -16 q 58 471 58 240 q 112 751 58 632 q 265 935 165 871 q 499 1000 365 1000 q 642 980 572 1000 q 766 925 712 960 l 711 799 q 496 852 604 852 q 297 755 368 852 q 227 483 227 659 q 299 221 227 309 q 514 133 372 133 q 719 180 636 133 l 774 57 z "},"Ç":{"ha":817,"x_min":58,"x_max":774,"o":"m 499 -71 q 609 -100 570 -71 q 648 -184 648 -130 q 602 -285 648 -250 q 469 -320 555 -320 q 313 -286 381 -320 l 339 -209 q 454 -233 407 -233 q 506 -222 488 -233 q 524 -189 524 -210 q 463 -145 524 -145 q 408 -155 433 -145 l 370 -113 l 414 -9 q 151 142 244 18 q 58 471 58 266 q 112 751 58 632 q 265 935 165 871 q 499 1000 365 1000 q 642 980 572 1000 q 766 925 712 960 l 711 799 q 496 852 604 852 q 297 755 368 852 q 227 483 227 659 q 299 221 227 309 q 514 133 372 133 q 719 180 636 133 l 774 57 q 663 4 732 23 q 511 -16 593 -15 l 471 -73 q 499 -71 490 -71 z "},"Ḉ":{"ha":817,"x_min":58,"x_max":774,"o":"m 506 1059 l 370 1059 l 370 1076 l 570 1256 l 753 1256 l 753 1240 l 506 1059 m 499 -71 q 609 -100 570 -71 q 648 -184 648 -130 q 602 -285 648 -250 q 469 -320 555 -320 q 313 -286 381 -320 l 339 -209 q 454 -233 407 -233 q 506 -222 488 -233 q 524 -189 524 -210 q 463 -145 524 -145 q 408 -155 433 -145 l 370 -113 l 414 -9 q 151 142 244 18 q 58 471 58 266 q 112 751 58 632 q 265 935 165 871 q 499 1000 365 1000 q 642 980 572 1000 q 766 925 712 960 l 711 799 q 496 852 604 852 q 297 755 368 852 q 227 483 227 659 q 299 221 227 309 q 514 133 372 133 q 719 180 636 133 l 774 57 q 663 4 732 23 q 511 -16 593 -15 l 471 -73 q 499 -71 490 -71 z "},"Ĉ":{"ha":817,"x_min":58,"x_max":774,"o":"m 358 1059 l 240 1059 l 240 1076 l 399 1256 l 556 1256 l 715 1076 l 715 1059 l 594 1059 l 475 1169 l 358 1059 m 774 57 q 660 3 731 23 q 506 -16 589 -16 q 176 112 293 -16 q 58 471 58 240 q 112 751 58 632 q 265 935 165 871 q 499 1000 365 1000 q 642 980 572 1000 q 766 925 712 960 l 711 799 q 496 852 604 852 q 297 755 368 852 q 227 483 227 659 q 299 221 227 309 q 514 133 372 133 q 719 180 636 133 l 774 57 z "},"Ċ":{"ha":817,"x_min":58,"x_max":774,"o":"m 477 1062 q 405 1088 431 1062 q 378 1157 378 1114 q 404 1228 378 1203 q 477 1253 430 1253 q 550 1227 524 1253 q 576 1158 576 1202 q 551 1087 576 1112 q 477 1062 525 1062 m 506 -16 q 176 112 293 -16 q 58 471 58 240 q 112 751 58 632 q 265 935 165 871 q 499 1000 365 1000 q 642 980 572 1000 q 766 925 712 960 l 711 799 q 496 852 604 852 q 297 755 368 852 q 227 483 227 659 q 299 221 227 309 q 514 133 372 133 q 719 180 636 133 l 774 57 q 660 3 731 23 q 506 -16 589 -16 z "},"Ƈ":{"ha":940,"x_min":58,"x_max":926,"o":"m 865 1166 q 926 1161 899 1166 l 926 1028 q 864 1032 883 1032 q 766 932 766 1032 l 766 907 l 766 799 l 711 799 q 496 852 604 852 q 297 755 368 852 q 227 483 227 659 q 299 221 227 309 q 514 133 372 133 q 719 180 636 133 l 774 57 q 660 3 731 23 q 506 -16 589 -16 q 176 112 293 -16 q 58 471 58 240 q 112 751 58 632 q 265 935 165 871 q 499 1000 365 1000 q 635 982 572 1000 q 708 1118 648 1070 q 865 1166 768 1166 z "},"Ꝯ":{"ha":774,"x_min":38,"x_max":703,"o":"m 149 114 q 406 210 320 151 q 484 289 456 244 q 523 401 511 334 q 534 578 534 469 q 366 854 534 854 q 247 810 288 854 q 206 681 206 766 q 376 502 206 502 q 442 507 401 502 l 442 363 q 350 357 406 357 q 121 440 203 357 q 38 674 38 524 q 125 914 38 829 q 368 1000 213 1000 q 618 896 533 1000 q 703 582 703 792 q 683 364 703 453 q 621 213 663 275 q 505 102 578 151 q 354 26 438 57 q 178 -18 270 -4 l 149 114 z "},"Ꜿ":{"ha":817,"x_min":42,"x_max":760,"o":"m 311 -16 q 157 3 228 -16 q 42 57 85 23 l 98 180 q 302 133 180 133 q 518 221 445 133 q 591 483 591 309 q 520 755 591 658 q 320 852 449 852 q 106 799 213 852 l 50 925 q 175 980 104 960 q 317 1000 245 1000 q 552 935 452 1000 q 706 751 652 871 q 760 471 760 632 q 642 112 760 240 q 311 -16 524 -16 m 307 403 q 234 429 260 403 q 208 498 208 454 q 233 569 208 544 q 307 594 259 594 q 379 568 353 594 q 406 499 406 543 q 380 428 406 453 q 307 403 354 403 z "},"Ȼ":{"ha":817,"x_min":58,"x_max":774,"o":"m 774 57 q 660 3 731 23 q 506 -16 589 -16 q 308 20 393 -16 l 247 -145 l 140 -145 l 218 72 q 99 234 140 133 q 58 471 58 335 q 112 751 58 632 q 265 935 165 871 q 499 1000 365 1000 q 557 997 519 1000 l 595 1099 l 703 1099 l 658 975 q 766 925 722 956 l 711 799 q 608 838 663 823 l 362 168 q 514 133 425 133 q 719 180 636 133 l 774 57 m 227 483 q 282 244 227 328 l 505 852 l 496 852 q 297 755 368 852 q 227 483 227 659 z "},"Ꜭ":{"ha":791,"x_min":30,"x_max":734,"o":"m 734 240 l 616 240 l 616 176 q 414 -18 616 -18 q 312 0 359 -18 l 335 129 q 397 121 366 121 q 440 136 427 121 q 453 186 453 152 l 453 240 l 30 240 l 30 380 l 388 982 l 616 982 l 616 380 l 734 380 l 734 240 m 453 380 l 453 834 l 199 380 l 453 380 z "},"Ꜯ":{"ha":955,"x_min":30,"x_max":880,"o":"m 734 240 l 616 240 l 616 176 q 414 -18 616 -18 q 312 0 359 -18 l 335 129 q 397 121 366 121 q 440 136 427 121 q 453 186 453 152 l 453 240 l 30 240 l 30 380 l 388 982 l 616 982 l 616 380 l 734 380 l 734 240 m 453 380 l 453 834 l 199 380 l 453 380 m 624 -178 q 699 -66 677 -121 q 722 65 722 -11 q 713 164 722 114 l 872 164 q 880 66 880 118 q 835 -104 880 -27 q 692 -251 789 -180 l 624 -178 z "},"D":{"ha":939,"x_min":114,"x_max":867,"o":"m 420 982 q 753 859 639 982 q 867 492 867 735 q 752 124 867 248 q 419 0 637 0 l 114 0 l 114 982 l 420 982 m 418 145 q 628 233 557 145 q 699 492 699 320 q 416 837 699 837 l 277 837 l 277 145 l 418 145 z "},"Ǳ":{"ha":1651,"x_min":114,"x_max":1598,"o":"m 420 982 q 753 859 639 982 q 867 492 867 735 q 752 124 867 248 q 419 0 637 0 l 114 0 l 114 982 l 420 982 m 418 145 q 628 233 557 145 q 699 492 699 320 q 416 837 699 837 l 277 837 l 277 145 l 418 145 m 1598 144 l 1598 0 l 949 0 l 949 145 l 1407 838 l 967 838 l 967 982 l 1591 982 l 1591 838 l 1133 144 l 1598 144 z "},"Ǆ":{"ha":1651,"x_min":114,"x_max":1598,"o":"m 1195 1059 l 1036 1240 l 1036 1256 l 1158 1256 l 1276 1146 l 1394 1256 l 1511 1256 l 1511 1240 l 1352 1059 l 1195 1059 m 420 982 q 753 859 639 982 q 867 492 867 735 q 752 124 867 248 q 419 0 637 0 l 114 0 l 114 982 l 420 982 m 1598 144 l 1598 0 l 949 0 l 949 145 l 1405 838 l 967 838 l 967 982 l 1591 982 l 1591 838 l 1134 144 l 1598 144 m 418 145 q 628 233 557 145 q 699 492 699 320 q 416 837 699 837 l 277 837 l 277 145 l 418 145 z "},"Ɖ":{"ha":939,"x_min":26,"x_max":867,"o":"m 420 982 q 753 859 639 982 q 867 492 867 735 q 752 124 867 248 q 419 0 637 0 l 114 0 l 114 434 l 26 434 l 26 560 l 114 560 l 114 982 l 420 982 m 418 145 q 628 233 557 145 q 699 492 699 320 q 416 837 699 837 l 277 837 l 277 560 l 499 560 l 499 434 l 277 434 l 277 145 l 418 145 z "},"Ð":{"ha":939,"x_min":26,"x_max":868,"o":"m 422 982 q 753 859 639 982 q 868 492 868 735 q 753 124 868 248 q 420 0 639 0 l 114 0 l 114 434 l 26 434 l 26 560 l 114 560 l 114 982 l 422 982 m 418 145 q 700 492 700 145 q 418 837 700 837 l 277 837 l 277 560 l 499 560 l 499 434 l 277 434 l 277 145 l 418 145 z "},"Ď":{"ha":939,"x_min":114,"x_max":867,"o":"m 381 1059 l 222 1240 l 222 1256 l 345 1256 l 463 1146 l 581 1256 l 697 1256 l 697 1240 l 538 1059 l 381 1059 m 420 982 q 753 859 639 982 q 867 492 867 735 q 752 124 867 248 q 419 0 637 0 l 114 0 l 114 982 l 420 982 m 418 145 q 628 233 557 145 q 699 492 699 320 q 416 837 699 837 l 277 837 l 277 145 l 418 145 z "},"Ḑ":{"ha":939,"x_min":114,"x_max":867,"o":"m 420 982 q 753 859 639 982 q 867 492 867 735 q 752 124 867 248 q 419 0 637 0 l 114 0 l 114 982 l 420 982 m 418 145 q 628 233 557 145 q 699 492 699 320 q 416 837 699 837 l 277 837 l 277 145 l 418 145 m 321 -323 q 369 -248 355 -285 q 382 -157 382 -212 q 378 -96 382 -121 l 526 -96 q 532 -156 532 -129 q 496 -274 532 -220 q 380 -387 460 -328 l 321 -323 z "},"Ḓ":{"ha":939,"x_min":114,"x_max":867,"o":"m 420 982 q 753 859 639 982 q 867 492 867 735 q 752 124 867 248 q 419 0 637 0 l 114 0 l 114 982 l 420 982 m 418 145 q 628 233 557 145 q 699 492 699 320 q 416 837 699 837 l 277 837 l 277 145 l 418 145 m 693 -294 l 693 -311 l 571 -311 l 453 -201 l 335 -311 l 218 -311 l 218 -294 l 377 -114 l 534 -114 l 693 -294 z "},"Đ":{"ha":939,"x_min":26,"x_max":867,"o":"m 420 982 q 753 859 639 982 q 867 492 867 735 q 752 124 867 248 q 419 0 637 0 l 114 0 l 114 434 l 26 434 l 26 560 l 114 560 l 114 982 l 420 982 m 418 145 q 628 233 557 145 q 699 492 699 320 q 416 837 699 837 l 277 837 l 277 560 l 499 560 l 499 434 l 277 434 l 277 145 l 418 145 z "},"Ḋ":{"ha":939,"x_min":114,"x_max":867,"o":"m 460 1062 q 387 1088 414 1062 q 361 1157 361 1114 q 387 1228 361 1203 q 460 1253 412 1253 q 532 1227 506 1253 q 559 1158 559 1202 q 533 1087 559 1112 q 460 1062 507 1062 m 420 982 q 753 859 639 982 q 867 492 867 735 q 752 124 867 248 q 419 0 637 0 l 114 0 l 114 982 l 420 982 m 418 145 q 628 233 557 145 q 699 492 699 320 q 416 837 699 837 l 277 837 l 277 145 l 418 145 z "},"Ḍ":{"ha":939,"x_min":114,"x_max":867,"o":"m 420 982 q 753 859 639 982 q 867 492 867 735 q 752 124 867 248 q 419 0 637 0 l 114 0 l 114 982 l 420 982 m 418 145 q 628 233 557 145 q 699 492 699 320 q 416 837 699 837 l 277 837 l 277 145 l 418 145 m 454 -300 q 382 -274 408 -300 q 355 -205 355 -248 q 381 -134 355 -159 q 454 -109 407 -109 q 527 -134 500 -109 q 553 -203 553 -160 q 528 -275 553 -250 q 454 -300 502 -300 z "},"Ɗ":{"ha":1036,"x_min":-22,"x_max":966,"o":"m 519 982 q 851 859 736 982 q 966 492 966 735 q 851 124 966 248 q 518 0 736 0 l 212 0 l 212 836 q 146 814 168 836 q 125 749 125 793 q 129 688 125 728 l -18 688 q -22 747 -22 716 q 39 920 -22 859 q 212 982 100 982 l 519 982 m 515 145 q 798 492 798 145 q 514 837 798 837 l 374 837 l 374 145 l 515 145 z "},"Ꝺ":{"ha":959,"x_min":39,"x_max":887,"o":"m 479 982 q 783 856 680 982 q 887 483 887 730 q 783 107 887 232 q 479 -18 680 -18 q 176 108 279 -18 q 72 483 72 233 q 197 848 72 707 l 39 848 l 39 982 l 479 982 m 479 127 q 660 216 601 127 q 719 483 719 304 q 653 753 719 661 q 460 845 587 845 l 365 845 q 240 483 240 727 q 299 216 240 304 q 479 127 358 127 z "},"Ḏ":{"ha":939,"x_min":114,"x_max":867,"o":"m 420 982 q 753 859 639 982 q 867 492 867 735 q 752 124 867 248 q 419 0 637 0 l 114 0 l 114 982 l 420 982 m 418 145 q 628 233 557 145 q 699 492 699 320 q 416 837 699 837 l 277 837 l 277 145 l 418 145 m 240 -134 l 669 -134 l 669 -247 l 240 -247 l 240 -134 z "},"Ƌ":{"ha":849,"x_min":58,"x_max":735,"o":"m 735 0 l 389 0 q 144 81 231 0 q 58 319 58 161 q 146 557 58 476 q 395 637 233 637 l 572 637 l 572 856 l 133 856 l 133 982 l 735 982 l 735 0 m 572 496 l 387 496 q 227 321 227 496 q 397 145 227 145 l 572 145 l 572 496 z "},"ǲ":{"ha":1550,"x_min":114,"x_max":1503,"o":"m 420 982 q 753 859 639 982 q 867 492 867 735 q 752 124 867 248 q 419 0 637 0 l 114 0 l 114 982 l 420 982 m 418 145 q 628 233 557 145 q 699 492 699 320 q 416 837 699 837 l 277 837 l 277 145 l 418 145 m 1503 136 l 1503 0 l 958 0 l 958 136 l 1316 601 l 970 601 l 970 736 l 1496 736 l 1496 601 l 1137 136 l 1503 136 z "},"ǅ":{"ha":1550,"x_min":114,"x_max":1503,"o":"m 1149 829 l 990 1009 l 990 1025 l 1112 1025 l 1230 916 l 1348 1025 l 1465 1025 l 1465 1009 l 1306 829 l 1149 829 m 420 982 q 753 859 639 982 q 867 492 867 735 q 752 124 867 248 q 419 0 637 0 l 114 0 l 114 982 l 420 982 m 418 145 q 628 233 557 145 q 699 492 699 320 q 416 837 699 837 l 277 837 l 277 145 l 418 145 m 1503 136 l 1503 0 l 958 0 l 958 136 l 1316 601 l 970 601 l 970 736 l 1496 736 l 1496 601 l 1137 136 l 1503 136 z "},"E":{"ha":783,"x_min":114,"x_max":735,"o":"m 735 145 l 735 0 l 114 0 l 114 982 l 718 982 l 718 837 l 277 837 l 277 575 l 602 575 l 602 429 l 277 429 l 277 145 l 735 145 z "},"É":{"ha":783,"x_min":114,"x_max":735,"o":"m 445 1059 l 309 1059 l 309 1076 l 509 1256 l 692 1256 l 692 1240 l 445 1059 m 735 145 l 735 0 l 114 0 l 114 982 l 718 982 l 718 837 l 277 837 l 277 575 l 602 575 l 602 429 l 277 429 l 277 145 l 735 145 z "},"Ĕ":{"ha":783,"x_min":114,"x_max":735,"o":"m 416 1059 q 264 1117 319 1059 q 205 1280 209 1175 l 301 1280 q 418 1179 316 1179 q 536 1280 522 1179 l 628 1280 q 569 1117 624 1175 q 416 1059 514 1059 m 735 145 l 735 0 l 114 0 l 114 982 l 718 982 l 718 837 l 277 837 l 277 575 l 602 575 l 602 429 l 277 429 l 277 145 l 735 145 z "},"Ě":{"ha":783,"x_min":114,"x_max":735,"o":"m 338 1059 l 179 1240 l 179 1256 l 301 1256 l 419 1146 l 537 1256 l 654 1256 l 654 1240 l 495 1059 l 338 1059 m 735 145 l 735 0 l 114 0 l 114 982 l 718 982 l 718 837 l 277 837 l 277 575 l 602 575 l 602 429 l 277 429 l 277 145 l 735 145 z "},"Ȩ":{"ha":783,"x_min":114,"x_max":735,"o":"m 473 0 l 422 -73 q 450 -71 441 -71 q 560 -100 521 -71 q 600 -184 600 -130 q 553 -285 600 -250 q 420 -320 506 -320 q 264 -286 332 -320 l 290 -209 q 406 -233 358 -233 q 457 -222 439 -233 q 475 -189 475 -210 q 414 -145 475 -145 q 359 -155 384 -145 l 321 -113 l 369 0 l 114 0 l 114 982 l 718 982 l 718 837 l 277 837 l 277 575 l 602 575 l 602 429 l 277 429 l 277 145 l 735 145 l 735 0 l 473 0 z "},"Ḝ":{"ha":783,"x_min":114,"x_max":735,"o":"m 416 1059 q 264 1117 319 1059 q 205 1280 209 1175 l 301 1280 q 418 1179 316 1179 q 536 1280 522 1179 l 628 1280 q 569 1117 624 1175 q 416 1059 514 1059 m 473 0 l 422 -73 q 450 -71 441 -71 q 560 -100 521 -71 q 600 -184 600 -130 q 553 -285 600 -250 q 420 -320 506 -320 q 264 -286 332 -320 l 290 -209 q 406 -233 358 -233 q 457 -222 439 -233 q 475 -189 475 -210 q 414 -145 475 -145 q 359 -155 384 -145 l 321 -113 l 369 0 l 114 0 l 114 982 l 718 982 l 718 837 l 277 837 l 277 575 l 602 575 l 602 429 l 277 429 l 277 145 l 735 145 l 735 0 l 473 0 z "},"Ê":{"ha":783,"x_min":114,"x_max":735,"o":"m 297 1059 l 179 1059 l 179 1076 l 338 1256 l 495 1256 l 654 1076 l 654 1059 l 533 1059 l 414 1169 l 297 1059 m 735 145 l 735 0 l 114 0 l 114 982 l 718 982 l 718 837 l 277 837 l 277 575 l 602 575 l 602 429 l 277 429 l 277 145 l 735 145 z "},"Ế":{"ha":783,"x_min":114,"x_max":827,"o":"m 827 1397 l 827 1383 l 689 1211 l 583 1211 l 583 1225 l 685 1397 l 827 1397 m 311 1065 l 201 1065 l 201 1078 l 342 1267 l 491 1267 l 632 1078 l 632 1065 l 519 1065 l 414 1176 l 311 1065 m 277 145 l 735 145 l 735 0 l 114 0 l 114 982 l 718 982 l 718 837 l 277 837 l 277 575 l 602 575 l 602 429 l 277 429 l 277 145 z "},"Ḙ":{"ha":783,"x_min":114,"x_max":735,"o":"m 735 145 l 735 0 l 114 0 l 114 982 l 718 982 l 718 837 l 277 837 l 277 575 l 602 575 l 602 429 l 277 429 l 277 145 l 735 145 m 666 -294 l 666 -311 l 544 -311 l 426 -201 l 308 -311 l 191 -311 l 191 -294 l 350 -114 l 507 -114 l 666 -294 z "},"Ệ":{"ha":783,"x_min":114,"x_max":735,"o":"m 297 1059 l 179 1059 l 179 1076 l 338 1256 l 495 1256 l 654 1076 l 654 1059 l 533 1059 l 414 1169 l 297 1059 m 735 145 l 735 0 l 114 0 l 114 982 l 718 982 l 718 837 l 277 837 l 277 575 l 602 575 l 602 429 l 277 429 l 277 145 l 735 145 m 429 -109 q 501 -134 475 -109 q 528 -203 528 -160 q 502 -275 528 -250 q 429 -300 476 -300 q 356 -274 382 -300 q 330 -205 330 -248 q 355 -134 330 -159 q 429 -109 381 -109 z "},"Ề":{"ha":783,"x_min":16,"x_max":735,"o":"m 146 1211 l 16 1383 l 16 1397 l 159 1397 l 252 1225 l 252 1211 l 146 1211 m 201 1078 l 342 1267 l 491 1267 l 632 1078 l 632 1065 l 519 1065 l 414 1176 l 311 1065 l 201 1065 l 201 1078 m 735 145 l 735 0 l 114 0 l 114 982 l 718 982 l 718 837 l 277 837 l 277 575 l 602 575 l 602 429 l 277 429 l 277 145 l 735 145 z "},"Ể":{"ha":783,"x_min":114,"x_max":770,"o":"m 651 1411 q 739 1386 708 1411 q 770 1318 770 1362 q 756 1271 770 1286 q 718 1246 742 1256 q 695 1234 703 1240 q 688 1218 688 1227 l 690 1200 l 590 1200 q 587 1222 587 1214 q 598 1259 587 1246 q 629 1280 609 1271 q 648 1293 642 1287 q 655 1309 655 1299 q 647 1324 655 1318 q 624 1329 639 1329 q 553 1308 594 1329 l 522 1375 q 583 1401 549 1392 q 651 1411 617 1411 m 311 1065 l 201 1065 l 201 1078 l 342 1267 l 491 1267 l 632 1078 l 632 1065 l 519 1065 l 414 1176 l 311 1065 m 277 145 l 735 145 l 735 0 l 114 0 l 114 982 l 718 982 l 718 837 l 277 837 l 277 575 l 602 575 l 602 429 l 277 429 l 277 145 z "},"Ễ":{"ha":783,"x_min":114,"x_max":735,"o":"m 331 1322 q 274 1257 281 1322 l 195 1257 q 232 1376 195 1333 q 335 1419 269 1419 q 393 1408 370 1419 q 441 1378 416 1397 q 473 1357 461 1363 q 502 1351 486 1351 q 559 1416 552 1351 l 637 1416 q 601 1297 637 1340 q 498 1255 564 1255 q 439 1265 463 1255 q 392 1295 416 1276 q 360 1316 372 1310 q 331 1322 349 1322 m 490 1222 l 632 1055 l 632 1042 l 525 1042 l 415 1141 l 304 1042 l 201 1042 l 201 1055 l 343 1222 l 490 1222 m 735 145 l 735 0 l 114 0 l 114 982 l 718 982 l 718 837 l 277 837 l 277 575 l 602 575 l 602 429 l 277 429 l 277 145 l 735 145 z "},"Ȅ":{"ha":783,"x_min":113,"x_max":735,"o":"m 275 1059 l 113 1240 l 113 1256 l 269 1256 l 387 1076 l 387 1059 l 275 1059 m 503 1059 l 340 1240 l 340 1256 l 494 1256 l 612 1076 l 612 1059 l 503 1059 m 735 145 l 735 0 l 114 0 l 114 982 l 718 982 l 718 837 l 277 837 l 277 575 l 602 575 l 602 429 l 277 429 l 277 145 l 735 145 z "},"Ë":{"ha":783,"x_min":114,"x_max":735,"o":"m 279 1058 q 214 1082 237 1058 q 190 1146 190 1105 q 214 1213 190 1190 q 279 1236 237 1236 q 345 1212 321 1236 q 369 1147 369 1188 q 345 1082 369 1105 q 279 1058 321 1058 m 555 1058 q 489 1082 513 1058 q 465 1146 465 1105 q 489 1213 465 1190 q 555 1236 513 1236 q 621 1212 597 1236 q 644 1147 644 1188 q 621 1082 644 1105 q 555 1058 597 1058 m 735 145 l 735 0 l 114 0 l 114 982 l 718 982 l 718 837 l 277 837 l 277 575 l 602 575 l 602 429 l 277 429 l 277 145 l 735 145 z "},"Ė":{"ha":783,"x_min":114,"x_max":735,"o":"m 416 1062 q 344 1088 370 1062 q 317 1157 317 1114 q 343 1228 317 1203 q 416 1253 369 1253 q 489 1227 463 1253 q 515 1158 515 1202 q 490 1087 515 1112 q 416 1062 464 1062 m 735 145 l 735 0 l 114 0 l 114 982 l 718 982 l 718 837 l 277 837 l 277 575 l 602 575 l 602 429 l 277 429 l 277 145 l 735 145 z "},"Ẹ":{"ha":783,"x_min":114,"x_max":735,"o":"m 735 145 l 735 0 l 114 0 l 114 982 l 718 982 l 718 837 l 277 837 l 277 575 l 602 575 l 602 429 l 277 429 l 277 145 l 735 145 m 429 -300 q 356 -274 382 -300 q 330 -205 330 -248 q 355 -134 330 -159 q 429 -109 381 -109 q 501 -134 475 -109 q 528 -203 528 -160 q 502 -275 528 -250 q 429 -300 476 -300 z "},"È":{"ha":783,"x_min":114,"x_max":735,"o":"m 387 1059 l 152 1240 l 152 1256 l 335 1256 l 522 1076 l 522 1059 l 387 1059 m 735 145 l 735 0 l 114 0 l 114 982 l 718 982 l 718 837 l 277 837 l 277 575 l 602 575 l 602 429 l 277 429 l 277 145 l 735 145 z "},"Ẻ":{"ha":783,"x_min":114,"x_max":735,"o":"m 401 1198 q 309 1169 361 1198 l 271 1249 q 347 1282 304 1271 q 433 1294 389 1294 q 536 1267 499 1294 q 572 1194 572 1241 q 555 1141 572 1158 q 507 1114 537 1124 q 480 1099 488 1105 q 472 1082 472 1093 l 475 1059 l 359 1059 q 357 1089 357 1076 q 370 1128 357 1115 q 406 1152 382 1141 q 428 1164 420 1158 q 435 1179 435 1169 q 401 1198 435 1198 m 735 145 l 735 0 l 114 0 l 114 982 l 718 982 l 718 837 l 277 837 l 277 575 l 602 575 l 602 429 l 277 429 l 277 145 l 735 145 z "},"Ȇ":{"ha":783,"x_min":114,"x_max":735,"o":"m 415 1175 q 297 1073 312 1175 l 205 1073 q 264 1236 209 1179 q 416 1294 319 1294 q 569 1236 514 1294 q 628 1073 624 1179 l 532 1073 q 415 1175 518 1175 m 735 145 l 735 0 l 114 0 l 114 982 l 718 982 l 718 837 l 277 837 l 277 575 l 602 575 l 602 429 l 277 429 l 277 145 l 735 145 z "},"Ē":{"ha":783,"x_min":114,"x_max":735,"o":"m 631 1095 l 202 1095 l 202 1207 l 631 1207 l 631 1095 m 735 145 l 735 0 l 114 0 l 114 982 l 718 982 l 718 837 l 277 837 l 277 575 l 602 575 l 602 429 l 277 429 l 277 145 l 735 145 z "},"Ḗ":{"ha":783,"x_min":114,"x_max":735,"o":"m 461 1234 l 355 1234 l 355 1248 l 457 1420 l 600 1420 l 600 1407 l 461 1234 m 631 1095 l 202 1095 l 202 1207 l 631 1207 l 631 1095 m 735 145 l 735 0 l 114 0 l 114 982 l 718 982 l 718 837 l 277 837 l 277 575 l 602 575 l 602 429 l 277 429 l 277 145 l 735 145 z "},"Ḕ":{"ha":783,"x_min":114,"x_max":735,"o":"m 365 1234 l 235 1407 l 235 1420 l 377 1420 l 471 1248 l 471 1234 l 365 1234 m 631 1095 l 202 1095 l 202 1207 l 631 1207 l 631 1095 m 735 145 l 735 0 l 114 0 l 114 982 l 718 982 l 718 837 l 277 837 l 277 575 l 602 575 l 602 429 l 277 429 l 277 145 l 735 145 z "},"Ę":{"ha":783,"x_min":114,"x_max":803,"o":"m 803 -266 q 732 -296 772 -285 q 650 -307 692 -307 q 532 -271 574 -307 q 490 -172 490 -236 q 520 -75 490 -119 q 606 0 551 -30 l 114 0 l 114 982 l 718 982 l 718 837 l 277 837 l 277 575 l 602 575 l 602 429 l 277 429 l 277 145 l 735 145 l 735 0 l 736 0 q 623 -144 623 -65 q 686 -199 623 -199 q 766 -179 724 -199 l 803 -266 z "},"Ɛ":{"ha":769,"x_min":46,"x_max":754,"o":"m 754 60 q 604 3 692 22 q 426 -16 515 -16 q 149 60 252 -16 q 46 288 46 136 q 229 521 46 465 q 84 736 84 583 q 178 933 84 867 q 429 1000 271 1000 q 716 930 585 1000 l 662 803 q 442 857 551 857 q 302 822 354 857 q 251 715 251 787 q 296 612 251 650 q 425 574 340 574 l 582 574 l 582 437 l 414 437 q 267 406 320 437 q 214 294 214 374 q 441 130 214 130 q 571 146 503 130 q 693 189 639 161 l 754 60 z "},"Ǝ":{"ha":783,"x_min":47,"x_max":669,"o":"m 669 982 l 669 0 l 47 0 l 47 145 l 506 145 l 506 429 l 180 429 l 180 575 l 506 575 l 506 837 l 65 837 l 65 982 l 669 982 z "},"Ɜ":{"ha":769,"x_min":15,"x_max":723,"o":"m 540 461 q 685 245 685 399 q 591 49 685 115 q 340 -18 498 -18 q 53 52 184 -18 l 107 179 q 327 125 218 125 q 467 160 415 125 q 518 267 518 195 q 473 370 518 332 q 345 408 429 408 l 187 408 l 187 545 l 355 545 q 502 576 449 545 q 555 688 555 608 q 328 852 555 852 q 198 836 266 852 q 76 793 130 821 l 15 922 q 165 979 77 960 q 343 998 254 998 q 620 922 517 998 q 723 694 723 846 q 540 461 723 517 z "},"Ʃ":{"ha":796,"x_min":62,"x_max":747,"o":"m 62 144 l 359 498 l 62 838 l 62 982 l 747 982 l 747 838 l 260 838 l 562 498 l 260 144 l 747 144 l 747 0 l 62 0 l 62 144 z "},"Ɇ":{"ha":783,"x_min":114,"x_max":735,"o":"m 735 0 l 343 0 l 304 -145 l 195 -145 l 236 0 l 114 0 l 114 982 l 509 982 l 541 1099 l 648 1099 l 617 982 l 718 982 l 718 837 l 576 837 l 503 575 l 602 575 l 602 429 l 463 429 l 384 145 l 735 145 l 735 0 m 468 837 l 277 837 l 277 575 l 396 575 l 468 837 m 355 429 l 277 429 l 277 145 l 355 429 z "},"Ꝫ":{"ha":701,"x_min":15,"x_max":655,"o":"m 468 525 q 655 286 655 467 q 557 75 655 149 q 283 0 460 0 l 23 0 l 23 145 l 270 145 q 487 297 487 145 q 286 441 487 441 l 127 441 l 127 578 l 262 578 q 390 613 349 578 q 431 719 431 648 q 391 823 431 788 q 278 857 351 857 q 173 844 221 857 q 69 803 125 830 l 15 930 q 293 1000 146 1000 q 517 932 435 1000 q 598 742 598 865 q 468 525 598 593 z "},"Ẽ":{"ha":783,"x_min":114,"x_max":735,"o":"m 320 1147 q 266 1069 274 1147 l 174 1069 q 215 1212 176 1161 q 320 1263 254 1263 q 384 1250 357 1263 q 445 1214 411 1237 q 482 1190 467 1198 q 513 1183 498 1183 q 567 1260 559 1183 l 659 1260 q 618 1117 656 1168 q 513 1066 579 1066 q 450 1078 476 1066 q 388 1115 425 1090 q 352 1139 368 1131 q 320 1147 336 1147 m 735 145 l 735 0 l 114 0 l 114 982 l 718 982 l 718 837 l 277 837 l 277 575 l 602 575 l 602 429 l 277 429 l 277 145 l 735 145 z "},"Ḛ":{"ha":783,"x_min":114,"x_max":735,"o":"m 735 145 l 735 0 l 114 0 l 114 982 l 718 982 l 718 837 l 277 837 l 277 575 l 602 575 l 602 429 l 277 429 l 277 145 l 735 145 m 525 -312 q 463 -300 488 -312 q 400 -263 437 -288 q 364 -239 380 -247 q 332 -231 349 -231 q 278 -309 286 -231 l 186 -309 q 227 -166 189 -217 q 332 -115 266 -115 q 396 -128 369 -115 q 457 -164 423 -141 q 494 -188 479 -180 q 525 -195 510 -195 q 579 -118 571 -195 l 671 -118 q 630 -261 669 -210 q 525 -312 591 -312 z "},"Ʒ":{"ha":798,"x_min":16,"x_max":741,"o":"m 423 591 q 741 305 741 559 q 687 127 741 199 q 543 18 633 54 q 339 -18 452 -18 q 168 1 251 -18 q 16 57 84 19 l 76 189 q 336 130 206 130 q 511 176 449 130 q 572 308 572 222 q 498 436 572 400 q 281 472 425 472 l 224 472 l 224 594 l 480 838 l 64 838 l 64 982 l 680 982 l 680 836 l 423 591 z "},"Ǯ":{"ha":798,"x_min":16,"x_max":741,"o":"m 283 1059 l 125 1240 l 125 1256 l 247 1256 l 365 1146 l 483 1256 l 600 1256 l 600 1240 l 441 1059 l 283 1059 m 423 591 q 741 305 741 559 q 687 127 741 199 q 543 18 633 54 q 339 -18 452 -18 q 168 1 251 -18 q 16 57 84 19 l 76 189 q 336 130 206 130 q 511 176 449 130 q 572 308 572 222 q 498 436 572 400 q 281 472 425 472 l 224 472 l 224 594 l 480 838 l 64 838 l 64 982 l 680 982 l 680 836 l 423 591 z "},"Ƹ":{"ha":798,"x_min":57,"x_max":781,"o":"m 781 57 q 630 1 713 19 q 458 -18 547 -18 q 255 18 346 -18 q 111 127 164 54 q 57 305 57 199 q 376 591 57 559 l 118 836 l 118 982 l 734 982 l 734 838 l 317 838 l 574 594 l 574 472 l 517 472 q 299 436 373 472 q 225 308 225 400 q 287 176 225 222 q 461 130 349 130 q 722 189 594 130 l 781 57 z "},"F":{"ha":731,"x_min":114,"x_max":708,"o":"m 277 837 l 277 551 l 627 551 l 627 404 l 277 404 l 277 0 l 114 0 l 114 982 l 708 982 l 708 837 l 277 837 z "},"Ḟ":{"ha":731,"x_min":114,"x_max":708,"o":"m 412 1062 q 340 1088 366 1062 q 313 1157 313 1114 q 339 1228 313 1203 q 412 1253 365 1253 q 485 1227 458 1253 q 511 1158 511 1202 q 486 1087 511 1112 q 412 1062 460 1062 m 277 837 l 277 551 l 627 551 l 627 404 l 277 404 l 277 0 l 114 0 l 114 982 l 708 982 l 708 837 l 277 837 z "},"Ƒ":{"ha":731,"x_min":-41,"x_max":708,"o":"m 277 837 l 277 551 l 627 551 l 627 404 l 277 404 l 277 225 l 277 -81 q 60 -296 277 -296 q -41 -278 7 -296 l -18 -141 q 52 -151 15 -151 q 99 -132 84 -151 q 114 -72 114 -113 l 114 0 l 114 982 l 708 982 l 708 837 l 277 837 z "},"Ꝼ":{"ha":662,"x_min":114,"x_max":639,"o":"m 465 838 q 365 802 408 838 q 277 681 321 766 l 277 281 l 552 281 l 552 136 l 277 136 l 277 -281 l 114 -281 l 114 982 l 270 982 l 270 808 q 378 952 320 905 q 509 1000 437 1000 q 639 967 574 1000 l 581 818 q 465 838 517 838 z "},"G":{"ha":906,"x_min":72,"x_max":819,"o":"m 819 549 l 819 57 q 688 2 765 22 q 526 -18 612 -18 q 191 116 309 -18 q 72 491 72 250 q 191 866 72 732 q 526 1000 309 1000 q 682 981 609 1000 q 807 926 755 962 l 758 796 q 524 853 636 853 q 240 491 240 853 q 526 127 240 127 q 656 145 593 127 l 656 404 l 490 404 l 490 549 l 819 549 z "},"Ǵ":{"ha":906,"x_min":72,"x_max":819,"o":"m 517 1059 l 381 1059 l 381 1076 l 581 1256 l 764 1256 l 764 1240 l 517 1059 m 819 549 l 819 57 q 688 2 765 22 q 526 -18 612 -18 q 191 116 309 -18 q 72 491 72 250 q 191 866 72 732 q 526 1000 309 1000 q 682 981 609 1000 q 807 926 755 962 l 758 796 q 524 853 636 853 q 240 491 240 853 q 526 127 240 127 q 656 145 593 127 l 656 404 l 490 404 l 490 549 l 819 549 z "},"Ɣ":{"ha":859,"x_min":33,"x_max":826,"o":"m 574 72 q 601 -9 593 23 q 609 -72 609 -42 q 562 -196 609 -152 q 430 -240 515 -240 q 300 -196 346 -240 q 254 -73 254 -152 q 262 -9 254 -42 q 289 72 270 24 l 358 244 l 33 982 l 205 982 l 431 425 l 655 982 l 826 982 l 502 248 l 574 72 m 430 -122 q 472 -61 472 -122 q 445 47 472 -12 l 429 84 l 414 47 q 387 -61 387 -12 q 430 -122 387 -122 z "},"Ğ":{"ha":906,"x_min":72,"x_max":819,"o":"m 488 1059 q 336 1117 391 1059 q 277 1280 281 1175 l 373 1280 q 490 1179 388 1179 q 608 1280 594 1179 l 700 1280 q 641 1117 696 1175 q 488 1059 586 1059 m 819 549 l 819 57 q 688 2 765 22 q 526 -18 612 -18 q 191 116 309 -18 q 72 491 72 250 q 191 866 72 732 q 526 1000 309 1000 q 682 981 609 1000 q 807 926 755 962 l 758 796 q 524 853 636 853 q 240 491 240 853 q 526 127 240 127 q 656 145 593 127 l 656 404 l 490 404 l 490 549 l 819 549 z "},"Ǧ":{"ha":906,"x_min":72,"x_max":819,"o":"m 410 1059 l 251 1240 l 251 1256 l 373 1256 l 491 1146 l 609 1256 l 726 1256 l 726 1240 l 567 1059 l 410 1059 m 819 549 l 819 57 q 688 2 765 22 q 526 -18 612 -18 q 191 116 309 -18 q 72 491 72 250 q 191 866 72 732 q 526 1000 309 1000 q 682 981 609 1000 q 807 926 755 962 l 758 796 q 524 853 636 853 q 240 491 240 853 q 526 127 240 127 q 656 145 593 127 l 656 404 l 490 404 l 490 549 l 819 549 z "},"Ĝ":{"ha":906,"x_min":72,"x_max":819,"o":"m 369 1059 l 251 1059 l 251 1076 l 410 1256 l 567 1256 l 726 1076 l 726 1059 l 605 1059 l 486 1169 l 369 1059 m 819 549 l 819 57 q 688 2 765 22 q 526 -18 612 -18 q 191 116 309 -18 q 72 491 72 250 q 191 866 72 732 q 526 1000 309 1000 q 682 981 609 1000 q 807 926 755 962 l 758 796 q 524 853 636 853 q 240 491 240 853 q 526 127 240 127 q 656 145 593 127 l 656 404 l 490 404 l 490 549 l 819 549 z "},"Ģ":{"ha":906,"x_min":72,"x_max":819,"o":"m 819 549 l 819 57 q 688 2 765 22 q 526 -18 612 -18 q 191 116 309 -18 q 72 491 72 250 q 191 866 72 732 q 526 1000 309 1000 q 682 981 609 1000 q 807 926 755 962 l 758 796 q 524 853 636 853 q 240 491 240 853 q 526 127 240 127 q 656 145 593 127 l 656 404 l 490 404 l 490 549 l 819 549 m 355 -323 q 403 -248 389 -285 q 416 -157 416 -212 q 412 -96 416 -121 l 560 -96 q 566 -156 566 -129 q 530 -274 566 -220 q 414 -387 494 -328 l 355 -323 z "},"Ġ":{"ha":906,"x_min":72,"x_max":819,"o":"m 488 1062 q 416 1088 442 1062 q 389 1157 389 1114 q 415 1228 389 1203 q 488 1253 441 1253 q 561 1227 534 1253 q 587 1158 587 1202 q 562 1087 587 1112 q 488 1062 536 1062 m 819 549 l 819 57 q 688 2 765 22 q 526 -18 612 -18 q 191 116 309 -18 q 72 491 72 250 q 191 866 72 732 q 526 1000 309 1000 q 682 981 609 1000 q 807 926 755 962 l 758 796 q 524 853 636 853 q 240 491 240 853 q 526 127 240 127 q 656 145 593 127 l 656 404 l 490 404 l 490 549 l 819 549 z "},"Ɠ":{"ha":1027,"x_min":72,"x_max":966,"o":"m 906 1166 q 966 1161 939 1166 l 966 1028 q 905 1032 925 1032 q 807 932 807 1032 l 807 907 l 807 796 l 758 796 q 524 853 636 853 q 240 491 240 853 q 526 127 240 127 q 656 145 593 127 l 656 404 l 490 404 l 490 549 l 819 549 l 819 57 q 688 2 765 22 q 526 -18 612 -18 q 191 116 309 -18 q 72 491 72 250 q 191 866 72 732 q 526 1000 309 1000 q 674 982 609 1000 q 747 1118 688 1070 q 906 1166 807 1166 z "},"Ᵹ":{"ha":718,"x_min":45,"x_max":674,"o":"m 471 635 q 493 554 471 590 q 562 467 515 518 q 645 357 616 406 q 674 239 674 308 q 635 104 674 163 q 524 14 595 46 q 358 -18 452 -18 q 128 50 212 -18 q 45 235 45 118 q 110 413 45 332 q 317 583 175 494 q 315 618 315 605 q 354 745 315 688 q 467 838 393 802 l 75 838 l 75 982 l 650 982 l 650 840 q 471 635 471 757 m 359 127 q 471 157 431 127 q 511 239 511 186 q 490 315 511 279 q 423 403 468 350 q 369 469 385 446 q 206 245 206 358 q 245 158 206 189 q 359 127 285 127 z "},"Ɂ":{"ha":761,"x_min":57,"x_max":690,"o":"m 690 705 q 623 481 690 579 q 429 328 555 384 l 429 0 l 266 0 l 266 422 q 515 696 515 496 q 370 846 515 846 q 260 825 315 846 q 140 757 205 803 l 57 875 q 206 967 121 935 q 385 1000 292 1000 q 610 922 530 1000 q 690 705 690 845 z "},"Ḡ":{"ha":906,"x_min":72,"x_max":819,"o":"m 703 1095 l 274 1095 l 274 1207 l 703 1207 l 703 1095 m 819 549 l 819 57 q 688 2 765 22 q 526 -18 612 -18 q 191 116 309 -18 q 72 491 72 250 q 191 866 72 732 q 526 1000 309 1000 q 682 981 609 1000 q 807 926 755 962 l 758 796 q 524 853 636 853 q 240 491 240 853 q 526 127 240 127 q 656 145 593 127 l 656 404 l 490 404 l 490 549 l 819 549 z "},"Ꞡ":{"ha":947,"x_min":-24,"x_max":929,"o":"m 929 640 l 270 448 q 350 208 278 289 q 556 127 422 127 q 686 145 620 127 l 686 309 l 519 309 l 519 442 l 849 442 l 849 57 q 718 2 795 22 q 556 -18 642 -18 q 244 91 361 -18 q 106 399 127 199 l -8 366 l -24 366 l -24 463 l 100 499 q 222 868 102 736 q 556 1000 342 1000 q 711 981 639 1000 q 836 926 784 962 l 788 796 q 553 853 666 853 q 271 549 292 853 l 913 736 l 929 736 l 929 640 z "},"Ɡ":{"ha":924,"x_min":72,"x_max":810,"o":"m 810 982 l 810 30 l 810 20 q 714 -215 810 -132 q 441 -298 618 -298 q 282 -282 361 -298 q 148 -236 203 -266 l 193 -107 q 426 -157 301 -157 q 592 -113 537 -157 q 647 20 647 -69 l 647 68 l 647 148 q 399 23 562 23 q 158 151 244 23 q 72 509 72 279 q 159 870 72 741 q 404 1000 245 1000 q 542 970 477 1000 q 647 891 606 941 l 647 982 l 810 982 m 448 174 q 554 197 506 174 q 647 270 602 220 l 647 760 q 554 829 610 803 q 442 854 498 854 q 240 517 240 854 q 448 174 240 174 z "},"Ǥ":{"ha":906,"x_min":72,"x_max":914,"o":"m 914 213 l 819 213 l 819 57 q 688 2 765 22 q 526 -18 612 -18 q 191 116 309 -18 q 72 491 72 250 q 191 866 72 732 q 526 1000 309 1000 q 682 981 609 1000 q 807 926 755 962 l 758 796 q 524 853 636 853 q 240 491 240 853 q 526 127 240 127 q 656 145 593 127 l 656 213 l 490 213 l 490 332 l 656 332 l 656 404 l 490 404 l 490 549 l 819 549 l 819 332 l 914 332 l 914 213 z "},"Ꝿ":{"ha":718,"x_min":45,"x_max":673,"o":"m 403 363 q 363 237 403 294 q 250 144 323 179 l 643 144 l 643 0 l 68 0 l 68 142 q 247 347 247 225 q 224 428 247 392 q 156 515 202 464 q 73 626 102 576 q 45 743 45 675 q 84 878 45 819 q 195 968 123 936 q 359 1000 266 1000 q 589 932 506 1000 q 673 747 673 864 q 608 568 673 650 q 400 399 544 487 q 403 363 403 377 m 206 743 q 228 667 206 703 q 294 579 250 632 q 349 513 332 536 q 511 736 511 625 q 472 824 511 793 q 358 854 433 854 q 246 825 286 854 q 206 743 206 796 z "},"H":{"ha":954,"x_min":114,"x_max":840,"o":"m 840 982 l 840 0 l 677 0 l 677 426 l 277 426 l 277 0 l 114 0 l 114 982 l 277 982 l 277 571 l 677 571 l 677 982 l 840 982 z "},"Ⱶ":{"ha":774,"x_min":114,"x_max":739,"o":"m 739 426 l 277 426 l 277 0 l 114 0 l 114 982 l 277 982 l 277 571 l 739 571 l 739 426 z "},"Ħ":{"ha":954,"x_min":26,"x_max":928,"o":"m 928 709 l 840 709 l 840 0 l 677 0 l 677 426 l 277 426 l 277 0 l 114 0 l 114 709 l 26 709 l 26 833 l 114 833 l 114 982 l 277 982 l 277 833 l 677 833 l 677 982 l 840 982 l 840 833 l 928 833 l 928 709 m 677 709 l 277 709 l 277 571 l 677 571 l 677 709 z "},"Ḫ":{"ha":954,"x_min":114,"x_max":840,"o":"m 840 982 l 840 0 l 677 0 l 677 426 l 277 426 l 277 0 l 114 0 l 114 982 l 277 982 l 277 571 l 677 571 l 677 982 l 840 982 m 476 -307 q 323 -249 378 -307 q 264 -85 269 -191 l 361 -85 q 477 -187 374 -187 q 595 -85 581 -187 l 688 -85 q 629 -249 684 -191 q 476 -307 574 -307 z "},"Ȟ":{"ha":954,"x_min":114,"x_max":840,"o":"m 397 1059 l 239 1240 l 239 1256 l 361 1256 l 479 1146 l 597 1256 l 713 1256 l 713 1240 l 555 1059 l 397 1059 m 840 982 l 840 0 l 677 0 l 677 426 l 277 426 l 277 0 l 114 0 l 114 982 l 277 982 l 277 571 l 677 571 l 677 982 l 840 982 z "},"Ḩ":{"ha":954,"x_min":38,"x_max":840,"o":"m 840 982 l 840 0 l 677 0 l 677 426 l 277 426 l 277 0 l 114 0 l 114 982 l 277 982 l 277 571 l 677 571 l 677 982 l 840 982 m 224 -71 q 334 -100 294 -71 q 373 -184 373 -130 q 326 -285 373 -250 q 194 -320 279 -320 q 38 -286 106 -320 l 64 -209 q 179 -233 132 -233 q 231 -222 213 -233 q 248 -189 248 -210 q 187 -145 248 -145 q 133 -155 157 -145 l 95 -113 l 153 27 l 260 19 l 195 -73 q 224 -71 214 -71 z "},"Ĥ":{"ha":954,"x_min":114,"x_max":840,"o":"m 357 1059 l 239 1059 l 239 1076 l 397 1256 l 555 1256 l 713 1076 l 713 1059 l 593 1059 l 473 1169 l 357 1059 m 840 982 l 840 0 l 677 0 l 677 426 l 277 426 l 277 0 l 114 0 l 114 982 l 277 982 l 277 571 l 677 571 l 677 982 l 840 982 z "},"Ⱨ":{"ha":971,"x_min":114,"x_max":952,"o":"m 952 144 l 952 -208 l 830 -208 l 803 0 l 677 0 l 677 426 l 277 426 l 277 0 l 114 0 l 114 982 l 277 982 l 277 571 l 677 571 l 677 982 l 840 982 l 840 144 l 952 144 z "},"Ḧ":{"ha":954,"x_min":114,"x_max":840,"o":"m 339 1058 q 273 1082 297 1058 q 250 1146 250 1105 q 273 1213 250 1190 q 339 1236 297 1236 q 405 1212 381 1236 q 429 1147 429 1188 q 405 1082 429 1105 q 339 1058 381 1058 m 614 1058 q 549 1082 572 1058 q 525 1146 525 1105 q 549 1213 525 1190 q 614 1236 572 1236 q 680 1212 656 1236 q 704 1147 704 1188 q 680 1082 704 1105 q 614 1058 656 1058 m 840 982 l 840 0 l 677 0 l 677 426 l 277 426 l 277 0 l 114 0 l 114 982 l 277 982 l 277 571 l 677 571 l 677 982 l 840 982 z "},"Ḣ":{"ha":954,"x_min":114,"x_max":840,"o":"m 476 1062 q 404 1088 430 1062 q 377 1157 377 1114 q 403 1228 377 1203 q 476 1253 429 1253 q 549 1227 522 1253 q 575 1158 575 1202 q 549 1087 575 1112 q 476 1062 524 1062 m 840 982 l 840 0 l 677 0 l 677 426 l 277 426 l 277 0 l 114 0 l 114 982 l 277 982 l 277 571 l 677 571 l 677 982 l 840 982 z "},"Ḥ":{"ha":954,"x_min":114,"x_max":840,"o":"m 840 982 l 840 0 l 677 0 l 677 426 l 277 426 l 277 0 l 114 0 l 114 982 l 277 982 l 277 571 l 677 571 l 677 982 l 840 982 m 476 -300 q 404 -274 430 -300 q 377 -205 377 -248 q 403 -134 377 -159 q 476 -109 429 -109 q 549 -134 522 -109 q 575 -203 575 -160 q 549 -275 575 -250 q 476 -300 524 -300 z "},"Ꜧ":{"ha":954,"x_min":114,"x_max":840,"o":"m 840 982 l 840 0 l 840 -43 q 771 -231 840 -164 q 579 -298 703 -298 q 372 -232 452 -298 l 430 -110 q 572 -155 507 -155 q 652 -125 627 -155 q 677 -34 677 -95 l 677 248 l 677 426 l 277 426 l 277 0 l 114 0 l 114 982 l 277 982 l 277 571 l 677 571 l 677 982 l 840 982 z "},"Ɦ":{"ha":1051,"x_min":-22,"x_max":939,"o":"m 939 982 l 939 0 l 776 0 l 776 426 l 374 426 l 374 0 l 212 0 l 212 836 q 146 814 168 836 q 125 749 125 793 q 129 688 125 728 l -18 688 q -22 747 -22 716 q 39 920 -22 859 q 212 982 100 982 l 374 982 l 374 571 l 776 571 l 776 982 l 939 982 z "},"Ɥ":{"ha":913,"x_min":100,"x_max":799,"o":"m 799 982 l 799 0 l 636 0 l 636 412 l 183 412 l 100 412 l 100 982 l 263 982 l 263 557 l 636 557 l 636 982 l 799 982 z "},"Ƕ":{"ha":1374,"x_min":114,"x_max":1268,"o":"m 1219 736 q 1268 372 1268 553 q 1189 83 1268 184 q 963 -18 1109 -18 q 753 56 829 -18 q 677 260 677 129 l 677 426 l 277 426 l 277 0 l 114 0 l 114 982 l 277 982 l 277 571 l 677 571 l 677 982 l 840 982 l 840 281 q 964 125 840 125 q 1073 184 1038 125 q 1108 369 1108 244 q 1097 549 1108 472 q 1057 736 1086 627 l 1219 736 z "},"I":{"ha":395,"x_min":117,"x_max":279,"o":"m 117 982 l 279 982 l 279 0 l 117 0 l 117 982 z "},"Ĳ":{"ha":918,"x_min":114,"x_max":829,"o":"m 114 982 l 277 982 l 277 0 l 114 0 l 114 982 m 563 -18 q 461 -6 511 -18 q 370 27 411 5 l 422 163 q 556 129 505 129 q 666 260 666 129 l 666 982 l 829 982 l 829 251 q 759 53 829 123 q 563 -18 689 -18 z "},"Í":{"ha":395,"x_min":91,"x_max":473,"o":"m 91 1076 l 290 1256 l 473 1256 l 473 1240 l 227 1059 l 91 1059 l 91 1076 m 117 982 l 279 982 l 279 0 l 117 0 l 117 982 z "},"Ĭ":{"ha":395,"x_min":-14,"x_max":410,"o":"m 198 1059 q 45 1117 100 1059 q -14 1280 -9 1175 l 83 1280 q 199 1179 98 1179 q 317 1280 304 1179 l 410 1280 q 351 1117 406 1175 q 198 1059 296 1059 m 117 982 l 279 982 l 279 0 l 117 0 l 117 982 z "},"Ǐ":{"ha":395,"x_min":-39,"x_max":435,"o":"m 435 1256 l 435 1240 l 277 1059 l 119 1059 l -39 1240 l -39 1256 l 83 1256 l 201 1146 l 319 1256 l 435 1256 m 117 982 l 279 982 l 279 0 l 117 0 l 117 982 z "},"Î":{"ha":395,"x_min":-39,"x_max":435,"o":"m 435 1076 l 435 1059 l 315 1059 l 195 1169 l 79 1059 l -39 1059 l -39 1076 l 119 1256 l 277 1256 l 435 1076 m 117 982 l 279 982 l 279 0 l 117 0 l 117 982 z "},"Ȉ":{"ha":395,"x_min":-106,"x_max":393,"o":"m 57 1059 l -106 1240 l -106 1256 l 50 1256 l 168 1076 l 168 1059 l 57 1059 m 285 1059 l 122 1240 l 122 1256 l 275 1256 l 393 1076 l 393 1059 l 285 1059 m 117 982 l 279 982 l 279 0 l 117 0 l 117 982 z "},"Ï":{"ha":395,"x_min":-28,"x_max":426,"o":"m 61 1058 q -5 1082 19 1058 q -28 1146 -28 1105 q -5 1213 -28 1190 q 61 1236 19 1236 q 127 1212 103 1236 q 151 1147 151 1188 q 127 1082 151 1105 q 61 1058 103 1058 m 336 1058 q 271 1082 294 1058 q 247 1146 247 1105 q 271 1213 247 1190 q 336 1236 294 1236 q 402 1212 378 1236 q 426 1147 426 1188 q 402 1082 426 1105 q 336 1058 378 1058 m 117 982 l 279 982 l 279 0 l 117 0 l 117 982 z "},"Ḯ":{"ha":395,"x_min":-8,"x_max":404,"o":"m 140 1248 l 243 1420 l 385 1420 l 385 1407 l 247 1234 l 140 1234 l 140 1248 m 77 1065 q 14 1088 37 1065 q -8 1150 -8 1111 q 14 1213 -8 1191 q 77 1236 37 1236 q 140 1213 118 1236 q 163 1152 163 1191 q 140 1087 163 1109 q 77 1065 118 1065 m 319 1065 q 256 1088 278 1065 q 233 1150 233 1111 q 256 1213 233 1191 q 319 1236 278 1236 q 382 1213 359 1236 q 404 1152 404 1191 q 382 1087 404 1109 q 319 1065 359 1065 m 117 982 l 279 982 l 279 0 l 117 0 l 117 982 z "},"İ":{"ha":395,"x_min":99,"x_max":297,"o":"m 198 1062 q 125 1088 152 1062 q 99 1157 99 1114 q 125 1228 99 1203 q 198 1253 151 1253 q 271 1227 244 1253 q 297 1158 297 1202 q 271 1087 297 1112 q 198 1062 245 1062 m 117 982 l 279 982 l 279 0 l 117 0 l 117 982 z "},"Ị":{"ha":395,"x_min":99,"x_max":297,"o":"m 117 982 l 279 982 l 279 0 l 117 0 l 117 982 m 198 -300 q 125 -274 152 -300 q 99 -205 99 -248 q 125 -134 99 -159 q 198 -109 151 -109 q 271 -134 244 -109 q 297 -203 297 -160 q 271 -275 297 -250 q 198 -300 245 -300 z "},"Ì":{"ha":395,"x_min":-66,"x_max":304,"o":"m -66 1240 l -66 1256 l 117 1256 l 304 1076 l 304 1059 l 168 1059 l -66 1240 m 117 982 l 279 982 l 279 0 l 117 0 l 117 982 z "},"Ỉ":{"ha":395,"x_min":53,"x_max":354,"o":"m 141 1059 q 138 1089 138 1076 q 151 1128 138 1115 q 187 1152 164 1141 q 210 1164 202 1158 q 217 1179 217 1169 q 183 1198 217 1198 q 91 1169 141 1198 l 53 1249 q 128 1282 85 1271 q 214 1294 171 1294 q 317 1267 281 1294 q 354 1194 354 1241 q 336 1141 354 1158 q 289 1114 319 1124 q 262 1099 270 1105 q 254 1082 254 1093 l 256 1059 l 141 1059 m 117 982 l 279 982 l 279 0 l 117 0 l 117 982 z "},"Ȋ":{"ha":395,"x_min":-14,"x_max":410,"o":"m 198 1294 q 351 1236 296 1294 q 410 1073 406 1179 l 313 1073 q 197 1175 300 1175 q 79 1073 94 1175 l -14 1073 q 45 1236 -9 1179 q 198 1294 100 1294 m 117 982 l 279 982 l 279 0 l 117 0 l 117 982 z "},"Ī":{"ha":395,"x_min":-16,"x_max":412,"o":"m -16 1207 l 412 1207 l 412 1095 l -16 1095 l -16 1207 m 117 982 l 279 982 l 279 0 l 117 0 l 117 982 z "},"Į":{"ha":395,"x_min":53,"x_max":366,"o":"m 366 -266 q 296 -296 335 -285 q 214 -307 256 -307 q 96 -271 138 -307 q 53 -172 53 -236 q 79 -76 53 -121 q 155 0 106 -31 l 117 0 l 117 982 l 279 982 l 279 0 q 186 -144 186 -71 q 250 -199 186 -199 q 330 -179 288 -199 l 366 -266 z "},"Ɩ":{"ha":419,"x_min":114,"x_max":391,"o":"m 289 -11 q 114 172 114 -11 l 114 982 l 277 982 l 277 202 q 290 153 277 168 q 331 137 302 137 q 380 141 351 137 l 391 1 q 289 -11 342 -11 z "},"Ꝭ":{"ha":709,"x_min":58,"x_max":692,"o":"m 469 1000 q 633 945 575 1000 q 692 792 692 891 q 627 631 692 688 q 445 574 563 574 l 407 574 l 407 260 l 407 245 q 336 54 407 122 q 137 -15 266 -15 q 58 -8 90 -15 l 58 130 q 137 125 113 125 q 247 245 247 125 l 247 324 l 247 574 l 64 574 l 64 707 l 247 707 l 247 788 q 306 944 247 888 q 469 1000 365 1000 m 445 704 q 534 788 534 704 q 471 860 534 860 q 407 788 407 860 l 407 704 l 445 704 z "},"Ɨ":{"ha":442,"x_min":22,"x_max":420,"o":"m 420 442 l 302 442 l 302 0 l 140 0 l 140 442 l 22 442 l 22 568 l 140 568 l 140 982 l 302 982 l 302 568 l 420 568 l 420 442 z "},"Ĩ":{"ha":395,"x_min":-26,"x_max":422,"o":"m 277 1066 q 218 1079 240 1066 q 174 1116 197 1092 q 146 1141 159 1133 q 119 1149 134 1149 q 65 1069 71 1149 l -26 1069 q 13 1212 -26 1161 q 119 1263 52 1263 q 178 1250 156 1263 q 222 1214 199 1237 q 250 1190 237 1198 q 277 1181 262 1181 q 331 1260 326 1181 l 422 1260 q 384 1117 422 1168 q 277 1066 346 1066 m 117 982 l 279 982 l 279 0 l 117 0 l 117 982 z "},"Ḭ":{"ha":395,"x_min":-45,"x_max":441,"o":"m 117 982 l 279 982 l 279 0 l 117 0 l 117 982 m 294 -312 q 232 -300 258 -312 q 170 -263 206 -288 q 134 -239 149 -247 q 102 -231 118 -231 q 47 -309 56 -231 l -45 -309 q -3 -166 -42 -217 q 102 -115 35 -115 q 165 -128 138 -115 q 227 -164 193 -141 q 264 -188 248 -180 q 294 -195 279 -195 q 349 -118 340 -195 l 441 -118 q 399 -261 438 -210 q 294 -312 361 -312 z "},"J":{"ha":632,"x_min":4,"x_max":526,"o":"m 237 -18 q 106 1 167 -18 q 4 54 46 20 l 62 179 q 231 129 155 129 q 363 260 363 129 l 363 982 l 526 982 l 526 251 q 450 53 526 123 q 237 -18 374 -18 z "},"Ĵ":{"ha":632,"x_min":4,"x_max":682,"o":"m 682 1076 l 682 1059 l 562 1059 l 442 1169 l 326 1059 l 208 1059 l 208 1076 l 366 1256 l 524 1256 l 682 1076 m 363 982 l 526 982 l 526 251 q 450 53 526 123 q 237 -18 374 -18 q 106 1 167 -18 q 4 54 46 20 l 62 179 q 231 129 155 129 q 363 260 363 129 l 363 982 z "},"Ɉ":{"ha":656,"x_min":4,"x_max":644,"o":"m 644 442 l 526 442 l 526 251 q 450 53 526 123 q 237 -18 374 -18 q 106 1 167 -18 q 4 54 46 20 l 62 179 q 231 129 155 129 q 363 260 363 129 l 363 442 l 205 442 l 205 568 l 363 568 l 363 982 l 526 982 l 526 568 l 644 568 l 644 442 z "},"K":{"ha":854,"x_min":114,"x_max":867,"o":"m 388 422 l 277 285 l 277 0 l 114 0 l 114 982 l 277 982 l 277 492 l 651 982 l 845 982 l 491 548 l 867 0 l 673 0 l 388 422 z "},"Ḱ":{"ha":854,"x_min":114,"x_max":867,"o":"m 473 1059 l 338 1059 l 338 1076 l 537 1256 l 720 1256 l 720 1240 l 473 1059 m 388 422 l 277 285 l 277 0 l 114 0 l 114 982 l 277 982 l 277 492 l 651 982 l 845 982 l 491 548 l 867 0 l 673 0 l 388 422 z "},"Ǩ":{"ha":854,"x_min":114,"x_max":867,"o":"m 366 1059 l 208 1240 l 208 1256 l 330 1256 l 448 1146 l 566 1256 l 682 1256 l 682 1240 l 524 1059 l 366 1059 m 388 422 l 277 285 l 277 0 l 114 0 l 114 982 l 277 982 l 277 492 l 651 982 l 845 982 l 491 548 l 867 0 l 673 0 l 388 422 z "},"Ķ":{"ha":854,"x_min":114,"x_max":867,"o":"m 388 422 l 277 285 l 277 0 l 114 0 l 114 982 l 277 982 l 277 492 l 651 982 l 845 982 l 491 548 l 867 0 l 673 0 l 388 422 m 332 -323 q 380 -248 366 -285 q 393 -157 393 -212 q 389 -96 393 -121 l 537 -96 q 543 -156 543 -129 q 507 -274 543 -220 q 391 -387 471 -328 l 332 -323 z "},"Ⱪ":{"ha":864,"x_min":114,"x_max":875,"o":"m 875 144 l 875 -208 l 753 -208 l 726 0 l 673 0 l 388 422 l 277 285 l 277 0 l 114 0 l 114 982 l 277 982 l 277 492 l 651 982 l 845 982 l 491 548 l 768 144 l 875 144 z "},"Ꝃ":{"ha":854,"x_min":114,"x_max":867,"o":"m 673 0 l 544 191 l 423 100 l 407 100 l 407 209 l 490 271 l 388 422 l 277 285 l 277 0 l 114 0 l 114 982 l 277 982 l 277 492 l 651 982 l 845 982 l 491 548 l 614 368 l 776 492 l 792 492 l 792 384 l 669 289 l 867 0 l 673 0 z "},"Ḳ":{"ha":854,"x_min":114,"x_max":867,"o":"m 388 422 l 277 285 l 277 0 l 114 0 l 114 982 l 277 982 l 277 492 l 651 982 l 845 982 l 491 548 l 867 0 l 673 0 l 388 422 m 465 -300 q 393 -274 419 -300 q 366 -205 366 -248 q 392 -134 366 -159 q 465 -109 418 -109 q 538 -134 511 -109 q 564 -203 564 -160 q 538 -275 564 -250 q 465 -300 513 -300 z "},"Ƙ":{"ha":857,"x_min":114,"x_max":922,"o":"m 488 553 l 867 0 l 673 0 l 387 425 l 277 285 l 277 0 l 114 0 l 114 982 l 277 982 l 277 495 l 549 867 q 652 972 604 941 q 765 1004 701 1004 q 853 985 815 1004 q 922 928 891 967 l 836 821 q 764 856 796 856 q 722 841 742 856 q 673 787 703 826 l 488 553 z "},"Ḵ":{"ha":854,"x_min":114,"x_max":867,"o":"m 388 422 l 277 285 l 277 0 l 114 0 l 114 982 l 277 982 l 277 492 l 651 982 l 845 982 l 491 548 l 867 0 l 673 0 l 388 422 m 251 -134 l 680 -134 l 680 -247 l 251 -247 l 251 -134 z "},"Ꞣ":{"ha":878,"x_min":19,"x_max":888,"o":"m 538 233 l 298 172 l 298 0 l 136 0 l 136 130 l 35 104 l 19 104 l 19 201 l 136 231 l 136 982 l 298 982 l 298 492 l 674 982 l 868 982 l 514 548 l 643 361 l 838 411 l 854 411 l 854 315 l 701 275 l 888 0 l 696 0 l 538 233 m 480 319 l 411 422 l 298 283 l 298 273 l 480 319 z "},"Ꝁ":{"ha":854,"x_min":26,"x_max":867,"o":"m 388 422 l 277 285 l 277 0 l 114 0 l 114 749 l 26 749 l 26 872 l 114 872 l 114 982 l 277 982 l 277 872 l 395 872 l 395 749 l 277 749 l 277 492 l 651 982 l 845 982 l 491 548 l 867 0 l 673 0 l 388 422 z "},"Ꝅ":{"ha":854,"x_min":26,"x_max":867,"o":"m 673 0 l 544 191 l 423 100 l 407 100 l 407 209 l 490 271 l 388 422 l 277 285 l 277 0 l 114 0 l 114 749 l 26 749 l 26 872 l 114 872 l 114 982 l 277 982 l 277 872 l 395 872 l 395 749 l 277 749 l 277 492 l 651 982 l 845 982 l 491 548 l 614 368 l 776 492 l 792 492 l 792 384 l 669 289 l 867 0 l 673 0 z "},"Ʞ":{"ha":856,"x_min":-11,"x_max":742,"o":"m 742 982 l 742 0 l 579 0 l 579 490 l 203 0 l 9 0 l 363 434 l -11 982 l 182 982 l 467 560 l 579 699 l 579 982 l 742 982 z "},"L":{"ha":719,"x_min":114,"x_max":684,"o":"m 684 146 l 684 0 l 114 0 l 114 982 l 277 982 l 277 146 l 684 146 z "},"Ǉ":{"ha":1333,"x_min":114,"x_max":1226,"o":"m 277 146 l 684 146 l 684 0 l 114 0 l 114 982 l 277 982 l 277 146 m 1226 982 l 1226 251 q 1156 53 1226 123 q 960 -18 1086 -18 q 848 -4 902 -18 q 754 34 795 9 l 811 165 q 954 129 891 129 q 1063 260 1063 129 l 1063 982 l 1226 982 z "},"Ỻ":{"ha":1020,"x_min":114,"x_max":986,"o":"m 986 0 l 415 0 l 114 0 l 114 982 l 277 982 l 277 146 l 415 146 l 415 982 l 578 982 l 578 146 l 986 146 l 986 0 z "},"Ĺ":{"ha":719,"x_min":114,"x_max":684,"o":"m 260 1059 l 123 1059 l 123 1076 l 324 1256 l 507 1256 l 507 1240 l 260 1059 m 684 146 l 684 0 l 114 0 l 114 982 l 277 982 l 277 146 l 684 146 z "},"Ƚ":{"ha":719,"x_min":26,"x_max":685,"o":"m 685 146 l 685 0 l 114 0 l 114 434 l 26 434 l 26 560 l 114 560 l 114 982 l 277 982 l 277 560 l 503 560 l 503 434 l 277 434 l 277 146 l 685 146 z "},"Ɬ":{"ha":841,"x_min":18,"x_max":806,"o":"m 806 146 l 806 0 l 235 0 l 235 335 q 202 332 222 332 q 66 379 114 332 q 18 511 18 426 q 65 642 18 595 q 198 689 113 689 q 235 685 217 689 l 235 982 l 397 982 l 397 492 l 545 547 l 581 444 l 422 387 l 397 378 l 397 146 l 806 146 m 202 448 q 235 450 210 448 l 235 568 q 201 572 218 572 q 140 510 140 572 q 202 448 140 448 z "},"Ꝇ":{"ha":833,"x_min":73,"x_max":799,"o":"m 799 146 l 799 0 l 236 0 l 236 434 l 73 434 l 73 982 l 236 982 l 236 574 l 399 574 l 399 146 l 799 146 z "},"Ľ":{"ha":719,"x_min":114,"x_max":684,"o":"m 519 741 l 427 741 l 427 1044 l 563 1044 l 563 1031 l 519 741 m 684 146 l 684 0 l 114 0 l 114 982 l 277 982 l 277 146 l 684 146 z "},"Ḽ":{"ha":719,"x_min":114,"x_max":684,"o":"m 684 146 l 684 0 l 114 0 l 114 982 l 277 982 l 277 146 l 684 146 m 646 -294 l 646 -311 l 524 -311 l 406 -201 l 288 -311 l 171 -311 l 171 -294 l 330 -114 l 487 -114 l 646 -294 z "},"Ļ":{"ha":719,"x_min":114,"x_max":684,"o":"m 684 146 l 684 0 l 114 0 l 114 982 l 277 982 l 277 146 l 684 146 m 275 -323 q 323 -248 309 -285 q 336 -157 336 -212 q 332 -96 336 -121 l 480 -96 q 486 -156 486 -129 q 450 -274 486 -220 q 334 -387 414 -328 l 275 -323 z "},"Ŀ":{"ha":719,"x_min":114,"x_max":684,"o":"m 684 146 l 684 0 l 114 0 l 114 982 l 277 982 l 277 146 l 684 146 m 545 456 q 473 481 499 456 q 446 551 446 507 q 472 622 446 597 q 545 647 498 647 q 618 621 591 647 q 644 552 644 595 q 618 481 644 506 q 545 456 593 456 z "},"Ḷ":{"ha":719,"x_min":114,"x_max":684,"o":"m 684 146 l 684 0 l 114 0 l 114 982 l 277 982 l 277 146 l 684 146 m 408 -300 q 336 -274 362 -300 q 309 -205 309 -248 q 335 -134 309 -159 q 408 -109 361 -109 q 481 -134 454 -109 q 507 -203 507 -160 q 481 -275 507 -250 q 408 -300 456 -300 z "},"Ḹ":{"ha":719,"x_min":18,"x_max":684,"o":"m 446 1095 l 18 1095 l 18 1207 l 446 1207 l 446 1095 m 684 146 l 684 0 l 114 0 l 114 982 l 277 982 l 277 146 l 684 146 m 408 -109 q 481 -134 454 -109 q 507 -203 507 -160 q 481 -275 507 -250 q 408 -300 456 -300 q 336 -274 362 -300 q 309 -205 309 -248 q 335 -134 309 -159 q 408 -109 361 -109 z "},"Ⱡ":{"ha":719,"x_min":26,"x_max":684,"o":"m 684 146 l 684 0 l 113 0 l 113 332 l 26 332 l 26 457 l 113 457 l 113 562 l 26 562 l 26 686 l 113 686 l 113 982 l 275 982 l 275 686 l 503 686 l 503 562 l 275 562 l 275 457 l 503 457 l 503 332 l 275 332 l 275 146 l 684 146 z "},"Ꝉ":{"ha":719,"x_min":26,"x_max":684,"o":"m 684 146 l 684 0 l 114 0 l 114 708 l 26 708 l 26 836 l 114 836 l 114 982 l 277 982 l 277 836 l 503 836 l 503 708 l 277 708 l 277 146 l 684 146 z "},"ǈ":{"ha":1096,"x_min":114,"x_max":1006,"o":"m 684 146 l 684 0 l 114 0 l 114 982 l 277 982 l 277 146 l 684 146 m 636 -170 q 755 -115 715 -142 q 811 -46 795 -87 q 827 61 827 -5 l 827 736 l 987 736 l 987 58 q 961 -109 987 -45 q 871 -218 935 -174 q 689 -301 807 -262 l 636 -170 m 907 842 q 835 868 861 842 q 808 937 808 894 q 834 1008 808 983 q 907 1034 860 1034 q 980 1008 954 1034 q 1006 939 1006 982 q 981 867 1006 892 q 907 842 955 842 z "},"Ḻ":{"ha":719,"x_min":114,"x_max":684,"o":"m 684 146 l 684 0 l 114 0 l 114 982 l 277 982 l 277 146 l 684 146 m 194 -134 l 623 -134 l 623 -247 l 194 -247 l 194 -134 z "},"Ɫ":{"ha":719,"x_min":-42,"x_max":684,"o":"m 684 146 l 684 0 l 114 0 l 114 521 q 104 522 110 522 q 50 444 58 522 l -42 444 q -1 587 -39 536 q 104 637 38 637 l 114 637 l 114 982 l 277 982 l 277 562 q 297 557 288 557 q 351 635 343 557 l 444 635 q 402 492 441 543 q 297 441 363 441 q 277 442 283 441 l 277 146 l 684 146 z "},"Ł":{"ha":724,"x_min":38,"x_max":689,"o":"m 689 146 l 689 0 l 119 0 l 119 328 l 52 286 l 38 286 l 38 418 l 119 463 l 119 982 l 282 982 l 282 555 l 544 709 l 557 709 l 557 578 l 282 422 l 282 146 l 689 146 z "},"Ꞁ":{"ha":719,"x_min":35,"x_max":605,"o":"m 605 982 l 605 0 l 442 0 l 442 836 l 35 836 l 35 982 l 605 982 z "},"M":{"ha":1156,"x_min":114,"x_max":1042,"o":"m 1042 982 l 1042 0 l 883 0 l 883 723 l 662 195 l 492 195 l 269 723 l 269 0 l 114 0 l 114 982 l 309 982 l 579 346 l 844 982 l 1042 982 z "},"Ḿ":{"ha":1156,"x_min":114,"x_max":1042,"o":"m 604 1059 l 468 1059 l 468 1076 l 667 1256 l 850 1256 l 850 1240 l 604 1059 m 1042 982 l 1042 0 l 883 0 l 883 723 l 662 195 l 492 195 l 269 723 l 269 0 l 114 0 l 114 982 l 309 982 l 579 346 l 844 982 l 1042 982 z "},"Ṁ":{"ha":1156,"x_min":114,"x_max":1042,"o":"m 575 1062 q 503 1088 529 1062 q 476 1157 476 1114 q 502 1228 476 1203 q 575 1253 528 1253 q 648 1227 621 1253 q 674 1158 674 1202 q 648 1087 674 1112 q 575 1062 623 1062 m 1042 982 l 1042 0 l 883 0 l 883 723 l 662 195 l 492 195 l 269 723 l 269 0 l 114 0 l 114 982 l 309 982 l 579 346 l 844 982 l 1042 982 z "},"Ṃ":{"ha":1156,"x_min":114,"x_max":1042,"o":"m 1042 982 l 1042 0 l 883 0 l 883 723 l 662 195 l 492 195 l 269 723 l 269 0 l 114 0 l 114 982 l 309 982 l 579 346 l 844 982 l 1042 982 m 575 -300 q 503 -274 529 -300 q 476 -205 476 -248 q 502 -134 476 -159 q 575 -109 528 -109 q 648 -134 621 -109 q 674 -203 674 -160 q 648 -275 674 -250 q 575 -300 623 -300 z "},"Ɱ":{"ha":1156,"x_min":114,"x_max":1042,"o":"m 1042 982 l 1042 0 l 1042 -81 q 827 -296 1042 -296 q 724 -278 772 -296 l 747 -141 q 819 -151 781 -151 q 868 -132 853 -151 q 883 -72 883 -113 l 883 225 l 883 723 l 662 195 l 492 195 l 269 723 l 269 0 l 114 0 l 114 982 l 309 982 l 579 346 l 844 982 l 1042 982 z "},"Ɯ":{"ha":1213,"x_min":114,"x_max":1099,"o":"m 1099 982 l 1099 0 l 952 0 l 952 88 q 736 -18 863 -18 q 619 12 669 -18 q 545 98 570 42 q 326 -18 452 -18 q 170 45 227 -18 q 114 221 114 107 l 114 982 l 277 982 l 277 243 q 384 132 277 132 q 453 146 420 132 q 524 190 486 160 q 522 221 522 199 l 522 982 l 685 982 l 685 243 q 796 132 685 132 q 936 189 865 132 l 936 982 l 1099 982 z "},"N":{"ha":983,"x_min":114,"x_max":869,"o":"m 869 982 l 869 0 l 713 0 l 274 707 l 274 0 l 114 0 l 114 982 l 270 982 l 709 277 l 709 982 l 869 982 z "},"Ǌ":{"ha":1530,"x_min":114,"x_max":1423,"o":"m 709 982 l 869 982 l 869 0 l 713 0 l 274 707 l 274 0 l 114 0 l 114 982 l 270 982 l 709 277 l 709 982 m 1423 982 l 1423 251 q 1353 53 1423 123 q 1157 -18 1283 -18 q 1045 -4 1099 -18 q 951 34 991 9 l 1008 165 q 1150 129 1088 129 q 1260 260 1260 129 l 1260 982 l 1423 982 z "},"Ń":{"ha":983,"x_min":114,"x_max":869,"o":"m 519 1059 l 384 1059 l 384 1076 l 583 1256 l 766 1256 l 766 1240 l 519 1059 m 869 982 l 869 0 l 713 0 l 274 707 l 274 0 l 114 0 l 114 982 l 270 982 l 709 277 l 709 982 l 869 982 z "},"Ň":{"ha":983,"x_min":114,"x_max":869,"o":"m 412 1059 l 254 1240 l 254 1256 l 376 1256 l 494 1146 l 612 1256 l 728 1256 l 728 1240 l 570 1059 l 412 1059 m 869 982 l 869 0 l 713 0 l 274 707 l 274 0 l 114 0 l 114 982 l 270 982 l 709 277 l 709 982 l 869 982 z "},"Ṋ":{"ha":983,"x_min":114,"x_max":869,"o":"m 869 982 l 869 0 l 713 0 l 274 707 l 274 0 l 114 0 l 114 982 l 270 982 l 709 277 l 709 982 l 869 982 m 730 -294 l 730 -311 l 608 -311 l 490 -201 l 372 -311 l 255 -311 l 255 -294 l 414 -114 l 571 -114 l 730 -294 z "},"Ņ":{"ha":983,"x_min":114,"x_max":869,"o":"m 869 982 l 869 0 l 713 0 l 274 707 l 274 0 l 114 0 l 114 982 l 270 982 l 709 277 l 709 982 l 869 982 m 358 -323 q 406 -248 392 -285 q 419 -157 419 -212 q 415 -96 419 -121 l 563 -96 q 568 -156 568 -129 q 532 -274 568 -220 q 416 -387 496 -328 l 358 -323 z "},"Ꞑ":{"ha":1001,"x_min":114,"x_max":982,"o":"m 982 144 l 982 -208 l 860 -208 l 833 0 l 713 0 l 274 707 l 274 0 l 114 0 l 114 982 l 270 982 l 709 277 l 709 982 l 869 982 l 869 144 l 982 144 z "},"Ṅ":{"ha":983,"x_min":114,"x_max":869,"o":"m 491 1062 q 418 1088 445 1062 q 392 1157 392 1114 q 418 1228 392 1203 q 491 1253 444 1253 q 564 1227 537 1253 q 590 1158 590 1202 q 564 1087 590 1112 q 491 1062 538 1062 m 869 982 l 869 0 l 713 0 l 274 707 l 274 0 l 114 0 l 114 982 l 270 982 l 709 277 l 709 982 l 869 982 z "},"Ṇ":{"ha":983,"x_min":114,"x_max":869,"o":"m 869 982 l 869 0 l 713 0 l 274 707 l 274 0 l 114 0 l 114 982 l 270 982 l 709 277 l 709 982 l 869 982 m 491 -300 q 418 -274 445 -300 q 392 -205 392 -248 q 418 -134 392 -159 q 491 -109 444 -109 q 564 -134 537 -109 q 590 -203 590 -160 q 564 -275 590 -250 q 491 -300 538 -300 z "},"Ǹ":{"ha":983,"x_min":114,"x_max":869,"o":"m 461 1059 l 227 1240 l 227 1256 l 410 1256 l 597 1076 l 597 1059 l 461 1059 m 869 982 l 869 0 l 713 0 l 274 707 l 274 0 l 114 0 l 114 982 l 270 982 l 709 277 l 709 982 l 869 982 z "},"Ŋ":{"ha":985,"x_min":114,"x_max":869,"o":"m 869 982 l 869 0 l 869 -43 q 801 -231 869 -164 q 609 -298 732 -298 q 401 -232 481 -298 l 460 -110 q 602 -155 537 -155 q 709 -34 709 -155 l 709 7 l 274 707 l 274 0 l 114 0 l 114 982 l 270 982 l 709 277 l 709 982 l 869 982 z "},"Ɲ":{"ha":983,"x_min":-45,"x_max":869,"o":"m 869 982 l 869 0 l 713 0 l 274 707 l 274 0 l 274 -81 q 58 -296 274 -296 q -45 -278 4 -296 l -20 -141 q 50 -151 12 -151 q 99 -132 84 -151 q 114 -72 114 -113 l 114 225 l 114 982 l 270 982 l 709 277 l 709 982 l 869 982 z "},"ǋ":{"ha":1354,"x_min":114,"x_max":1263,"o":"m 869 982 l 869 0 l 713 0 l 274 707 l 274 0 l 114 0 l 114 982 l 270 982 l 709 277 l 709 982 l 869 982 m 892 -170 q 1011 -115 971 -142 q 1067 -46 1051 -87 q 1084 61 1084 -5 l 1084 736 l 1244 736 l 1244 58 q 1217 -109 1244 -45 q 1127 -218 1191 -174 q 945 -301 1063 -262 l 892 -170 m 1164 842 q 1091 868 1118 842 q 1065 937 1065 894 q 1090 1008 1065 983 q 1164 1034 1116 1034 q 1236 1008 1210 1034 q 1263 939 1263 982 q 1237 867 1263 892 q 1164 842 1211 842 z "},"Ṉ":{"ha":983,"x_min":114,"x_max":869,"o":"m 869 982 l 869 0 l 713 0 l 274 707 l 274 0 l 114 0 l 114 982 l 270 982 l 709 277 l 709 982 l 869 982 m 277 -134 l 705 -134 l 705 -247 l 277 -247 l 277 -134 z "},"Ƞ":{"ha":928,"x_min":114,"x_max":821,"o":"m 540 1000 q 747 918 673 1000 q 821 690 821 836 l 821 -176 l 658 -176 l 658 694 q 615 810 658 770 q 490 849 572 849 q 379 829 430 849 q 277 766 328 810 l 277 0 l 114 0 l 114 982 l 270 982 l 270 879 q 540 1000 374 1000 z "},"Ꞥ":{"ha":1028,"x_min":19,"x_max":1010,"o":"m 1010 575 l 892 547 l 892 0 l 736 0 l 461 442 l 296 401 l 296 0 l 136 0 l 136 363 l 35 339 l 19 339 l 19 433 l 136 461 l 136 982 l 292 982 l 553 563 l 732 605 l 732 982 l 892 982 l 892 644 l 994 669 l 1010 669 l 1010 575 m 408 528 l 296 707 l 296 500 l 408 528 m 732 507 l 608 477 l 732 277 l 732 507 z "},"Ñ":{"ha":983,"x_min":114,"x_max":869,"o":"m 395 1147 q 340 1069 349 1147 l 248 1069 q 290 1212 251 1161 q 395 1263 328 1263 q 458 1250 431 1263 q 519 1214 486 1237 q 557 1190 541 1198 q 587 1183 572 1183 q 642 1260 633 1183 l 734 1260 q 692 1117 731 1168 q 587 1066 654 1066 q 525 1078 551 1066 q 463 1115 499 1090 q 427 1139 442 1131 q 395 1147 411 1147 m 869 982 l 869 0 l 713 0 l 274 707 l 274 0 l 114 0 l 114 982 l 270 982 l 709 277 l 709 982 l 869 982 z "},"O":{"ha":970,"x_min":72,"x_max":898,"o":"m 484 -18 q 178 111 283 -18 q 72 491 72 239 q 178 871 72 743 q 484 1000 283 1000 q 791 871 685 1000 q 898 491 898 743 q 791 111 898 239 q 484 -18 685 -18 m 484 127 q 730 491 730 127 q 484 854 730 854 q 240 491 240 854 q 484 127 240 127 z "},"Ꝏ":{"ha":1575,"x_min":72,"x_max":1503,"o":"m 1103 1000 q 1400 871 1298 1000 q 1503 491 1503 743 q 1400 111 1503 239 q 1103 -18 1298 -18 q 917 27 997 -18 q 787 157 837 72 q 658 27 738 72 q 471 -18 578 -18 q 174 111 277 -18 q 72 491 72 239 q 174 871 72 743 q 471 1000 277 1000 q 658 955 578 1000 q 787 825 738 910 q 917 955 837 910 q 1103 1000 997 1000 m 471 127 q 703 491 703 127 q 471 854 703 854 q 240 491 240 854 q 471 127 240 127 m 1103 127 q 1335 491 1335 127 q 1103 854 1335 854 q 929 763 987 854 q 871 491 871 671 q 929 219 871 311 q 1103 127 987 127 z "},"Ȣ":{"ha":882,"x_min":61,"x_max":821,"o":"m 647 509 q 776 412 731 476 q 821 260 821 347 q 721 56 821 129 q 441 -18 621 -18 q 161 56 260 -18 q 61 260 61 129 q 106 412 61 347 q 235 509 151 476 q 122 597 161 538 q 83 735 83 656 q 144 904 83 834 q 317 1000 206 974 l 370 871 q 279 808 308 845 q 250 720 250 772 q 297 616 250 654 q 439 579 345 579 q 584 616 536 579 q 632 720 632 654 q 511 871 632 822 l 564 1000 q 737 903 675 972 q 799 735 799 834 q 759 598 799 656 q 647 509 719 540 m 441 127 q 600 167 548 127 q 652 279 652 206 q 600 394 652 354 q 441 434 547 434 q 282 394 335 434 q 229 279 229 354 q 281 167 229 206 q 441 127 334 127 z "},"Ó":{"ha":970,"x_min":72,"x_max":898,"o":"m 377 1076 l 576 1256 l 760 1256 l 760 1240 l 513 1059 l 377 1059 l 377 1076 m 484 -18 q 178 111 283 -18 q 72 491 72 239 q 178 871 72 743 q 484 1000 283 1000 q 791 871 685 1000 q 898 491 898 743 q 791 111 898 239 q 484 -18 685 -18 m 484 127 q 730 491 730 127 q 484 854 730 854 q 240 491 240 854 q 484 127 240 127 z "},"Ŏ":{"ha":970,"x_min":72,"x_max":898,"o":"m 484 1059 q 332 1117 387 1059 q 273 1280 277 1175 l 369 1280 q 486 1179 384 1179 q 604 1280 590 1179 l 696 1280 q 637 1117 692 1175 q 484 1059 582 1059 m 484 -18 q 178 111 283 -18 q 72 491 72 239 q 178 871 72 743 q 484 1000 283 1000 q 791 871 685 1000 q 898 491 898 743 q 791 111 898 239 q 484 -18 685 -18 m 484 127 q 730 491 730 127 q 484 854 730 854 q 240 491 240 854 q 484 127 240 127 z "},"Ǒ":{"ha":970,"x_min":72,"x_max":898,"o":"m 406 1059 l 247 1240 l 247 1256 l 369 1256 l 487 1146 l 605 1256 l 722 1256 l 722 1240 l 563 1059 l 406 1059 m 484 1000 q 791 871 685 1000 q 898 491 898 743 q 791 111 898 239 q 484 -18 685 -18 q 178 111 283 -18 q 72 491 72 239 q 178 871 72 743 q 484 1000 283 1000 m 484 127 q 730 491 730 127 q 484 854 730 854 q 240 491 240 854 q 484 127 240 127 z "},"Ɵ":{"ha":970,"x_min":72,"x_max":898,"o":"m 484 1000 q 791 871 685 1000 q 898 491 898 743 q 791 111 898 239 q 484 -18 685 -18 q 178 111 283 -18 q 72 491 72 239 q 178 871 72 743 q 484 1000 283 1000 m 484 854 q 240 566 264 854 l 730 566 q 484 854 705 854 m 484 127 q 657 202 595 127 q 730 425 719 277 l 239 425 q 311 202 250 277 q 484 127 373 127 z "},"Ô":{"ha":970,"x_min":72,"x_max":898,"o":"m 365 1059 l 247 1059 l 247 1076 l 406 1256 l 563 1256 l 722 1076 l 722 1059 l 601 1059 l 481 1169 l 365 1059 m 484 1000 q 791 871 685 1000 q 898 491 898 743 q 791 111 898 239 q 484 -18 685 -18 q 178 111 283 -18 q 72 491 72 239 q 178 871 72 743 q 484 1000 283 1000 m 484 127 q 730 491 730 127 q 484 854 730 854 q 240 491 240 854 q 484 127 240 127 z "},"Ố":{"ha":970,"x_min":72,"x_max":898,"o":"m 757 1211 l 651 1211 l 651 1225 l 753 1397 l 895 1397 l 895 1383 l 757 1211 m 378 1065 l 269 1065 l 269 1078 l 410 1267 l 559 1267 l 700 1078 l 700 1065 l 587 1065 l 481 1176 l 378 1065 m 484 1000 q 791 871 685 1000 q 898 491 898 743 q 791 111 898 239 q 484 -18 685 -18 q 178 111 283 -18 q 72 491 72 239 q 178 871 72 743 q 484 1000 283 1000 m 484 127 q 730 491 730 127 q 484 854 730 854 q 240 491 240 854 q 484 127 240 127 z "},"Ộ":{"ha":970,"x_min":72,"x_max":898,"o":"m 365 1059 l 247 1059 l 247 1076 l 406 1256 l 563 1256 l 722 1076 l 722 1059 l 601 1059 l 481 1169 l 365 1059 m 484 1000 q 791 871 685 1000 q 898 491 898 743 q 791 111 898 239 q 484 -18 685 -18 q 178 111 283 -18 q 72 491 72 239 q 178 871 72 743 q 484 1000 283 1000 m 484 127 q 730 491 730 127 q 484 854 730 854 q 240 491 240 854 q 484 127 240 127 m 484 -109 q 557 -134 530 -109 q 583 -203 583 -160 q 557 -275 583 -250 q 484 -300 532 -300 q 412 -274 438 -300 q 385 -205 385 -248 q 411 -134 385 -159 q 484 -109 437 -109 z "},"Ồ":{"ha":970,"x_min":72,"x_max":898,"o":"m 214 1211 l 84 1383 l 84 1397 l 227 1397 l 320 1225 l 320 1211 l 214 1211 m 269 1078 l 410 1267 l 559 1267 l 700 1078 l 700 1065 l 587 1065 l 481 1176 l 378 1065 l 269 1065 l 269 1078 m 484 1000 q 791 871 685 1000 q 898 491 898 743 q 791 111 898 239 q 484 -18 685 -18 q 178 111 283 -18 q 72 491 72 239 q 178 871 72 743 q 484 1000 283 1000 m 484 127 q 730 491 730 127 q 484 854 730 854 q 240 491 240 854 q 484 127 240 127 z "},"Ổ":{"ha":970,"x_min":72,"x_max":898,"o":"m 692 1329 q 621 1308 662 1329 l 590 1375 q 651 1401 617 1392 q 719 1411 685 1411 q 807 1386 776 1411 q 838 1318 838 1362 q 824 1271 838 1286 q 785 1246 810 1256 q 763 1234 770 1240 q 755 1218 755 1227 l 758 1200 l 658 1200 q 655 1222 655 1214 q 666 1259 655 1246 q 697 1280 677 1271 q 716 1293 709 1287 q 723 1309 723 1299 q 715 1324 723 1318 q 692 1329 707 1329 m 378 1065 l 269 1065 l 269 1078 l 410 1267 l 559 1267 l 700 1078 l 700 1065 l 587 1065 l 481 1176 l 378 1065 m 484 1000 q 791 871 685 1000 q 898 491 898 743 q 791 111 898 239 q 484 -18 685 -18 q 178 111 283 -18 q 72 491 72 239 q 178 871 72 743 q 484 1000 283 1000 m 484 127 q 730 491 730 127 q 484 854 730 854 q 240 491 240 854 q 484 127 240 127 z "},"Ỗ":{"ha":970,"x_min":72,"x_max":898,"o":"m 399 1322 q 342 1257 349 1322 l 263 1257 q 300 1376 263 1333 q 403 1419 336 1419 q 461 1408 438 1419 q 509 1378 484 1397 q 541 1357 529 1363 q 570 1351 552 1351 q 627 1416 621 1351 l 705 1416 q 669 1297 705 1340 q 566 1255 632 1255 q 507 1265 530 1255 q 460 1295 484 1276 q 427 1316 439 1310 q 399 1322 415 1322 m 557 1222 l 700 1055 l 700 1042 l 593 1042 l 483 1141 l 372 1042 l 269 1042 l 269 1055 l 411 1222 l 557 1222 m 484 1000 q 791 871 685 1000 q 898 491 898 743 q 791 111 898 239 q 484 -18 685 -18 q 178 111 283 -18 q 72 491 72 239 q 178 871 72 743 q 484 1000 283 1000 m 484 127 q 730 491 730 127 q 484 854 730 854 q 240 491 240 854 q 484 127 240 127 z "},"Ȍ":{"ha":970,"x_min":72,"x_max":898,"o":"m 343 1059 l 180 1240 l 180 1256 l 336 1256 l 454 1076 l 454 1059 l 343 1059 m 571 1059 l 408 1240 l 408 1256 l 562 1256 l 680 1076 l 680 1059 l 571 1059 m 484 -18 q 178 111 283 -18 q 72 491 72 239 q 178 871 72 743 q 484 1000 283 1000 q 791 871 685 1000 q 898 491 898 743 q 791 111 898 239 q 484 -18 685 -18 m 484 127 q 730 491 730 127 q 484 854 730 854 q 240 491 240 854 q 484 127 240 127 z "},"Ö":{"ha":970,"x_min":72,"x_max":898,"o":"m 347 1058 q 281 1082 305 1058 q 258 1146 258 1105 q 281 1213 258 1190 q 347 1236 305 1236 q 413 1212 389 1236 q 437 1147 437 1188 q 413 1082 437 1105 q 347 1058 389 1058 m 623 1058 q 557 1082 581 1058 q 533 1146 533 1105 q 557 1213 533 1190 q 623 1236 581 1236 q 688 1212 665 1236 q 712 1147 712 1188 q 688 1082 712 1105 q 623 1058 665 1058 m 484 -18 q 178 111 283 -18 q 72 491 72 239 q 178 871 72 743 q 484 1000 283 1000 q 791 871 685 1000 q 898 491 898 743 q 791 111 898 239 q 484 -18 685 -18 m 484 127 q 730 491 730 127 q 484 854 730 854 q 240 491 240 854 q 484 127 240 127 z "},"Ȫ":{"ha":970,"x_min":72,"x_max":898,"o":"m 270 1411 l 699 1411 l 699 1298 l 270 1298 l 270 1411 m 347 1058 q 281 1082 305 1058 q 258 1146 258 1105 q 281 1213 258 1190 q 347 1236 305 1236 q 413 1212 389 1236 q 437 1147 437 1188 q 413 1082 437 1105 q 347 1058 389 1058 m 623 1058 q 557 1082 581 1058 q 533 1146 533 1105 q 557 1213 533 1190 q 623 1236 581 1236 q 688 1212 665 1236 q 712 1147 712 1188 q 688 1082 712 1105 q 623 1058 665 1058 m 484 -18 q 178 111 283 -18 q 72 491 72 239 q 178 871 72 743 q 484 1000 283 1000 q 791 871 685 1000 q 898 491 898 743 q 791 111 898 239 q 484 -18 685 -18 m 484 127 q 730 491 730 127 q 484 854 730 854 q 240 491 240 854 q 484 127 240 127 z "},"Ȯ":{"ha":970,"x_min":72,"x_max":898,"o":"m 484 1062 q 412 1088 438 1062 q 385 1157 385 1114 q 411 1228 385 1203 q 484 1253 437 1253 q 557 1227 530 1253 q 583 1158 583 1202 q 557 1087 583 1112 q 484 1062 532 1062 m 484 -18 q 178 111 283 -18 q 72 491 72 239 q 178 871 72 743 q 484 1000 283 1000 q 791 871 685 1000 q 898 491 898 743 q 791 111 898 239 q 484 -18 685 -18 m 484 127 q 730 491 730 127 q 484 854 730 854 q 240 491 240 854 q 484 127 240 127 z "},"Ȱ":{"ha":970,"x_min":72,"x_max":898,"o":"m 270 1411 l 699 1411 l 699 1298 l 270 1298 l 270 1411 m 484 1062 q 412 1088 438 1062 q 385 1157 385 1114 q 411 1228 385 1203 q 484 1253 437 1253 q 557 1227 530 1253 q 583 1158 583 1202 q 557 1087 583 1112 q 484 1062 532 1062 m 484 -18 q 178 111 283 -18 q 72 491 72 239 q 178 871 72 743 q 484 1000 283 1000 q 791 871 685 1000 q 898 491 898 743 q 791 111 898 239 q 484 -18 685 -18 m 484 127 q 730 491 730 127 q 484 854 730 854 q 240 491 240 854 q 484 127 240 127 z "},"Ọ":{"ha":970,"x_min":72,"x_max":898,"o":"m 484 -18 q 178 111 283 -18 q 72 491 72 239 q 178 871 72 743 q 484 1000 283 1000 q 791 871 685 1000 q 898 491 898 743 q 791 111 898 239 q 484 -18 685 -18 m 484 127 q 730 491 730 127 q 484 854 730 854 q 240 491 240 854 q 484 127 240 127 m 484 -300 q 412 -274 438 -300 q 385 -205 385 -248 q 411 -134 385 -159 q 484 -109 437 -109 q 557 -134 530 -109 q 583 -203 583 -160 q 557 -275 583 -250 q 484 -300 532 -300 z "},"Ò":{"ha":970,"x_min":72,"x_max":898,"o":"m 220 1240 l 220 1256 l 403 1256 l 590 1076 l 590 1059 l 454 1059 l 220 1240 m 484 -18 q 178 111 283 -18 q 72 491 72 239 q 178 871 72 743 q 484 1000 283 1000 q 791 871 685 1000 q 898 491 898 743 q 791 111 898 239 q 484 -18 685 -18 m 484 127 q 730 491 730 127 q 484 854 730 854 q 240 491 240 854 q 484 127 240 127 z "},"Ỏ":{"ha":970,"x_min":72,"x_max":898,"o":"m 427 1059 q 425 1089 425 1076 q 437 1128 425 1115 q 473 1152 450 1141 q 496 1164 488 1158 q 503 1179 503 1169 q 469 1198 503 1198 q 377 1169 429 1198 l 339 1249 q 414 1282 372 1271 q 500 1294 457 1294 q 604 1267 567 1294 q 640 1194 640 1241 q 623 1141 640 1158 q 575 1114 605 1124 q 548 1099 556 1105 q 540 1082 540 1093 l 543 1059 l 427 1059 m 484 -18 q 178 111 283 -18 q 72 491 72 239 q 178 871 72 743 q 484 1000 283 1000 q 791 871 685 1000 q 898 491 898 743 q 791 111 898 239 q 484 -18 685 -18 m 484 127 q 730 491 730 127 q 484 854 730 854 q 240 491 240 854 q 484 127 240 127 z "},"Ơ":{"ha":970,"x_min":72,"x_max":960,"o":"m 960 1090 q 919 943 960 993 q 783 882 878 894 q 898 491 898 754 q 791 111 898 239 q 484 -18 685 -18 q 178 111 283 -18 q 72 491 72 239 q 178 871 72 743 q 484 1000 283 1000 q 557 995 528 1000 q 620 982 586 990 q 662 972 640 977 q 707 968 684 968 q 795 995 770 968 q 819 1088 819 1021 q 812 1171 819 1122 l 954 1171 q 960 1090 960 1130 m 484 127 q 730 491 730 127 q 484 854 730 854 q 240 491 240 854 q 484 127 240 127 z "},"Ớ":{"ha":970,"x_min":72,"x_max":960,"o":"m 518 1059 l 382 1059 l 382 1076 l 582 1256 l 765 1256 l 765 1240 l 518 1059 m 960 1090 q 919 943 960 993 q 783 882 878 894 q 898 491 898 754 q 791 111 898 239 q 484 -18 685 -18 q 178 111 283 -18 q 72 491 72 239 q 178 871 72 743 q 484 1000 283 1000 q 557 995 528 1000 q 620 982 586 990 q 662 972 640 977 q 707 968 684 968 q 795 995 770 968 q 819 1088 819 1021 q 812 1171 819 1122 l 954 1171 q 960 1090 960 1130 m 484 127 q 730 491 730 127 q 484 854 730 854 q 240 491 240 854 q 484 127 240 127 z "},"Ợ":{"ha":970,"x_min":72,"x_max":960,"o":"m 960 1090 q 919 943 960 993 q 783 882 878 894 q 898 491 898 754 q 791 111 898 239 q 484 -18 685 -18 q 178 111 283 -18 q 72 491 72 239 q 178 871 72 743 q 484 1000 283 1000 q 557 995 528 1000 q 620 982 586 990 q 662 972 640 977 q 707 968 684 968 q 795 995 770 968 q 819 1088 819 1021 q 812 1171 819 1122 l 954 1171 q 960 1090 960 1130 m 484 127 q 730 491 730 127 q 484 854 730 854 q 240 491 240 854 q 484 127 240 127 m 490 -300 q 417 -274 444 -300 q 391 -205 391 -248 q 416 -134 391 -159 q 490 -109 442 -109 q 562 -134 536 -109 q 589 -203 589 -160 q 563 -275 589 -250 q 490 -300 537 -300 z "},"Ờ":{"ha":970,"x_min":72,"x_max":960,"o":"m 460 1059 l 225 1240 l 225 1256 l 408 1256 l 595 1076 l 595 1059 l 460 1059 m 960 1090 q 919 943 960 993 q 783 882 878 894 q 898 491 898 754 q 791 111 898 239 q 484 -18 685 -18 q 178 111 283 -18 q 72 491 72 239 q 178 871 72 743 q 484 1000 283 1000 q 557 995 528 1000 q 620 982 586 990 q 662 972 640 977 q 707 968 684 968 q 795 995 770 968 q 819 1088 819 1021 q 812 1171 819 1122 l 954 1171 q 960 1090 960 1130 m 484 127 q 730 491 730 127 q 484 854 730 854 q 240 491 240 854 q 484 127 240 127 z "},"Ở":{"ha":970,"x_min":72,"x_max":960,"o":"m 475 1198 q 382 1169 434 1198 l 345 1249 q 420 1282 377 1271 q 506 1294 463 1294 q 609 1267 572 1294 q 646 1194 646 1241 q 628 1141 646 1158 q 581 1114 610 1124 q 553 1099 562 1105 q 545 1082 545 1093 l 548 1059 l 433 1059 q 430 1089 430 1076 q 443 1128 430 1115 q 479 1152 456 1141 q 501 1164 494 1158 q 509 1179 509 1169 q 475 1198 509 1198 m 960 1090 q 919 943 960 993 q 783 882 878 894 q 898 491 898 754 q 791 111 898 239 q 484 -18 685 -18 q 178 111 283 -18 q 72 491 72 239 q 178 871 72 743 q 484 1000 283 1000 q 557 995 528 1000 q 620 982 586 990 q 662 972 640 977 q 707 968 684 968 q 795 995 770 968 q 819 1088 819 1021 q 812 1171 819 1122 l 954 1171 q 960 1090 960 1130 m 484 127 q 730 491 730 127 q 484 854 730 854 q 240 491 240 854 q 484 127 240 127 z "},"Ỡ":{"ha":970,"x_min":72,"x_max":960,"o":"m 393 1147 q 339 1069 347 1147 l 247 1069 q 288 1212 250 1161 q 393 1263 327 1263 q 457 1250 430 1263 q 518 1214 484 1237 q 555 1190 540 1198 q 586 1183 571 1183 q 640 1260 632 1183 l 732 1260 q 691 1117 730 1168 q 586 1066 652 1066 q 524 1078 549 1066 q 461 1115 498 1090 q 425 1139 441 1131 q 393 1147 410 1147 m 960 1090 q 919 943 960 993 q 783 882 878 894 q 898 491 898 754 q 791 111 898 239 q 484 -18 685 -18 q 178 111 283 -18 q 72 491 72 239 q 178 871 72 743 q 484 1000 283 1000 q 557 995 528 1000 q 620 982 586 990 q 662 972 640 977 q 707 968 684 968 q 795 995 770 968 q 819 1088 819 1021 q 812 1171 819 1122 l 954 1171 q 960 1090 960 1130 m 484 127 q 730 491 730 127 q 484 854 730 854 q 240 491 240 854 q 484 127 240 127 z "},"Ő":{"ha":970,"x_min":72,"x_max":898,"o":"m 288 1076 l 418 1256 l 571 1256 l 571 1240 l 396 1059 l 288 1059 l 288 1076 m 513 1076 l 643 1256 l 799 1256 l 799 1240 l 624 1059 l 513 1059 l 513 1076 m 484 -18 q 178 111 283 -18 q 72 491 72 239 q 178 871 72 743 q 484 1000 283 1000 q 791 871 685 1000 q 898 491 898 743 q 791 111 898 239 q 484 -18 685 -18 m 484 127 q 730 491 730 127 q 484 854 730 854 q 240 491 240 854 q 484 127 240 127 z "},"Ƣ":{"ha":1225,"x_min":72,"x_max":1111,"o":"m 1111 982 l 1111 -282 l 948 -282 l 948 837 l 830 837 l 830 57 q 670 3 760 22 q 484 -15 581 -15 q 178 113 283 -15 q 72 491 72 241 q 176 870 72 743 q 484 997 281 997 q 560 993 514 997 q 830 982 712 982 l 1111 982 m 484 130 q 667 151 589 130 l 667 842 l 635 845 q 484 852 524 852 q 240 491 240 852 q 484 130 240 130 z "},"Ȏ":{"ha":970,"x_min":72,"x_max":898,"o":"m 484 1294 q 637 1236 582 1294 q 696 1073 692 1179 l 600 1073 q 483 1175 586 1175 q 365 1073 380 1175 l 273 1073 q 332 1236 277 1179 q 484 1294 387 1294 m 484 -18 q 178 111 283 -18 q 72 491 72 239 q 178 871 72 743 q 484 1000 283 1000 q 791 871 685 1000 q 898 491 898 743 q 791 111 898 239 q 484 -18 685 -18 m 484 127 q 730 491 730 127 q 484 854 730 854 q 240 491 240 854 q 484 127 240 127 z "},"Ꝋ":{"ha":1059,"x_min":18,"x_max":1043,"o":"m 1043 433 l 941 433 q 824 96 929 209 q 530 -18 719 -18 q 238 99 345 -18 q 118 433 132 216 l 18 433 l 18 555 l 118 555 q 237 887 132 774 q 530 1000 342 1000 q 821 884 715 1000 q 941 555 926 769 l 1043 555 l 1043 433 m 530 859 q 282 555 302 859 l 777 555 q 530 859 757 859 m 530 123 q 779 433 758 123 l 281 433 q 530 123 301 123 z "},"Ꝍ":{"ha":1272,"x_min":72,"x_max":1227,"o":"m 924 1000 q 1149 912 1072 1000 q 1227 652 1227 825 q 1149 393 1227 480 q 924 307 1072 307 q 880 308 895 307 q 745 64 846 146 q 484 -18 644 -18 q 178 111 283 -18 q 72 491 72 239 q 178 871 72 743 q 484 1000 283 1000 q 726 932 629 1000 q 924 1000 792 1000 m 924 427 q 1048 483 1008 427 q 1089 652 1089 538 q 1048 822 1089 766 q 924 878 1008 878 q 814 841 859 878 q 898 491 898 713 q 897 430 898 449 q 924 427 913 427 m 484 127 q 730 491 730 127 q 484 854 730 854 q 240 491 240 854 q 484 127 240 127 z "},"Ō":{"ha":970,"x_min":72,"x_max":898,"o":"m 270 1207 l 699 1207 l 699 1095 l 270 1095 l 270 1207 m 484 -18 q 178 111 283 -18 q 72 491 72 239 q 178 871 72 743 q 484 1000 283 1000 q 791 871 685 1000 q 898 491 898 743 q 791 111 898 239 q 484 -18 685 -18 m 484 127 q 730 491 730 127 q 484 854 730 854 q 240 491 240 854 q 484 127 240 127 z "},"Ṓ":{"ha":970,"x_min":72,"x_max":898,"o":"m 423 1248 l 525 1420 l 667 1420 l 667 1407 l 529 1234 l 423 1234 l 423 1248 m 270 1207 l 699 1207 l 699 1095 l 270 1095 l 270 1207 m 484 -18 q 178 111 283 -18 q 72 491 72 239 q 178 871 72 743 q 484 1000 283 1000 q 791 871 685 1000 q 898 491 898 743 q 791 111 898 239 q 484 -18 685 -18 m 484 127 q 730 491 730 127 q 484 854 730 854 q 240 491 240 854 q 484 127 240 127 z "},"Ṑ":{"ha":970,"x_min":72,"x_max":898,"o":"m 302 1407 l 302 1420 l 445 1420 l 538 1248 l 538 1234 l 433 1234 l 302 1407 m 270 1207 l 699 1207 l 699 1095 l 270 1095 l 270 1207 m 484 -18 q 178 111 283 -18 q 72 491 72 239 q 178 871 72 743 q 484 1000 283 1000 q 791 871 685 1000 q 898 491 898 743 q 791 111 898 239 q 484 -18 685 -18 m 484 127 q 730 491 730 127 q 484 854 730 854 q 240 491 240 854 q 484 127 240 127 z "},"Ǫ":{"ha":970,"x_min":72,"x_max":898,"o":"m 665 12 q 532 -144 532 -54 q 594 -199 532 -199 q 675 -179 632 -199 l 712 -266 q 642 -296 682 -285 q 559 -307 601 -307 q 441 -271 483 -307 q 399 -172 399 -236 q 479 -18 399 -85 q 176 113 281 -15 q 72 491 72 241 q 178 871 72 743 q 484 1000 283 1000 q 791 871 685 1000 q 898 491 898 743 q 840 190 898 308 q 665 12 783 72 m 240 491 q 484 127 240 127 q 730 491 730 127 q 484 854 730 854 q 240 491 240 854 z "},"Ǭ":{"ha":970,"x_min":72,"x_max":898,"o":"m 699 1095 l 270 1095 l 270 1207 l 699 1207 l 699 1095 m 665 12 q 532 -144 532 -54 q 594 -199 532 -199 q 675 -179 632 -199 l 712 -266 q 642 -296 682 -285 q 559 -307 601 -307 q 441 -271 483 -307 q 399 -172 399 -236 q 479 -18 399 -85 q 176 113 281 -15 q 72 491 72 241 q 178 871 72 743 q 484 1000 283 1000 q 791 871 685 1000 q 898 491 898 743 q 840 190 898 308 q 665 12 783 72 m 240 491 q 484 127 240 127 q 730 491 730 127 q 484 854 730 854 q 240 491 240 854 z "},"Ɔ":{"ha":817,"x_min":42,"x_max":760,"o":"m 311 998 q 642 870 524 998 q 760 511 760 742 q 706 231 760 350 q 552 47 652 111 q 317 -18 452 -18 q 175 2 245 -18 q 50 57 104 22 l 106 183 q 320 130 214 130 q 520 227 449 130 q 591 499 591 324 q 518 761 591 673 q 302 849 445 849 q 98 802 180 849 l 42 925 q 157 979 85 959 q 311 998 228 998 z "},"Ø":{"ha":970,"x_min":31,"x_max":939,"o":"m 939 981 l 818 830 q 898 491 898 703 q 791 111 898 239 q 484 -18 685 -18 q 224 69 326 -18 l 161 -14 l 31 -14 l 31 1 l 152 152 q 72 491 72 279 q 178 871 72 743 q 484 1000 283 1000 q 746 913 644 1000 l 808 996 l 939 996 l 939 981 m 484 859 q 235 491 235 859 q 259 288 235 369 l 656 796 q 484 859 595 859 m 484 123 q 735 491 735 123 q 711 694 735 613 l 313 186 q 484 123 374 123 z "},"Ǿ":{"ha":970,"x_min":31,"x_max":939,"o":"m 513 1059 l 377 1059 l 377 1076 l 576 1256 l 760 1256 l 760 1240 l 513 1059 m 939 981 l 818 830 q 898 491 898 703 q 791 111 898 239 q 484 -18 685 -18 q 224 69 326 -18 l 161 -14 l 31 -14 l 31 1 l 152 152 q 72 491 72 279 q 178 871 72 743 q 484 1000 283 1000 q 746 913 644 1000 l 808 996 l 939 996 l 939 981 m 484 859 q 235 491 235 859 q 259 288 235 369 l 656 796 q 484 859 595 859 m 484 123 q 735 491 735 123 q 711 694 735 613 l 313 186 q 484 123 374 123 z "},"Õ":{"ha":970,"x_min":72,"x_max":898,"o":"m 581 1066 q 518 1078 544 1066 q 456 1115 492 1090 q 420 1139 435 1131 q 388 1147 404 1147 q 334 1069 342 1147 l 241 1069 q 283 1212 244 1161 q 388 1263 321 1263 q 452 1250 425 1263 q 513 1214 479 1237 q 550 1190 534 1198 q 581 1183 566 1183 q 635 1260 627 1183 l 727 1260 q 686 1117 724 1168 q 581 1066 647 1066 m 484 -18 q 178 111 283 -18 q 72 491 72 239 q 178 871 72 743 q 484 1000 283 1000 q 791 871 685 1000 q 898 491 898 743 q 791 111 898 239 q 484 -18 685 -18 m 484 127 q 730 491 730 127 q 484 854 730 854 q 240 491 240 854 q 484 127 240 127 z "},"Ṍ":{"ha":970,"x_min":72,"x_max":898,"o":"m 427 1248 l 529 1420 l 671 1420 l 671 1407 l 533 1234 l 427 1234 l 427 1248 m 567 1042 q 508 1052 530 1042 q 461 1081 486 1062 q 429 1101 441 1095 q 399 1108 416 1108 q 343 1044 350 1108 l 264 1044 q 300 1162 264 1120 q 403 1204 336 1204 q 462 1194 439 1204 q 509 1165 484 1184 q 541 1145 529 1152 q 571 1138 553 1138 q 627 1202 620 1138 l 705 1202 q 669 1084 705 1126 q 567 1042 633 1042 m 484 -18 q 178 111 283 -18 q 72 491 72 239 q 178 871 72 743 q 484 1000 283 1000 q 791 871 685 1000 q 898 491 898 743 q 791 111 898 239 q 484 -18 685 -18 m 484 127 q 730 491 730 127 q 484 854 730 854 q 240 491 240 854 q 484 127 240 127 z "},"Ṏ":{"ha":970,"x_min":72,"x_max":898,"o":"m 353 1256 q 290 1278 312 1256 q 267 1337 267 1301 q 290 1398 267 1377 q 353 1420 312 1420 q 416 1398 393 1420 q 438 1339 438 1377 q 416 1278 438 1299 q 353 1256 393 1256 m 617 1256 q 554 1278 576 1256 q 532 1337 532 1301 q 554 1398 532 1377 q 617 1420 576 1420 q 680 1398 658 1420 q 703 1339 703 1377 q 680 1278 703 1299 q 617 1256 658 1256 m 567 1053 q 510 1063 532 1053 q 461 1092 488 1073 q 429 1114 442 1107 q 399 1120 416 1120 q 343 1055 350 1120 l 264 1055 q 300 1175 264 1133 q 403 1217 336 1217 q 460 1206 438 1217 q 509 1177 481 1196 q 541 1156 528 1162 q 571 1149 553 1149 q 627 1214 620 1149 l 705 1214 q 669 1095 705 1138 q 567 1053 633 1053 m 484 -18 q 178 111 283 -18 q 72 491 72 239 q 178 871 72 743 q 484 1000 283 1000 q 791 871 685 1000 q 898 491 898 743 q 791 111 898 239 q 484 -18 685 -18 m 484 127 q 730 491 730 127 q 484 854 730 854 q 240 491 240 854 q 484 127 240 127 z "},"Ȭ":{"ha":970,"x_min":72,"x_max":898,"o":"m 270 1417 l 699 1417 l 699 1305 l 270 1305 l 270 1417 m 566 1101 q 507 1112 530 1101 q 460 1142 484 1123 q 427 1163 439 1157 q 399 1169 415 1169 q 342 1104 349 1169 l 263 1104 q 300 1223 263 1180 q 403 1265 336 1265 q 461 1255 438 1265 q 509 1225 484 1244 q 541 1204 529 1210 q 570 1198 552 1198 q 627 1263 621 1198 l 705 1263 q 669 1144 705 1187 q 566 1101 632 1101 m 484 -18 q 178 111 283 -18 q 72 491 72 239 q 178 871 72 743 q 484 1000 283 1000 q 791 871 685 1000 q 898 491 898 743 q 791 111 898 239 q 484 -18 685 -18 m 484 127 q 730 491 730 127 q 484 854 730 854 q 240 491 240 854 q 484 127 240 127 z "},"Œ":{"ha":1306,"x_min":72,"x_max":1259,"o":"m 1259 145 l 1259 0 l 661 0 l 484 0 q 178 124 283 0 q 72 491 72 248 q 178 858 72 734 q 484 982 283 982 l 713 982 l 1241 982 l 1241 837 l 819 837 l 819 575 l 1126 575 l 1126 429 l 819 429 l 819 145 l 1259 145 m 661 145 l 661 837 l 484 837 q 240 491 240 837 q 302 232 240 319 q 484 145 363 145 l 661 145 z "},"P":{"ha":811,"x_min":114,"x_max":791,"o":"m 469 982 q 707 896 623 982 q 791 652 791 810 q 704 408 791 495 q 461 320 617 320 l 277 320 l 277 0 l 114 0 l 114 982 l 277 982 l 469 982 m 469 465 q 623 650 623 465 q 461 837 623 837 l 277 837 l 277 465 l 469 465 z "},"Ṕ":{"ha":811,"x_min":114,"x_max":791,"o":"m 448 1059 l 312 1059 l 312 1076 l 511 1256 l 694 1256 l 694 1240 l 448 1059 m 469 982 q 707 896 623 982 q 791 652 791 810 q 704 408 791 495 q 461 320 617 320 l 277 320 l 277 0 l 114 0 l 114 982 l 277 982 l 469 982 m 469 465 q 623 650 623 465 q 461 837 623 837 l 277 837 l 277 465 l 469 465 z "},"Ṗ":{"ha":811,"x_min":114,"x_max":791,"o":"m 419 1062 q 347 1088 373 1062 q 320 1157 320 1114 q 346 1228 320 1203 q 419 1253 372 1253 q 492 1227 465 1253 q 518 1158 518 1202 q 492 1087 518 1112 q 419 1062 467 1062 m 469 982 q 707 896 623 982 q 791 652 791 810 q 704 408 791 495 q 461 320 617 320 l 277 320 l 277 0 l 114 0 l 114 982 l 277 982 l 469 982 m 469 465 q 623 650 623 465 q 461 837 623 837 l 277 837 l 277 465 l 469 465 z "},"Ꝓ":{"ha":966,"x_min":0,"x_max":947,"o":"m 625 982 q 863 895 779 982 q 947 652 947 808 q 860 408 947 495 q 617 320 773 320 l 431 320 l 431 0 l 269 0 l 269 323 q 146 199 146 319 q 151 134 146 182 l 5 134 q 0 198 0 165 q 70 391 0 321 q 269 464 140 461 l 269 982 l 431 982 l 625 982 m 625 465 q 779 650 779 465 q 617 837 779 837 l 431 837 l 431 465 l 625 465 z "},"Ƥ":{"ha":909,"x_min":-22,"x_max":890,"o":"m 568 982 q 806 895 722 982 q 890 652 890 808 q 803 408 890 495 q 560 320 716 320 l 374 320 l 374 0 l 212 0 l 212 836 q 146 814 168 836 q 125 749 125 793 q 129 688 125 728 l -18 688 q -22 747 -22 716 q 39 920 -22 859 q 212 982 100 982 l 374 982 l 568 982 m 568 465 q 722 650 722 465 q 560 837 722 837 l 374 837 l 374 465 l 568 465 z "},"Þ":{"ha":836,"x_min":114,"x_max":784,"o":"m 463 827 q 700 743 616 827 q 784 503 784 658 q 698 261 784 347 q 456 176 612 175 l 277 176 l 277 0 l 114 0 l 114 982 l 277 982 l 277 827 l 463 827 m 463 321 q 616 500 616 321 q 456 682 616 682 l 277 682 l 277 321 l 463 321 z "},"Ꝕ":{"ha":1006,"x_min":15,"x_max":986,"o":"m 665 982 q 902 895 818 982 q 986 652 986 808 q 899 408 986 495 q 656 320 812 320 l 471 320 l 471 0 l 308 0 l 308 340 q 127 410 193 346 q 62 579 62 473 q 71 652 62 621 q 96 720 80 684 q 116 768 110 749 q 122 811 122 788 q 101 863 122 844 q 15 911 80 883 l 60 1000 q 172 945 133 971 q 228 888 212 918 q 244 812 244 857 q 237 759 244 781 q 216 699 231 736 q 195 644 202 667 q 187 591 187 621 q 218 504 187 536 q 308 467 248 472 l 308 982 l 471 982 l 665 982 m 665 465 q 818 650 818 465 q 656 837 818 837 l 471 837 l 471 465 l 665 465 z "},"Ᵽ":{"ha":811,"x_min":26,"x_max":791,"o":"m 469 982 q 707 896 623 982 q 791 652 791 810 q 704 408 791 495 q 461 320 617 320 l 277 320 l 277 0 l 114 0 l 114 590 l 26 590 l 26 713 l 114 713 l 114 982 l 277 982 l 469 982 m 469 465 q 623 650 623 465 q 461 837 623 837 l 277 837 l 277 713 l 463 713 l 463 590 l 277 590 l 277 465 l 469 465 z "},"Ꝑ":{"ha":811,"x_min":26,"x_max":791,"o":"m 277 320 l 277 229 l 507 229 l 507 103 l 277 103 l 277 0 l 114 0 l 114 103 l 26 103 l 26 229 l 114 229 l 114 982 l 277 982 l 469 982 q 707 896 623 982 q 791 652 791 810 q 704 408 791 495 q 461 320 617 320 l 277 320 m 277 837 l 277 465 l 469 465 q 623 650 623 465 q 461 837 623 837 l 277 837 z "},"Q":{"ha":970,"x_min":72,"x_max":916,"o":"m 810 -218 l 623 0 q 484 -18 562 -18 q 178 111 283 -18 q 72 491 72 239 q 178 871 72 743 q 484 1000 283 1000 q 791 871 685 1000 q 898 491 898 743 q 749 66 898 193 l 916 -113 l 810 -218 m 240 491 q 484 127 240 127 q 730 491 730 127 q 484 854 730 854 q 240 491 240 854 z "},"Ꝙ":{"ha":1108,"x_min":72,"x_max":1109,"o":"m 1092 373 q 1109 275 1109 316 q 1073 153 1109 212 q 955 23 1036 94 l 863 -56 l 916 -113 l 810 -218 l 751 -151 l 623 -259 l 555 -182 l 684 -72 l 623 0 q 484 -18 562 -18 q 178 111 283 -18 q 72 491 72 239 q 178 871 72 743 q 484 1000 283 1000 q 791 871 685 1000 q 898 491 898 743 q 749 66 898 193 l 792 20 l 887 102 q 965 185 941 146 q 989 267 989 224 q 977 339 989 301 l 1092 373 m 240 491 q 484 127 240 127 q 730 491 730 127 q 484 854 730 854 q 240 491 240 854 z "},"Ɋ":{"ha":924,"x_min":72,"x_max":964,"o":"m 964 -278 q 864 -296 917 -296 q 647 -81 647 -296 l 647 107 q 399 -18 562 -18 q 157 115 243 -18 q 72 488 72 248 q 159 865 72 731 q 404 1000 245 1000 q 542 970 477 1000 q 647 891 606 941 l 647 982 l 810 982 l 810 0 l 810 -72 q 825 -132 810 -113 q 872 -151 840 -151 q 941 -141 909 -151 l 964 -278 m 448 133 q 554 156 506 133 q 647 229 602 179 l 647 760 q 554 829 610 803 q 442 854 498 854 q 240 496 240 854 q 448 133 240 133 z "},"Ꝗ":{"ha":970,"x_min":72,"x_max":990,"o":"m 859 -50 l 916 -113 l 810 -218 l 749 -148 l 624 -259 l 553 -182 l 682 -69 l 623 0 q 484 -18 562 -18 q 178 111 283 -18 q 72 491 72 239 q 178 871 72 743 q 484 1000 283 1000 q 791 871 685 1000 q 898 491 898 743 q 749 66 898 193 l 788 24 l 922 144 l 990 66 l 859 -50 m 240 491 q 484 127 240 127 q 730 491 730 127 q 484 854 730 854 q 240 491 240 854 z "},"R":{"ha":860,"x_min":114,"x_max":833,"o":"m 418 351 l 277 351 l 277 0 l 114 0 l 114 982 l 277 982 l 457 982 q 692 899 609 982 q 776 667 776 817 q 727 477 776 553 q 586 370 678 401 l 833 0 l 637 0 l 418 351 m 277 491 l 457 491 q 608 665 608 491 q 452 838 608 838 l 277 838 l 277 491 z "},"Ŕ":{"ha":860,"x_min":114,"x_max":833,"o":"m 458 1059 l 323 1059 l 323 1076 l 522 1256 l 705 1256 l 705 1240 l 458 1059 m 418 351 l 277 351 l 277 0 l 114 0 l 114 982 l 277 982 l 457 982 q 692 899 609 982 q 776 667 776 817 q 727 477 776 553 q 586 370 678 401 l 833 0 l 637 0 l 418 351 m 277 491 l 457 491 q 608 665 608 491 q 452 838 608 838 l 277 838 l 277 491 z "},"Ř":{"ha":860,"x_min":114,"x_max":833,"o":"m 351 1059 l 193 1240 l 193 1256 l 315 1256 l 433 1146 l 551 1256 l 667 1256 l 667 1240 l 509 1059 l 351 1059 m 418 351 l 277 351 l 277 0 l 114 0 l 114 982 l 277 982 l 457 982 q 692 899 609 982 q 776 667 776 817 q 727 477 776 553 q 586 370 678 401 l 833 0 l 637 0 l 418 351 m 277 491 l 457 491 q 608 665 608 491 q 452 838 608 838 l 277 838 l 277 491 z "},"Ŗ":{"ha":860,"x_min":114,"x_max":833,"o":"m 418 351 l 277 351 l 277 0 l 114 0 l 114 982 l 277 982 l 457 982 q 692 899 609 982 q 776 667 776 817 q 727 477 776 553 q 586 370 678 401 l 833 0 l 637 0 l 418 351 m 277 491 l 457 491 q 608 665 608 491 q 452 838 608 838 l 277 838 l 277 491 m 323 -323 q 370 -248 357 -285 q 384 -157 384 -212 q 380 -96 384 -121 l 528 -96 q 533 -156 533 -129 q 497 -274 533 -220 q 381 -387 461 -328 l 323 -323 z "},"Ȑ":{"ha":860,"x_min":114,"x_max":833,"o":"m 289 1059 l 126 1240 l 126 1256 l 282 1256 l 400 1076 l 400 1059 l 289 1059 m 517 1059 l 354 1240 l 354 1256 l 507 1256 l 625 1076 l 625 1059 l 517 1059 m 418 351 l 277 351 l 277 0 l 114 0 l 114 982 l 277 982 l 457 982 q 692 899 609 982 q 776 667 776 817 q 727 477 776 553 q 586 370 678 401 l 833 0 l 637 0 l 418 351 m 277 491 l 457 491 q 608 665 608 491 q 452 838 608 838 l 277 838 l 277 491 z "},"Ṙ":{"ha":860,"x_min":114,"x_max":833,"o":"m 430 1062 q 357 1088 384 1062 q 331 1157 331 1114 q 357 1228 331 1203 q 430 1253 382 1253 q 503 1227 476 1253 q 529 1158 529 1202 q 503 1087 529 1112 q 430 1062 477 1062 m 418 351 l 277 351 l 277 0 l 114 0 l 114 982 l 277 982 l 457 982 q 692 899 609 982 q 776 667 776 817 q 727 477 776 553 q 586 370 678 401 l 833 0 l 637 0 l 418 351 m 277 491 l 457 491 q 608 665 608 491 q 452 838 608 838 l 277 838 l 277 491 z "},"Ṛ":{"ha":860,"x_min":114,"x_max":833,"o":"m 418 351 l 277 351 l 277 0 l 114 0 l 114 982 l 277 982 l 457 982 q 692 899 609 982 q 776 667 776 817 q 727 477 776 553 q 586 370 678 401 l 833 0 l 637 0 l 418 351 m 277 491 l 457 491 q 608 665 608 491 q 452 838 608 838 l 277 838 l 277 491 m 456 -300 q 383 -274 410 -300 q 357 -205 357 -248 q 382 -134 357 -159 q 456 -109 408 -109 q 528 -134 502 -109 q 555 -203 555 -160 q 529 -275 555 -250 q 456 -300 503 -300 z "},"Ṝ":{"ha":860,"x_min":114,"x_max":833,"o":"m 644 1095 l 216 1095 l 216 1207 l 644 1207 l 644 1095 m 833 0 l 637 0 l 418 351 l 277 351 l 277 0 l 114 0 l 114 982 l 277 982 l 457 982 q 692 899 609 982 q 776 667 776 817 q 727 477 776 553 q 586 370 678 401 l 833 0 m 277 491 l 457 491 q 608 665 608 491 q 452 838 608 838 l 277 838 l 277 491 m 456 -109 q 528 -134 502 -109 q 555 -203 555 -160 q 529 -275 555 -250 q 456 -300 503 -300 q 383 -274 410 -300 q 357 -205 357 -248 q 382 -134 357 -159 q 456 -109 408 -109 z "},"Ꞃ":{"ha":986,"x_min":114,"x_max":962,"o":"m 962 9 q 861 -9 916 -9 q 658 193 658 -9 l 658 511 l 658 694 q 615 810 658 770 q 490 849 572 849 q 379 829 430 849 q 277 766 328 810 l 277 -281 l 114 -281 l 114 982 l 270 982 l 270 879 q 540 1000 374 1000 q 747 918 673 1000 q 821 690 821 836 l 821 273 l 821 202 q 834 153 821 168 q 878 137 848 137 q 939 144 907 137 l 962 9 z "},"Ȓ":{"ha":860,"x_min":114,"x_max":833,"o":"m 429 1175 q 311 1073 326 1175 l 218 1073 q 277 1236 222 1179 q 430 1294 332 1294 q 583 1236 528 1294 q 642 1073 637 1179 l 545 1073 q 429 1175 532 1175 m 418 351 l 277 351 l 277 0 l 114 0 l 114 982 l 277 982 l 457 982 q 692 899 609 982 q 776 667 776 817 q 727 477 776 553 q 586 370 678 401 l 833 0 l 637 0 l 418 351 m 277 491 l 457 491 q 608 665 608 491 q 452 838 608 838 l 277 838 l 277 491 z "},"Ṟ":{"ha":860,"x_min":114,"x_max":833,"o":"m 418 351 l 277 351 l 277 0 l 114 0 l 114 982 l 277 982 l 457 982 q 692 899 609 982 q 776 667 776 817 q 727 477 776 553 q 586 370 678 401 l 833 0 l 637 0 l 418 351 m 277 491 l 457 491 q 608 665 608 491 q 452 838 608 838 l 277 838 l 277 491 m 241 -134 l 670 -134 l 670 -247 l 241 -247 l 241 -134 z "},"Ꞧ":{"ha":878,"x_min":19,"x_max":905,"o":"m 905 712 l 799 688 l 799 667 q 749 479 799 555 q 608 372 700 403 l 856 0 l 661 0 l 439 351 l 298 351 l 298 0 l 136 0 l 136 534 l 35 511 l 19 511 l 19 609 l 136 635 l 136 982 l 298 982 l 480 982 q 676 931 598 982 q 783 784 754 880 l 888 808 l 905 808 l 905 712 m 298 673 l 618 747 q 475 838 587 838 l 298 838 l 298 673 m 480 491 q 631 648 623 491 l 298 572 l 298 491 l 480 491 z "},"Ꝛ":{"ha":732,"x_min":50,"x_max":681,"o":"m 681 690 q 593 456 681 540 q 343 369 505 372 l 652 15 l 652 0 l 463 0 l 119 423 l 119 543 q 323 513 218 513 q 513 685 513 513 q 338 852 513 852 q 111 787 229 852 l 50 910 q 190 976 110 952 q 354 1000 270 1000 q 595 918 510 1000 q 681 690 681 837 z "},"Ɍ":{"ha":878,"x_min":19,"x_max":850,"o":"m 435 351 l 293 351 l 293 0 l 130 0 l 130 355 l 19 355 l 19 487 l 130 487 l 130 982 l 293 982 l 475 982 q 710 899 627 982 q 793 667 793 817 q 745 479 793 555 q 604 372 696 403 l 850 0 l 655 0 l 435 351 m 293 491 l 475 491 q 625 665 625 491 q 469 838 625 838 l 293 838 l 293 491 z "},"Ɽ":{"ha":860,"x_min":113,"x_max":833,"o":"m 275 0 l 275 -72 q 290 -132 275 -113 q 338 -151 305 -151 q 407 -141 374 -151 l 430 -278 q 330 -296 382 -296 q 113 -81 113 -296 l 113 225 l 114 225 l 114 982 l 277 982 l 457 982 q 692 899 609 982 q 776 667 776 817 q 727 477 776 553 q 586 370 678 401 l 833 0 l 637 0 l 418 351 l 277 351 l 277 0 l 275 0 m 277 838 l 277 491 l 457 491 q 608 665 608 491 q 452 838 608 838 l 277 838 z "},"Ꝝ":{"ha":796,"x_min":35,"x_max":779,"o":"m 779 0 l 636 0 l 585 -202 l 425 -202 l 477 0 l 96 0 l 96 142 q 386 452 289 312 q 483 699 483 593 q 437 813 483 774 q 312 852 392 852 q 212 836 262 852 q 106 787 163 819 l 35 907 q 323 1000 168 1000 q 491 966 418 1000 q 605 869 564 932 q 646 723 646 806 q 553 448 646 598 q 290 141 461 297 l 514 141 l 572 365 l 732 365 l 673 141 l 779 141 l 779 0 z "},"S":{"ha":764,"x_min":46,"x_max":705,"o":"m 363 -16 q 193 6 277 -16 q 46 69 110 28 l 99 199 q 363 126 228 126 q 500 160 454 126 q 547 259 547 194 q 513 348 547 313 q 408 401 480 382 l 297 433 q 114 533 171 468 q 57 707 57 598 q 142 921 57 844 q 381 998 228 998 q 532 981 454 998 q 680 933 610 964 l 625 803 q 378 856 487 856 q 256 825 298 856 q 214 734 214 793 q 248 645 214 680 q 354 591 282 610 l 465 560 q 648 459 591 525 q 705 285 705 393 q 615 63 705 142 q 363 -16 525 -16 z "},"Ś":{"ha":764,"x_min":46,"x_max":705,"o":"m 258 1076 l 457 1256 l 640 1256 l 640 1240 l 393 1059 l 258 1059 l 258 1076 m 363 -16 q 193 6 277 -16 q 46 69 110 28 l 99 199 q 363 126 228 126 q 500 160 454 126 q 547 259 547 194 q 513 348 547 313 q 408 401 480 382 l 297 433 q 114 533 171 468 q 57 707 57 598 q 142 921 57 844 q 381 998 228 998 q 532 981 454 998 q 680 933 610 964 l 625 803 q 378 856 487 856 q 256 825 298 856 q 214 734 214 793 q 248 645 214 680 q 354 591 282 610 l 465 560 q 648 459 591 525 q 705 285 705 393 q 615 63 705 142 q 363 -16 525 -16 z "},"Ṥ":{"ha":764,"x_min":46,"x_max":705,"o":"m 258 1206 q 193 1229 217 1206 q 170 1291 170 1252 q 193 1356 170 1333 q 258 1378 216 1378 q 323 1355 300 1378 q 347 1293 347 1332 q 323 1229 347 1252 q 258 1206 300 1206 m 258 1076 l 457 1256 l 640 1256 l 640 1240 l 393 1059 l 258 1059 l 258 1076 m 363 -16 q 193 6 277 -16 q 46 69 110 28 l 99 199 q 363 126 228 126 q 500 160 454 126 q 547 259 547 194 q 513 348 547 313 q 408 401 480 382 l 297 433 q 114 533 171 468 q 57 707 57 598 q 142 921 57 844 q 381 998 228 998 q 532 981 454 998 q 680 933 610 964 l 625 803 q 378 856 487 856 q 256 825 298 856 q 214 734 214 793 q 248 645 214 680 q 354 591 282 610 l 465 560 q 648 459 591 525 q 705 285 705 393 q 615 63 705 142 q 363 -16 525 -16 z "},"Ꞌ":{"ha":463,"x_min":141,"x_max":323,"o":"m 141 1044 l 323 1044 l 298 533 l 164 533 l 141 1044 z "},"Š":{"ha":764,"x_min":46,"x_max":705,"o":"m 286 1059 l 127 1240 l 127 1256 l 250 1256 l 368 1146 l 486 1256 l 602 1256 l 602 1240 l 444 1059 l 286 1059 m 465 560 q 648 459 591 525 q 705 285 705 393 q 615 63 705 142 q 363 -16 525 -16 q 193 6 277 -16 q 46 69 110 28 l 99 199 q 363 126 228 126 q 500 160 454 126 q 547 259 547 194 q 513 348 547 313 q 408 401 480 382 l 297 433 q 114 533 171 468 q 57 707 57 598 q 142 921 57 844 q 381 998 228 998 q 532 981 454 998 q 680 933 610 964 l 625 803 q 378 856 487 856 q 256 825 298 856 q 214 734 214 793 q 248 645 214 680 q 354 591 282 610 l 465 560 z "},"Ṧ":{"ha":764,"x_min":46,"x_max":705,"o":"m 366 1252 q 300 1274 324 1252 q 277 1336 277 1297 q 300 1398 277 1375 q 366 1420 324 1420 q 431 1398 408 1420 q 454 1336 454 1375 q 431 1274 454 1295 q 366 1252 408 1252 m 286 1059 l 127 1240 l 127 1256 l 250 1256 l 368 1146 l 486 1256 l 602 1256 l 602 1240 l 444 1059 l 286 1059 m 465 560 q 648 459 591 525 q 705 285 705 393 q 615 63 705 142 q 363 -16 525 -16 q 193 6 277 -16 q 46 69 110 28 l 99 199 q 363 126 228 126 q 500 160 454 126 q 547 259 547 194 q 513 348 547 313 q 408 401 480 382 l 297 433 q 114 533 171 468 q 57 707 57 598 q 142 921 57 844 q 381 998 228 998 q 532 981 454 998 q 680 933 610 964 l 625 803 q 378 856 487 856 q 256 825 298 856 q 214 734 214 793 q 248 645 214 680 q 354 591 282 610 l 465 560 z "},"Ş":{"ha":764,"x_min":46,"x_max":705,"o":"m 705 285 q 628 76 705 155 q 411 -15 551 -3 l 369 -73 q 397 -71 388 -71 q 507 -100 468 -71 q 547 -184 547 -130 q 500 -285 547 -250 q 368 -320 453 -320 q 212 -286 279 -320 l 237 -209 q 353 -233 305 -233 q 404 -222 387 -233 q 422 -189 422 -210 q 361 -145 422 -145 q 307 -155 331 -145 l 269 -113 l 309 -14 q 167 14 235 -7 q 46 69 99 35 l 99 199 q 363 126 228 126 q 500 160 454 126 q 547 259 547 194 q 513 348 547 313 q 408 401 480 382 l 297 433 q 114 533 171 468 q 57 707 57 598 q 142 921 57 844 q 381 998 228 998 q 532 981 454 998 q 680 933 610 964 l 625 803 q 378 856 487 856 q 256 825 298 856 q 214 734 214 793 q 248 645 214 680 q 354 591 282 610 l 465 560 q 648 459 591 525 q 705 285 705 393 z "},"Ŝ":{"ha":764,"x_min":46,"x_max":705,"o":"m 245 1059 l 127 1059 l 127 1076 l 286 1256 l 444 1256 l 602 1076 l 602 1059 l 481 1059 l 362 1169 l 245 1059 m 465 560 q 648 459 591 525 q 705 285 705 393 q 615 63 705 142 q 363 -16 525 -16 q 193 6 277 -16 q 46 69 110 28 l 99 199 q 363 126 228 126 q 500 160 454 126 q 547 259 547 194 q 513 348 547 313 q 408 401 480 382 l 297 433 q 114 533 171 468 q 57 707 57 598 q 142 921 57 844 q 381 998 228 998 q 532 981 454 998 q 680 933 610 964 l 625 803 q 378 856 487 856 q 256 825 298 856 q 214 734 214 793 q 248 645 214 680 q 354 591 282 610 l 465 560 z "},"Ș":{"ha":764,"x_min":46,"x_max":705,"o":"m 363 -16 q 193 6 277 -16 q 46 69 110 28 l 99 199 q 363 126 228 126 q 500 160 454 126 q 547 259 547 194 q 513 348 547 313 q 408 401 480 382 l 297 433 q 114 533 171 468 q 57 707 57 598 q 142 921 57 844 q 381 998 228 998 q 532 981 454 998 q 680 933 610 964 l 625 803 q 378 856 487 856 q 256 825 298 856 q 214 734 214 793 q 248 645 214 680 q 354 591 282 610 l 465 560 q 648 459 591 525 q 705 285 705 393 q 615 63 705 142 q 363 -16 525 -16 m 243 -323 q 290 -248 277 -285 q 304 -157 304 -212 q 300 -96 304 -121 l 448 -96 q 453 -156 453 -129 q 417 -274 453 -220 q 301 -387 381 -328 l 243 -323 z "},"Ṡ":{"ha":764,"x_min":46,"x_max":705,"o":"m 365 1062 q 292 1088 319 1062 q 266 1157 266 1114 q 292 1228 266 1203 q 365 1253 317 1253 q 437 1227 411 1253 q 464 1158 464 1202 q 438 1087 464 1112 q 365 1062 412 1062 m 363 -16 q 193 6 277 -16 q 46 69 110 28 l 99 199 q 363 126 228 126 q 500 160 454 126 q 547 259 547 194 q 513 348 547 313 q 408 401 480 382 l 297 433 q 114 533 171 468 q 57 707 57 598 q 142 921 57 844 q 381 998 228 998 q 532 981 454 998 q 680 933 610 964 l 625 803 q 378 856 487 856 q 256 825 298 856 q 214 734 214 793 q 248 645 214 680 q 354 591 282 610 l 465 560 q 648 459 591 525 q 705 285 705 393 q 615 63 705 142 q 363 -16 525 -16 z "},"Ṣ":{"ha":764,"x_min":46,"x_max":705,"o":"m 363 -16 q 193 6 277 -16 q 46 69 110 28 l 99 199 q 363 126 228 126 q 500 160 454 126 q 547 259 547 194 q 513 348 547 313 q 408 401 480 382 l 297 433 q 114 533 171 468 q 57 707 57 598 q 142 921 57 844 q 381 998 228 998 q 532 981 454 998 q 680 933 610 964 l 625 803 q 378 856 487 856 q 256 825 298 856 q 214 734 214 793 q 248 645 214 680 q 354 591 282 610 l 465 560 q 648 459 591 525 q 705 285 705 393 q 615 63 705 142 q 363 -16 525 -16 m 376 -300 q 303 -274 330 -300 q 277 -205 277 -248 q 302 -134 277 -159 q 376 -109 328 -109 q 448 -134 422 -109 q 475 -203 475 -160 q 449 -275 475 -250 q 376 -300 423 -300 z "},"Ṩ":{"ha":764,"x_min":46,"x_max":705,"o":"m 365 1062 q 292 1088 319 1062 q 266 1157 266 1114 q 292 1228 266 1203 q 365 1253 317 1253 q 437 1227 411 1253 q 464 1158 464 1202 q 438 1087 464 1112 q 365 1062 412 1062 m 363 -16 q 193 6 277 -16 q 46 69 110 28 l 99 199 q 363 126 228 126 q 500 160 454 126 q 547 259 547 194 q 513 348 547 313 q 408 401 480 382 l 297 433 q 114 533 171 468 q 57 707 57 598 q 142 921 57 844 q 381 998 228 998 q 532 981 454 998 q 680 933 610 964 l 625 803 q 378 856 487 856 q 256 825 298 856 q 214 734 214 793 q 248 645 214 680 q 354 591 282 610 l 465 560 q 648 459 591 525 q 705 285 705 393 q 615 63 705 142 q 363 -16 525 -16 m 376 -300 q 303 -274 330 -300 q 277 -205 277 -248 q 302 -134 277 -159 q 376 -109 328 -109 q 448 -134 422 -109 q 475 -203 475 -160 q 449 -275 475 -250 q 376 -300 423 -300 z "},"ẞ":{"ha":914,"x_min":103,"x_max":869,"o":"m 597 544 q 801 454 732 524 q 869 271 869 385 q 780 64 869 138 q 529 -9 690 -9 q 345 18 423 -9 l 372 152 q 536 129 458 129 q 713 258 713 129 q 406 439 713 425 l 406 566 q 538 651 496 605 q 581 757 581 697 q 441 869 581 869 q 266 697 266 869 l 266 0 l 103 0 l 103 697 q 192 930 103 848 q 441 1013 281 1013 q 656 950 579 1013 q 732 774 732 887 q 597 544 732 625 z "},"Ꞅ":{"ha":662,"x_min":114,"x_max":639,"o":"m 509 1000 q 639 967 574 1000 l 581 818 q 465 838 517 838 q 365 802 408 838 q 277 681 321 766 l 277 -281 l 114 -281 l 114 982 l 270 982 l 270 808 q 378 952 320 905 q 509 1000 437 1000 z "},"Ꞩ":{"ha":807,"x_min":46,"x_max":749,"o":"m 749 543 l 616 503 q 696 412 670 465 q 723 285 723 359 q 633 63 723 142 q 381 -16 543 -16 q 211 6 294 -16 q 64 69 127 28 l 117 199 q 381 126 245 126 q 519 160 472 126 q 566 259 566 194 q 532 348 566 313 q 426 401 498 382 l 347 423 l 62 339 l 46 339 l 46 437 l 195 481 q 104 574 133 519 q 75 707 75 629 q 160 921 75 844 q 399 998 245 998 q 550 981 472 998 q 697 933 628 964 l 644 803 q 396 856 503 856 q 275 825 316 856 q 233 734 233 793 q 267 644 233 678 q 372 591 300 610 l 472 563 l 732 640 l 749 640 l 749 543 z "},"Ə":{"ha":933,"x_min":52,"x_max":861,"o":"m 420 998 q 749 870 636 998 q 861 490 861 742 q 758 111 861 239 q 457 -16 654 -16 q 159 108 266 -16 q 52 460 52 232 q 60 553 52 525 l 696 553 q 610 768 682 692 q 418 844 537 844 q 163 781 297 844 l 100 911 q 247 976 163 954 q 420 998 331 998 m 460 133 q 696 412 671 133 l 217 412 q 288 205 225 278 q 460 133 350 133 z "},"T":{"ha":718,"x_min":28,"x_max":689,"o":"m 689 836 l 439 836 l 439 0 l 277 0 l 277 836 l 28 836 l 28 982 l 439 982 l 689 982 l 689 836 z "},"Ŧ":{"ha":718,"x_min":28,"x_max":689,"o":"m 439 836 l 439 526 l 605 526 l 605 399 l 439 399 l 439 0 l 277 0 l 277 399 l 113 399 l 113 526 l 277 526 l 277 836 l 28 836 l 28 982 l 439 982 l 689 982 l 689 836 l 439 836 z "},"Ť":{"ha":718,"x_min":28,"x_max":689,"o":"m 279 1059 l 121 1240 l 121 1256 l 243 1256 l 361 1146 l 479 1256 l 595 1256 l 595 1240 l 437 1059 l 279 1059 m 689 836 l 439 836 l 439 0 l 277 0 l 277 836 l 28 836 l 28 982 l 439 982 l 689 982 l 689 836 z "},"Ţ":{"ha":718,"x_min":28,"x_max":689,"o":"m 403 0 l 351 -73 q 380 -71 370 -71 q 490 -100 450 -71 q 529 -184 529 -130 q 482 -285 529 -250 q 350 -320 435 -320 q 194 -286 262 -320 l 220 -209 q 335 -233 288 -233 q 387 -222 369 -233 q 404 -189 404 -210 q 343 -145 404 -145 q 289 -155 313 -145 l 251 -113 l 298 0 l 277 0 l 277 836 l 28 836 l 28 982 l 439 982 l 689 982 l 689 836 l 439 836 l 439 0 l 403 0 z "},"Ṱ":{"ha":718,"x_min":28,"x_max":689,"o":"m 689 836 l 439 836 l 439 0 l 277 0 l 277 836 l 28 836 l 28 982 l 439 982 l 689 982 l 689 836 m 597 -294 l 597 -311 l 475 -311 l 357 -201 l 239 -311 l 122 -311 l 122 -294 l 281 -114 l 438 -114 l 597 -294 z "},"Ț":{"ha":718,"x_min":28,"x_max":689,"o":"m 689 836 l 439 836 l 439 0 l 277 0 l 277 836 l 28 836 l 28 982 l 439 982 l 689 982 l 689 836 m 225 -323 q 273 -248 259 -285 q 286 -157 286 -212 q 282 -96 286 -121 l 430 -96 q 435 -156 435 -129 q 399 -274 435 -220 q 283 -387 363 -328 l 225 -323 z "},"Ⱦ":{"ha":718,"x_min":28,"x_max":689,"o":"m 571 836 l 439 540 l 439 0 l 277 0 l 277 172 l 136 -145 l 28 -145 l 277 410 l 277 836 l 28 836 l 28 982 l 439 982 l 530 982 l 581 1099 l 688 1099 l 636 982 l 689 982 l 689 836 l 571 836 m 491 836 l 439 836 l 439 723 l 491 836 z "},"Ṫ":{"ha":718,"x_min":28,"x_max":689,"o":"m 358 1062 q 286 1088 312 1062 q 259 1157 259 1114 q 285 1228 259 1203 q 358 1253 311 1253 q 431 1227 404 1253 q 457 1158 457 1202 q 431 1087 457 1112 q 358 1062 406 1062 m 689 836 l 439 836 l 439 0 l 277 0 l 277 836 l 28 836 l 28 982 l 439 982 l 689 982 l 689 836 z "},"Ṭ":{"ha":718,"x_min":28,"x_max":689,"o":"m 689 836 l 439 836 l 439 0 l 277 0 l 277 836 l 28 836 l 28 982 l 439 982 l 689 982 l 689 836 m 358 -300 q 286 -274 312 -300 q 259 -205 259 -248 q 285 -134 259 -159 q 358 -109 311 -109 q 431 -134 404 -109 q 457 -203 457 -160 q 431 -275 457 -250 q 358 -300 406 -300 z "},"Ƭ":{"ha":718,"x_min":-18,"x_max":689,"o":"m 689 836 l 439 836 l 439 0 l 277 0 l 277 836 l 216 836 q 151 814 172 836 q 129 749 129 793 q 133 688 129 728 l -12 688 q -18 747 -18 713 q 42 918 -18 857 q 210 982 102 979 l 439 982 l 689 982 l 689 836 z "},"Ꝥ":{"ha":836,"x_min":26,"x_max":784,"o":"m 463 688 q 703 618 621 688 q 784 414 784 548 q 698 201 784 277 q 456 127 612 126 l 277 127 l 277 0 l 114 0 l 114 770 l 26 770 l 26 894 l 114 894 l 114 982 l 277 982 l 277 894 l 473 894 l 473 770 l 277 770 l 277 688 l 463 688 m 463 273 q 616 410 616 273 q 456 552 616 552 l 277 552 l 277 273 l 463 273 z "},"Ꝧ":{"ha":836,"x_min":26,"x_max":784,"o":"m 277 294 l 277 212 l 473 212 l 473 88 l 277 88 l 277 0 l 114 0 l 114 88 l 26 88 l 26 212 l 114 212 l 114 982 l 277 982 l 277 854 l 463 854 q 700 780 616 854 q 784 571 784 705 q 701 365 784 435 q 456 294 617 294 l 277 294 m 277 709 l 277 430 l 463 430 q 616 568 616 430 q 456 709 616 709 l 277 709 z "},"Ꞇ":{"ha":829,"x_min":38,"x_max":800,"o":"m 385 837 q 239 469 239 703 q 526 133 239 133 q 731 180 648 133 l 787 57 q 672 3 743 23 q 518 -16 601 -16 q 188 107 305 -16 q 71 457 71 231 q 108 669 71 571 q 214 837 145 768 l 38 837 l 38 982 l 800 982 l 800 837 l 385 837 z "},"Ṯ":{"ha":718,"x_min":28,"x_max":689,"o":"m 689 836 l 439 836 l 439 0 l 277 0 l 277 836 l 28 836 l 28 982 l 439 982 l 689 982 l 689 836 m 144 -134 l 572 -134 l 572 -247 l 144 -247 l 144 -134 z "},"Ƽ":{"ha":746,"x_min":19,"x_max":688,"o":"m 350 628 q 601 534 514 614 q 688 317 688 454 q 645 141 688 217 q 523 24 602 65 q 339 -18 444 -18 q 184 5 260 -18 q 57 64 107 27 l 117 195 q 231 147 172 164 q 339 130 289 130 q 474 179 426 130 q 522 313 522 228 q 471 439 522 396 q 316 490 420 483 l 126 503 l 126 841 l 19 841 l 19 982 l 221 982 l 643 982 l 643 841 l 286 841 l 286 633 l 350 628 z "},"Ƅ":{"ha":823,"x_min":33,"x_max":803,"o":"m 467 640 q 715 556 627 640 q 803 317 803 472 q 716 83 803 165 q 472 0 629 0 l 126 0 l 126 670 l 33 755 l 33 819 l 174 982 l 289 982 l 289 712 l 289 640 l 467 640 m 464 145 q 635 320 635 145 q 475 494 635 494 l 289 494 l 289 145 l 464 145 z "},"Ƨ":{"ha":764,"x_min":58,"x_max":718,"o":"m 400 -16 q 149 63 239 -16 q 58 285 58 142 q 115 459 58 393 q 298 560 172 525 l 410 591 q 515 645 481 610 q 549 734 549 680 q 507 825 549 793 q 385 856 465 856 q 138 803 277 856 l 84 933 q 231 981 153 964 q 382 998 309 998 q 621 921 536 998 q 707 707 707 844 q 650 533 707 598 q 467 433 593 468 l 355 401 q 250 348 283 382 q 217 259 217 313 q 263 160 217 194 q 400 126 309 126 q 665 199 537 126 l 718 69 q 570 6 654 28 q 400 -16 487 -16 z "},"Ꜫ":{"ha":765,"x_min":83,"x_max":730,"o":"m 730 69 q 593 6 674 30 q 430 -18 511 -18 q 247 23 326 -18 q 125 138 168 64 q 83 308 83 212 q 153 512 83 431 q 340 608 222 593 l 114 841 l 114 982 l 707 982 l 707 841 l 290 841 l 570 545 l 507 465 q 419 476 461 476 q 294 431 339 476 q 248 308 248 387 q 296 178 248 224 q 430 132 343 132 q 547 150 484 132 q 669 202 609 168 l 730 69 z "},"Ʈ":{"ha":718,"x_min":28,"x_max":689,"o":"m 439 -72 q 454 -132 439 -113 q 502 -151 469 -151 q 571 -141 538 -151 l 594 -278 q 494 -296 547 -296 q 277 -81 277 -296 l 277 225 l 277 836 l 28 836 l 28 982 l 439 982 l 689 982 l 689 836 l 439 836 l 439 -72 z "},"Ʇ":{"ha":718,"x_min":28,"x_max":689,"o":"m 689 146 l 689 0 l 277 0 l 28 0 l 28 146 l 277 146 l 277 982 l 439 982 l 439 146 l 689 146 z "},"Ꜩ":{"ha":1112,"x_min":28,"x_max":1070,"o":"m 772 304 q 1070 18 1070 273 q 1022 -157 1070 -85 q 892 -263 974 -228 q 709 -298 810 -298 q 445 -243 549 -298 l 500 -118 q 697 -163 597 -163 q 850 -116 795 -163 q 906 20 906 -69 q 662 193 906 193 l 597 193 l 597 309 l 834 601 l 536 601 l 439 601 l 439 0 l 277 0 l 277 836 l 28 836 l 28 982 l 439 982 l 689 982 l 689 836 l 439 836 l 439 736 l 476 736 l 1017 736 l 1017 600 l 772 304 z "},"U":{"ha":932,"x_min":107,"x_max":825,"o":"m 464 -18 q 201 76 294 -18 q 107 340 107 170 l 107 982 l 270 982 l 270 350 q 465 127 270 127 q 662 350 662 127 l 662 982 l 825 982 l 825 340 q 730 76 825 170 q 464 -18 636 -18 z "},"Ú":{"ha":932,"x_min":107,"x_max":825,"o":"m 358 1076 l 557 1256 l 741 1256 l 741 1240 l 494 1059 l 358 1059 l 358 1076 m 464 -18 q 201 76 294 -18 q 107 340 107 170 l 107 982 l 270 982 l 270 350 q 465 127 270 127 q 662 350 662 127 l 662 982 l 825 982 l 825 340 q 730 76 825 170 q 464 -18 636 -18 z "},"Ʉ":{"ha":955,"x_min":12,"x_max":943,"o":"m 943 442 l 837 442 l 837 340 q 743 76 837 170 q 476 -18 648 -18 q 212 76 307 -18 q 118 340 118 170 l 118 442 l 12 442 l 12 568 l 118 568 l 118 982 l 281 982 l 281 568 l 674 568 l 674 982 l 837 982 l 837 568 l 943 568 l 943 442 m 674 442 l 281 442 l 281 350 q 476 127 281 127 q 674 350 674 127 l 674 442 z "},"Ŭ":{"ha":932,"x_min":107,"x_max":825,"o":"m 465 1059 q 313 1117 368 1059 q 254 1280 258 1175 l 350 1280 q 467 1179 365 1179 q 585 1280 571 1179 l 677 1280 q 618 1117 673 1175 q 465 1059 563 1059 m 464 -18 q 201 76 294 -18 q 107 340 107 170 l 107 982 l 270 982 l 270 350 q 465 127 270 127 q 662 350 662 127 l 662 982 l 825 982 l 825 340 q 730 76 825 170 q 464 -18 636 -18 z "},"Ǔ":{"ha":932,"x_min":107,"x_max":825,"o":"m 387 1059 l 228 1240 l 228 1256 l 350 1256 l 468 1146 l 586 1256 l 703 1256 l 703 1240 l 544 1059 l 387 1059 m 825 982 l 825 340 q 730 76 825 170 q 464 -18 636 -18 q 201 76 294 -18 q 107 340 107 170 l 107 982 l 270 982 l 270 350 q 465 127 270 127 q 662 350 662 127 l 662 982 l 825 982 z "},"Û":{"ha":932,"x_min":107,"x_max":825,"o":"m 346 1059 l 228 1059 l 228 1076 l 387 1256 l 544 1256 l 703 1076 l 703 1059 l 582 1059 l 463 1169 l 346 1059 m 825 982 l 825 340 q 730 76 825 170 q 464 -18 636 -18 q 201 76 294 -18 q 107 340 107 170 l 107 982 l 270 982 l 270 350 q 465 127 270 127 q 662 350 662 127 l 662 982 l 825 982 z "},"Ṷ":{"ha":932,"x_min":107,"x_max":825,"o":"m 464 -18 q 201 76 294 -18 q 107 340 107 170 l 107 982 l 270 982 l 270 350 q 465 127 270 127 q 662 350 662 127 l 662 982 l 825 982 l 825 340 q 730 76 825 170 q 464 -18 636 -18 m 704 -294 l 704 -311 l 582 -311 l 464 -201 l 346 -311 l 229 -311 l 229 -294 l 388 -114 l 545 -114 l 704 -294 z "},"Ȕ":{"ha":932,"x_min":107,"x_max":825,"o":"m 324 1059 l 161 1240 l 161 1256 l 317 1256 l 435 1076 l 435 1059 l 324 1059 m 552 1059 l 389 1240 l 389 1256 l 543 1256 l 661 1076 l 661 1059 l 552 1059 m 464 -18 q 201 76 294 -18 q 107 340 107 170 l 107 982 l 270 982 l 270 350 q 465 127 270 127 q 662 350 662 127 l 662 982 l 825 982 l 825 340 q 730 76 825 170 q 464 -18 636 -18 z "},"Ü":{"ha":932,"x_min":107,"x_max":825,"o":"m 328 1058 q 262 1082 286 1058 q 239 1146 239 1105 q 262 1213 239 1190 q 328 1236 286 1236 q 394 1212 370 1236 q 418 1147 418 1188 q 394 1082 418 1105 q 328 1058 370 1058 m 604 1058 q 538 1082 562 1058 q 514 1146 514 1105 q 538 1213 514 1190 q 604 1236 562 1236 q 669 1212 646 1236 q 693 1147 693 1188 q 669 1082 693 1105 q 604 1058 646 1058 m 464 -18 q 201 76 294 -18 q 107 340 107 170 l 107 982 l 270 982 l 270 350 q 465 127 270 127 q 662 350 662 127 l 662 982 l 825 982 l 825 340 q 730 76 825 170 q 464 -18 636 -18 z "},"Ǘ":{"ha":932,"x_min":107,"x_max":825,"o":"m 410 1244 l 511 1416 l 654 1416 l 654 1402 l 515 1230 l 410 1230 l 410 1244 m 338 1034 q 274 1057 297 1034 q 251 1120 251 1081 q 274 1185 251 1162 q 338 1207 297 1207 q 401 1184 378 1207 q 425 1120 425 1161 q 402 1056 425 1078 q 338 1034 380 1034 m 593 1034 q 529 1057 552 1034 q 506 1120 506 1081 q 529 1185 506 1162 q 593 1207 552 1207 q 656 1184 633 1207 q 680 1120 680 1161 q 657 1056 680 1078 q 593 1034 635 1034 m 464 -18 q 201 76 294 -18 q 107 340 107 170 l 107 982 l 270 982 l 270 350 q 465 127 270 127 q 662 350 662 127 l 662 982 l 825 982 l 825 340 q 730 76 825 170 q 464 -18 636 -18 z "},"Ṳ":{"ha":932,"x_min":107,"x_max":825,"o":"m 464 -18 q 201 76 294 -18 q 107 340 107 170 l 107 982 l 270 982 l 270 350 q 465 127 270 127 q 662 350 662 127 l 662 982 l 825 982 l 825 340 q 730 76 825 170 q 464 -18 636 -18 m 335 -297 q 269 -273 293 -297 q 245 -209 245 -250 q 269 -143 245 -167 q 335 -119 292 -119 q 401 -143 377 -119 q 425 -208 425 -167 q 401 -273 425 -250 q 335 -297 377 -297 m 595 -297 q 530 -273 553 -297 q 506 -209 506 -250 q 529 -143 506 -167 q 595 -119 552 -119 q 661 -143 637 -119 q 685 -208 685 -167 q 661 -273 685 -250 q 595 -297 637 -297 z "},"Ǚ":{"ha":932,"x_min":107,"x_max":825,"o":"m 393 1237 l 251 1404 l 251 1417 l 358 1417 l 469 1318 l 579 1417 l 682 1417 l 682 1404 l 540 1237 l 393 1237 m 338 1034 q 274 1057 297 1034 q 251 1120 251 1081 q 274 1185 251 1162 q 338 1207 297 1207 q 401 1184 378 1207 q 425 1120 425 1161 q 402 1056 425 1078 q 338 1034 380 1034 m 506 1120 q 529 1185 506 1162 q 593 1207 552 1207 q 656 1184 633 1207 q 680 1120 680 1161 q 657 1056 680 1078 q 593 1034 635 1034 q 529 1057 552 1034 q 506 1120 506 1081 m 825 982 l 825 340 q 730 76 825 170 q 464 -18 636 -18 q 201 76 294 -18 q 107 340 107 170 l 107 982 l 270 982 l 270 350 q 465 127 270 127 q 662 350 662 127 l 662 982 l 825 982 z "},"Ǜ":{"ha":932,"x_min":107,"x_max":825,"o":"m 289 1402 l 289 1416 l 431 1416 l 525 1244 l 525 1230 l 419 1230 l 289 1402 m 338 1034 q 274 1057 297 1034 q 251 1120 251 1081 q 274 1185 251 1162 q 338 1207 297 1207 q 401 1184 378 1207 q 425 1120 425 1161 q 402 1056 425 1078 q 338 1034 380 1034 m 593 1034 q 529 1057 552 1034 q 506 1120 506 1081 q 529 1185 506 1162 q 593 1207 552 1207 q 656 1184 633 1207 q 680 1120 680 1161 q 657 1056 680 1078 q 593 1034 635 1034 m 464 -18 q 201 76 294 -18 q 107 340 107 170 l 107 982 l 270 982 l 270 350 q 465 127 270 127 q 662 350 662 127 l 662 982 l 825 982 l 825 340 q 730 76 825 170 q 464 -18 636 -18 z "},"Ǖ":{"ha":932,"x_min":107,"x_max":825,"o":"m 252 1360 l 681 1360 l 681 1251 l 252 1251 l 252 1360 m 338 1034 q 274 1057 297 1034 q 251 1120 251 1081 q 274 1185 251 1162 q 338 1207 297 1207 q 401 1184 378 1207 q 425 1120 425 1161 q 402 1056 425 1078 q 338 1034 380 1034 m 593 1034 q 529 1057 552 1034 q 506 1120 506 1081 q 529 1185 506 1162 q 593 1207 552 1207 q 656 1184 633 1207 q 680 1120 680 1161 q 657 1056 680 1078 q 593 1034 635 1034 m 464 -18 q 201 76 294 -18 q 107 340 107 170 l 107 982 l 270 982 l 270 350 q 465 127 270 127 q 662 350 662 127 l 662 982 l 825 982 l 825 340 q 730 76 825 170 q 464 -18 636 -18 z "},"Ụ":{"ha":932,"x_min":107,"x_max":825,"o":"m 464 -18 q 201 76 294 -18 q 107 340 107 170 l 107 982 l 270 982 l 270 350 q 465 127 270 127 q 662 350 662 127 l 662 982 l 825 982 l 825 340 q 730 76 825 170 q 464 -18 636 -18 m 465 -300 q 393 -274 419 -300 q 366 -205 366 -248 q 392 -134 366 -159 q 465 -109 418 -109 q 538 -134 511 -109 q 564 -203 564 -160 q 538 -275 564 -250 q 465 -300 513 -300 z "},"Ù":{"ha":932,"x_min":107,"x_max":825,"o":"m 201 1240 l 201 1256 l 384 1256 l 571 1076 l 571 1059 l 435 1059 l 201 1240 m 464 -18 q 201 76 294 -18 q 107 340 107 170 l 107 982 l 270 982 l 270 350 q 465 127 270 127 q 662 350 662 127 l 662 982 l 825 982 l 825 340 q 730 76 825 170 q 464 -18 636 -18 z "},"Ủ":{"ha":932,"x_min":107,"x_max":825,"o":"m 408 1059 q 406 1089 406 1076 q 418 1128 406 1115 q 454 1152 431 1141 q 477 1164 469 1158 q 484 1179 484 1169 q 450 1198 484 1198 q 358 1169 410 1198 l 320 1249 q 395 1282 353 1271 q 481 1294 438 1294 q 585 1267 548 1294 q 621 1194 621 1241 q 604 1141 621 1158 q 556 1114 586 1124 q 529 1099 537 1105 q 521 1082 521 1093 l 524 1059 l 408 1059 m 464 -18 q 201 76 294 -18 q 107 340 107 170 l 107 982 l 270 982 l 270 350 q 465 127 270 127 q 662 350 662 127 l 662 982 l 825 982 l 825 340 q 730 76 825 170 q 464 -18 636 -18 z "},"Ư":{"ha":932,"x_min":107,"x_max":989,"o":"m 989 1090 q 951 954 989 1000 q 825 894 913 907 l 825 340 q 730 76 825 170 q 464 -18 636 -18 q 201 76 294 -18 q 107 340 107 170 l 107 982 l 270 982 l 270 350 q 465 127 270 127 q 662 350 662 127 l 662 982 l 735 982 q 825 1005 800 982 q 849 1088 849 1028 q 842 1171 849 1122 l 982 1171 q 989 1090 989 1130 z "},"Ứ":{"ha":932,"x_min":107,"x_max":989,"o":"m 494 1059 l 358 1059 l 358 1076 l 557 1256 l 741 1256 l 741 1240 l 494 1059 m 989 1090 q 951 954 989 1000 q 825 894 913 907 l 825 340 q 730 76 825 170 q 464 -18 636 -18 q 201 76 294 -18 q 107 340 107 170 l 107 982 l 270 982 l 270 350 q 465 127 270 127 q 662 350 662 127 l 662 982 l 735 982 q 825 1005 800 982 q 849 1088 849 1028 q 842 1171 849 1122 l 982 1171 q 989 1090 989 1130 z "},"Ự":{"ha":932,"x_min":107,"x_max":989,"o":"m 989 1090 q 951 954 989 1000 q 825 894 913 907 l 825 340 q 730 76 825 170 q 464 -18 636 -18 q 201 76 294 -18 q 107 340 107 170 l 107 982 l 270 982 l 270 350 q 465 127 270 127 q 662 350 662 127 l 662 982 l 735 982 q 825 1005 800 982 q 849 1088 849 1028 q 842 1171 849 1122 l 982 1171 q 989 1090 989 1130 m 465 -300 q 393 -274 419 -300 q 366 -205 366 -248 q 392 -134 366 -159 q 465 -109 418 -109 q 538 -134 511 -109 q 564 -203 564 -160 q 538 -275 564 -250 q 465 -300 513 -300 z "},"Ừ":{"ha":932,"x_min":107,"x_max":989,"o":"m 435 1059 l 201 1240 l 201 1256 l 384 1256 l 571 1076 l 571 1059 l 435 1059 m 989 1090 q 951 954 989 1000 q 825 894 913 907 l 825 340 q 730 76 825 170 q 464 -18 636 -18 q 201 76 294 -18 q 107 340 107 170 l 107 982 l 270 982 l 270 350 q 465 127 270 127 q 662 350 662 127 l 662 982 l 735 982 q 825 1005 800 982 q 849 1088 849 1028 q 842 1171 849 1122 l 982 1171 q 989 1090 989 1130 z "},"Ử":{"ha":932,"x_min":107,"x_max":989,"o":"m 450 1198 q 358 1169 410 1198 l 320 1249 q 395 1282 353 1271 q 481 1294 438 1294 q 585 1267 548 1294 q 621 1194 621 1241 q 604 1141 621 1158 q 556 1114 586 1124 q 529 1099 537 1105 q 521 1082 521 1093 l 524 1059 l 408 1059 q 406 1089 406 1076 q 418 1128 406 1115 q 454 1152 431 1141 q 477 1164 469 1158 q 484 1179 484 1169 q 450 1198 484 1198 m 989 1090 q 951 954 989 1000 q 825 894 913 907 l 825 340 q 730 76 825 170 q 464 -18 636 -18 q 201 76 294 -18 q 107 340 107 170 l 107 982 l 270 982 l 270 350 q 465 127 270 127 q 662 350 662 127 l 662 982 l 735 982 q 825 1005 800 982 q 849 1088 849 1028 q 842 1171 849 1122 l 982 1171 q 989 1090 989 1130 z "},"Ữ":{"ha":932,"x_min":107,"x_max":989,"o":"m 369 1147 q 315 1069 323 1147 l 222 1069 q 264 1212 225 1161 q 369 1263 302 1263 q 433 1250 406 1263 q 494 1214 460 1237 q 531 1190 515 1198 q 562 1183 547 1183 q 616 1260 608 1183 l 708 1260 q 667 1117 705 1168 q 562 1066 628 1066 q 499 1078 525 1066 q 437 1115 473 1090 q 401 1139 416 1131 q 369 1147 385 1147 m 989 1090 q 951 954 989 1000 q 825 894 913 907 l 825 340 q 730 76 825 170 q 464 -18 636 -18 q 201 76 294 -18 q 107 340 107 170 l 107 982 l 270 982 l 270 350 q 465 127 270 127 q 662 350 662 127 l 662 982 l 735 982 q 825 1005 800 982 q 849 1088 849 1028 q 842 1171 849 1122 l 982 1171 q 989 1090 989 1130 z "},"Ű":{"ha":932,"x_min":107,"x_max":825,"o":"m 269 1076 l 399 1256 l 552 1256 l 552 1240 l 377 1059 l 269 1059 l 269 1076 m 494 1076 l 624 1256 l 780 1256 l 780 1240 l 605 1059 l 494 1059 l 494 1076 m 464 -18 q 201 76 294 -18 q 107 340 107 170 l 107 982 l 270 982 l 270 350 q 465 127 270 127 q 662 350 662 127 l 662 982 l 825 982 l 825 340 q 730 76 825 170 q 464 -18 636 -18 z "},"Ȗ":{"ha":932,"x_min":107,"x_max":825,"o":"m 465 1294 q 618 1236 563 1294 q 677 1073 673 1179 l 581 1073 q 464 1175 567 1175 q 346 1073 361 1175 l 254 1073 q 313 1236 258 1179 q 465 1294 368 1294 m 464 -18 q 201 76 294 -18 q 107 340 107 170 l 107 982 l 270 982 l 270 350 q 465 127 270 127 q 662 350 662 127 l 662 982 l 825 982 l 825 340 q 730 76 825 170 q 464 -18 636 -18 z "},"Ū":{"ha":932,"x_min":107,"x_max":825,"o":"m 251 1207 l 680 1207 l 680 1095 l 251 1095 l 251 1207 m 464 -18 q 201 76 294 -18 q 107 340 107 170 l 107 982 l 270 982 l 270 350 q 465 127 270 127 q 662 350 662 127 l 662 982 l 825 982 l 825 340 q 730 76 825 170 q 464 -18 636 -18 z "},"Ṻ":{"ha":932,"x_min":107,"x_max":825,"o":"m 330 1244 q 267 1266 289 1244 q 244 1325 244 1289 q 267 1386 244 1364 q 330 1408 289 1408 q 393 1386 370 1408 q 415 1326 415 1364 q 393 1265 415 1287 q 330 1244 370 1244 m 593 1244 q 530 1266 552 1244 q 507 1325 507 1289 q 530 1386 507 1364 q 593 1408 552 1408 q 656 1386 633 1408 q 678 1326 678 1364 q 656 1265 678 1287 q 593 1244 633 1244 m 251 1207 l 680 1207 l 680 1095 l 251 1095 l 251 1207 m 464 -18 q 201 76 294 -18 q 107 340 107 170 l 107 982 l 270 982 l 270 350 q 465 127 270 127 q 662 350 662 127 l 662 982 l 825 982 l 825 340 q 730 76 825 170 q 464 -18 636 -18 z "},"Ų":{"ha":932,"x_min":107,"x_max":825,"o":"m 651 15 q 579 -64 605 -23 q 553 -144 553 -106 q 616 -199 553 -199 q 697 -179 655 -199 l 734 -266 q 663 -296 704 -285 q 581 -307 623 -307 q 463 -271 506 -307 q 420 -172 420 -236 q 492 -16 420 -88 q 464 -18 483 -18 q 201 76 294 -18 q 107 340 107 170 l 107 982 l 270 982 l 270 350 q 464 127 270 127 q 662 350 662 127 l 662 982 l 825 982 l 825 340 q 793 172 825 240 q 688 45 762 104 l 651 15 z "},"Ʊ":{"ha":997,"x_min":72,"x_max":925,"o":"m 498 -16 q 195 104 304 -16 q 87 438 87 225 q 256 850 87 689 l 72 850 l 72 982 l 425 982 l 425 838 q 296 669 336 762 q 255 448 255 575 q 498 127 255 127 q 742 448 742 127 q 701 669 742 575 q 572 838 661 762 l 572 982 l 925 982 l 925 850 l 741 850 q 910 438 910 689 q 802 104 910 225 q 498 -16 693 -16 z "},"Ů":{"ha":932,"x_min":107,"x_max":825,"o":"m 465 1039 q 334 1080 381 1039 q 288 1196 288 1122 q 334 1312 288 1271 q 465 1354 381 1354 q 596 1312 549 1354 q 643 1196 643 1271 q 596 1080 643 1122 q 465 1039 549 1039 m 465 1120 q 540 1196 540 1120 q 465 1272 540 1272 q 391 1196 391 1272 q 465 1120 391 1120 m 464 -18 q 201 76 294 -18 q 107 340 107 170 l 107 982 l 270 982 l 270 350 q 465 127 270 127 q 662 350 662 127 l 662 982 l 825 982 l 825 340 q 730 76 825 170 q 464 -18 636 -18 z "},"Ũ":{"ha":932,"x_min":107,"x_max":825,"o":"m 562 1066 q 499 1078 525 1066 q 437 1115 473 1090 q 401 1139 416 1131 q 369 1147 385 1147 q 315 1069 323 1147 l 222 1069 q 264 1212 225 1161 q 369 1263 302 1263 q 433 1250 406 1263 q 494 1214 460 1237 q 531 1190 515 1198 q 562 1183 547 1183 q 616 1260 608 1183 l 708 1260 q 667 1117 705 1168 q 562 1066 628 1066 m 464 -18 q 201 76 294 -18 q 107 340 107 170 l 107 982 l 270 982 l 270 350 q 465 127 270 127 q 662 350 662 127 l 662 982 l 825 982 l 825 340 q 730 76 825 170 q 464 -18 636 -18 z "},"Ṹ":{"ha":932,"x_min":107,"x_max":825,"o":"m 408 1248 l 510 1420 l 652 1420 l 652 1407 l 514 1234 l 408 1234 l 408 1248 m 548 1038 q 491 1048 513 1038 q 442 1077 469 1058 q 410 1099 423 1092 q 380 1105 397 1105 q 324 1040 331 1105 l 245 1040 q 281 1159 245 1116 q 384 1202 317 1202 q 441 1192 419 1202 q 490 1162 463 1181 q 522 1141 509 1147 q 552 1134 534 1134 q 608 1199 601 1134 l 686 1199 q 650 1080 686 1122 q 548 1038 614 1038 m 464 -18 q 201 76 294 -18 q 107 340 107 170 l 107 982 l 270 982 l 270 350 q 465 127 270 127 q 662 350 662 127 l 662 982 l 825 982 l 825 340 q 730 76 825 170 q 464 -18 636 -18 z "},"Ṵ":{"ha":932,"x_min":107,"x_max":825,"o":"m 464 -18 q 201 76 294 -18 q 107 340 107 170 l 107 982 l 270 982 l 270 350 q 465 127 270 127 q 662 350 662 127 l 662 982 l 825 982 l 825 340 q 730 76 825 170 q 464 -18 636 -18 m 562 -312 q 499 -300 525 -312 q 437 -263 473 -288 q 401 -239 416 -247 q 369 -231 385 -231 q 315 -309 323 -231 l 222 -309 q 264 -166 225 -217 q 369 -115 302 -115 q 433 -128 406 -115 q 494 -164 460 -141 q 531 -188 515 -180 q 562 -195 547 -195 q 616 -118 608 -195 l 708 -118 q 667 -261 705 -210 q 562 -312 628 -312 z "},"V":{"ha":859,"x_min":33,"x_max":826,"o":"m 826 982 l 518 0 l 340 0 l 33 982 l 205 982 l 431 172 l 655 982 l 826 982 z "},"Ỽ":{"ha":774,"x_min":72,"x_max":736,"o":"m 406 -18 q 157 86 241 -18 q 72 400 72 190 q 92 618 72 529 q 154 769 111 707 q 270 880 197 831 q 420 956 336 925 q 597 1000 505 986 l 625 868 q 369 772 454 831 q 291 693 319 738 q 252 581 263 648 q 240 404 240 513 q 407 127 240 127 q 528 171 487 127 q 568 300 568 214 q 524 427 568 385 q 373 492 479 469 l 415 636 q 659 528 582 605 q 736 309 736 450 q 649 68 736 155 q 406 -18 562 -18 z "},"Ꝡ":{"ha":1293,"x_min":33,"x_max":1261,"o":"m 1261 982 l 954 0 q 600 -298 876 -210 l 545 -163 q 701 -87 647 -126 q 774 0 754 -47 l 642 423 l 518 0 l 340 0 l 33 982 l 205 982 l 431 172 l 567 663 l 467 982 l 639 982 l 865 171 l 1090 982 l 1261 982 z "},"Ꝟ":{"ha":859,"x_min":33,"x_max":826,"o":"m 826 982 l 518 0 l 340 0 l 296 140 l 208 -145 l 99 -145 l 243 312 l 33 982 l 205 982 l 321 564 l 488 1099 l 595 1099 l 372 382 l 431 172 l 655 982 l 826 982 z "},"Ṿ":{"ha":859,"x_min":33,"x_max":826,"o":"m 826 982 l 518 0 l 340 0 l 33 982 l 205 982 l 431 172 l 655 982 l 826 982 m 430 -300 q 357 -274 384 -300 q 331 -205 331 -248 q 357 -134 331 -159 q 430 -109 382 -109 q 503 -134 476 -109 q 529 -203 529 -160 q 503 -275 529 -250 q 430 -300 477 -300 z "},"Ꝩ":{"ha":769,"x_min":114,"x_max":736,"o":"m 277 -56 l 277 -281 l 114 -281 l 114 982 l 277 982 l 277 247 l 566 982 l 736 982 l 277 -56 z "},"Ʋ":{"ha":932,"x_min":107,"x_max":825,"o":"m 825 340 q 730 76 825 170 q 464 -18 636 -18 q 201 76 294 -18 q 107 340 107 170 l 107 982 l 270 982 l 270 350 q 465 127 270 127 q 662 350 662 127 l 662 479 l 662 776 q 647 836 662 817 q 600 854 632 854 q 532 845 564 854 l 507 982 q 609 1000 555 1000 q 825 785 825 1000 l 825 340 z "},"Ṽ":{"ha":859,"x_min":33,"x_max":826,"o":"m 331 1147 q 277 1069 285 1147 l 184 1069 q 226 1212 187 1161 q 331 1263 264 1263 q 395 1250 368 1263 q 456 1214 422 1237 q 493 1190 477 1198 q 524 1183 509 1183 q 578 1260 570 1183 l 670 1260 q 629 1117 667 1168 q 524 1066 590 1066 q 461 1078 487 1066 q 399 1115 435 1090 q 363 1139 378 1131 q 331 1147 347 1147 m 826 982 l 518 0 l 340 0 l 33 982 l 205 982 l 431 172 l 655 982 l 826 982 z "},"Ʌ":{"ha":859,"x_min":33,"x_max":826,"o":"m 654 0 l 429 811 l 203 0 l 33 0 l 340 982 l 518 982 l 826 0 l 654 0 z "},"W":{"ha":1217,"x_min":35,"x_max":1181,"o":"m 1181 982 l 943 0 l 765 0 l 606 757 l 450 0 l 273 0 l 35 982 l 203 982 l 363 190 l 521 981 l 696 981 l 856 190 l 1015 982 l 1181 982 z "},"Ẃ":{"ha":1217,"x_min":35,"x_max":1181,"o":"m 635 1059 l 499 1059 l 499 1076 l 699 1256 l 882 1256 l 882 1240 l 635 1059 m 1181 982 l 943 0 l 765 0 l 606 757 l 450 0 l 273 0 l 35 982 l 203 982 l 363 190 l 521 981 l 696 981 l 856 190 l 1015 982 l 1181 982 z "},"Ŵ":{"ha":1217,"x_min":35,"x_max":1181,"o":"m 487 1059 l 369 1059 l 369 1076 l 528 1256 l 685 1256 l 844 1076 l 844 1059 l 723 1059 l 604 1169 l 487 1059 m 1181 982 l 943 0 l 765 0 l 606 757 l 450 0 l 273 0 l 35 982 l 203 982 l 363 190 l 521 981 l 696 981 l 856 190 l 1015 982 l 1181 982 z "},"Ẅ":{"ha":1217,"x_min":35,"x_max":1181,"o":"m 469 1058 q 404 1082 427 1058 q 380 1146 380 1105 q 404 1213 380 1190 q 469 1236 427 1236 q 535 1212 511 1236 q 559 1147 559 1188 q 535 1082 559 1105 q 469 1058 511 1058 m 745 1058 q 679 1082 703 1058 q 655 1146 655 1105 q 679 1213 655 1190 q 745 1236 703 1236 q 810 1212 787 1236 q 834 1147 834 1188 q 810 1082 834 1105 q 745 1058 787 1058 m 1181 982 l 943 0 l 765 0 l 606 757 l 450 0 l 273 0 l 35 982 l 203 982 l 363 190 l 521 981 l 696 981 l 856 190 l 1015 982 l 1181 982 z "},"Ẇ":{"ha":1217,"x_min":35,"x_max":1181,"o":"m 606 1062 q 534 1088 560 1062 q 507 1157 507 1114 q 533 1228 507 1203 q 606 1253 559 1253 q 679 1227 652 1253 q 705 1158 705 1202 q 680 1087 705 1112 q 606 1062 654 1062 m 1181 982 l 943 0 l 765 0 l 606 757 l 450 0 l 273 0 l 35 982 l 203 982 l 363 190 l 521 981 l 696 981 l 856 190 l 1015 982 l 1181 982 z "},"Ẉ":{"ha":1217,"x_min":35,"x_max":1181,"o":"m 1181 982 l 943 0 l 765 0 l 606 757 l 450 0 l 273 0 l 35 982 l 203 982 l 363 190 l 521 981 l 696 981 l 856 190 l 1015 982 l 1181 982 m 609 -300 q 536 -274 563 -300 q 510 -205 510 -248 q 536 -134 510 -159 q 609 -109 562 -109 q 682 -134 655 -109 q 708 -203 708 -160 q 682 -275 708 -250 q 609 -300 656 -300 z "},"Ẁ":{"ha":1217,"x_min":35,"x_max":1181,"o":"m 576 1059 l 342 1240 l 342 1256 l 525 1256 l 712 1076 l 712 1059 l 576 1059 m 1181 982 l 943 0 l 765 0 l 606 757 l 450 0 l 273 0 l 35 982 l 203 982 l 363 190 l 521 981 l 696 981 l 856 190 l 1015 982 l 1181 982 z "},"Ⱳ":{"ha":1333,"x_min":35,"x_max":1367,"o":"m 1185 1006 q 1367 799 1351 1006 l 1234 774 q 1185 856 1225 856 q 1155 836 1168 856 q 1130 769 1142 817 l 943 0 l 765 0 l 606 757 l 450 0 l 273 0 l 35 982 l 203 982 l 363 190 l 521 981 l 696 981 l 856 190 l 979 806 q 1185 1006 1020 1006 z "},"Ƿ":{"ha":784,"x_min":114,"x_max":764,"o":"m 502 1000 q 695 917 627 1000 q 764 684 764 834 q 732 514 764 587 q 631 372 701 441 q 437 218 562 302 l 277 110 l 277 -281 l 114 -281 l 114 982 l 270 982 l 270 890 q 374 971 315 943 q 502 1000 433 1000 m 410 377 q 556 515 517 452 q 595 667 595 578 q 456 850 595 850 q 277 765 362 850 l 277 286 l 410 377 z "},"X":{"ha":826,"x_min":28,"x_max":798,"o":"m 613 0 l 410 363 l 210 0 l 28 0 l 323 498 l 39 982 l 222 982 l 416 632 l 613 982 l 795 982 l 503 499 l 798 0 l 613 0 z "},"Ẍ":{"ha":826,"x_min":28,"x_max":798,"o":"m 275 1058 q 210 1082 233 1058 q 186 1146 186 1105 q 210 1213 186 1190 q 275 1236 233 1236 q 341 1212 317 1236 q 365 1147 365 1188 q 341 1082 365 1105 q 275 1058 317 1058 m 551 1058 q 485 1082 509 1058 q 461 1146 461 1105 q 485 1213 461 1190 q 551 1236 509 1236 q 616 1212 593 1236 q 640 1147 640 1188 q 616 1082 640 1105 q 551 1058 593 1058 m 613 0 l 410 363 l 210 0 l 28 0 l 323 498 l 39 982 l 222 982 l 416 632 l 613 982 l 795 982 l 503 499 l 798 0 l 613 0 z "},"Ẋ":{"ha":826,"x_min":28,"x_max":798,"o":"m 412 1062 q 340 1088 366 1062 q 313 1157 313 1114 q 339 1228 313 1203 q 412 1253 365 1253 q 485 1227 458 1253 q 511 1158 511 1202 q 486 1087 511 1112 q 412 1062 460 1062 m 613 0 l 410 363 l 210 0 l 28 0 l 323 498 l 39 982 l 222 982 l 416 632 l 613 982 l 795 982 l 503 499 l 798 0 l 613 0 z "},"Y":{"ha":799,"x_min":22,"x_max":777,"o":"m 777 982 l 479 332 l 479 0 l 316 0 l 316 332 l 22 982 l 197 982 l 401 510 l 604 982 l 777 982 z "},"Ý":{"ha":799,"x_min":22,"x_max":777,"o":"m 426 1059 l 290 1059 l 290 1076 l 490 1256 l 673 1256 l 673 1240 l 426 1059 m 777 982 l 479 332 l 479 0 l 316 0 l 316 332 l 22 982 l 197 982 l 401 510 l 604 982 l 777 982 z "},"Ŷ":{"ha":799,"x_min":22,"x_max":777,"o":"m 278 1059 l 160 1059 l 160 1076 l 319 1256 l 476 1256 l 635 1076 l 635 1059 l 514 1059 l 395 1169 l 278 1059 m 777 982 l 479 332 l 479 0 l 316 0 l 316 332 l 22 982 l 197 982 l 401 510 l 604 982 l 777 982 z "},"Ÿ":{"ha":799,"x_min":22,"x_max":777,"o":"m 260 1058 q 195 1082 218 1058 q 171 1146 171 1105 q 195 1213 171 1190 q 260 1236 218 1236 q 326 1212 302 1236 q 350 1147 350 1188 q 326 1082 350 1105 q 260 1058 302 1058 m 536 1058 q 470 1082 494 1058 q 446 1146 446 1105 q 470 1213 446 1190 q 536 1236 494 1236 q 602 1212 578 1236 q 625 1147 625 1188 q 602 1082 625 1105 q 536 1058 578 1058 m 777 982 l 479 332 l 479 0 l 316 0 l 316 332 l 22 982 l 197 982 l 401 510 l 604 982 l 777 982 z "},"Ẏ":{"ha":799,"x_min":22,"x_max":777,"o":"m 397 1062 q 325 1088 351 1062 q 298 1157 298 1114 q 324 1228 298 1203 q 397 1253 350 1253 q 470 1227 444 1253 q 496 1158 496 1202 q 471 1087 496 1112 q 397 1062 445 1062 m 777 982 l 479 332 l 479 0 l 316 0 l 316 332 l 22 982 l 197 982 l 401 510 l 604 982 l 777 982 z "},"Ỵ":{"ha":799,"x_min":22,"x_max":777,"o":"m 777 982 l 479 332 l 479 0 l 316 0 l 316 332 l 22 982 l 197 982 l 401 510 l 604 982 l 777 982 m 397 -300 q 325 -274 351 -300 q 298 -205 298 -248 q 324 -134 298 -159 q 397 -109 350 -109 q 470 -134 444 -109 q 496 -203 496 -160 q 471 -275 496 -250 q 397 -300 445 -300 z "},"Ỳ":{"ha":799,"x_min":22,"x_max":777,"o":"m 368 1059 l 133 1240 l 133 1256 l 316 1256 l 503 1076 l 503 1059 l 368 1059 m 777 982 l 479 332 l 479 0 l 316 0 l 316 332 l 22 982 l 197 982 l 401 510 l 604 982 l 777 982 z "},"Ƴ":{"ha":886,"x_min":22,"x_max":932,"o":"m 751 1006 q 880 954 834 1006 q 932 799 925 902 l 800 774 q 783 836 795 817 q 751 856 770 856 q 720 842 734 856 q 693 796 707 829 l 479 332 l 479 0 l 316 0 l 316 332 l 22 982 l 197 982 l 401 510 l 543 837 q 630 966 581 925 q 751 1006 680 1006 z "},"Ỷ":{"ha":799,"x_min":22,"x_max":777,"o":"m 382 1198 q 290 1169 342 1198 l 252 1249 q 328 1282 285 1271 q 414 1294 370 1294 q 517 1267 480 1294 q 553 1194 553 1241 q 536 1141 553 1158 q 488 1114 518 1124 q 461 1099 469 1105 q 453 1082 453 1093 l 456 1059 l 340 1059 q 338 1089 338 1076 q 351 1128 338 1115 q 387 1152 363 1141 q 409 1164 401 1158 q 416 1179 416 1169 q 382 1198 416 1198 m 777 982 l 479 332 l 479 0 l 316 0 l 316 332 l 22 982 l 197 982 l 401 510 l 604 982 l 777 982 z "},"Ỿ":{"ha":840,"x_min":33,"x_max":875,"o":"m 875 982 l 488 184 q 370 22 434 72 q 216 -27 307 -27 q 81 16 129 -27 q 33 137 33 58 q 115 303 33 239 q 354 391 198 368 l 54 982 l 228 982 l 472 468 l 703 982 l 875 982 m 227 109 q 281 129 256 109 q 328 193 305 149 l 369 273 q 225 231 271 259 q 179 157 179 202 q 227 109 179 109 z "},"Ȳ":{"ha":799,"x_min":22,"x_max":777,"o":"m 612 1095 l 183 1095 l 183 1207 l 612 1207 l 612 1095 m 777 982 l 479 332 l 479 0 l 316 0 l 316 332 l 22 982 l 197 982 l 401 510 l 604 982 l 777 982 z "},"Ȝ":{"ha":708,"x_min":15,"x_max":662,"o":"m 483 529 q 616 420 570 488 q 662 260 662 353 q 593 63 662 144 q 387 -70 524 -18 q 39 -156 251 -122 l 15 -18 q 289 47 186 11 q 443 136 392 83 q 494 267 494 189 q 362 453 494 396 q 155 366 281 411 l 110 491 q 307 578 235 537 q 408 659 378 618 q 438 747 438 699 q 401 829 438 802 q 297 857 365 857 q 187 843 240 857 q 77 799 134 829 l 22 930 q 161 981 85 963 q 316 1000 237 1000 q 528 939 452 1000 q 605 765 605 878 q 576 638 605 696 q 483 529 547 581 z "},"Ʀ":{"ha":823,"x_min":114,"x_max":922,"o":"m 446 293 l 277 293 l 277 0 l 114 0 l 114 982 l 277 982 l 277 872 l 456 872 q 688 795 605 872 q 770 583 770 719 q 729 421 770 488 q 610 321 688 354 l 922 -149 l 723 -149 l 446 293 m 277 433 l 456 433 q 602 579 602 433 q 450 728 602 728 l 277 728 l 277 433 z "},"Ɏ":{"ha":799,"x_min":22,"x_max":777,"o":"m 704 822 l 776 822 l 776 699 l 647 699 l 479 332 l 479 0 l 316 0 l 316 332 l 151 699 l 22 699 l 22 822 l 95 822 l 22 982 l 197 982 l 266 822 l 534 822 l 604 982 l 777 982 l 704 822 m 481 699 l 319 699 l 401 510 l 481 699 z "},"Ỹ":{"ha":799,"x_min":22,"x_max":777,"o":"m 301 1147 q 247 1069 255 1147 l 155 1069 q 196 1212 157 1161 q 301 1263 235 1263 q 365 1250 338 1263 q 426 1214 392 1237 q 463 1190 448 1198 q 494 1183 479 1183 q 548 1260 540 1183 l 640 1260 q 599 1117 637 1168 q 494 1066 560 1066 q 431 1078 457 1066 q 369 1115 406 1090 q 333 1139 349 1131 q 301 1147 317 1147 m 777 982 l 479 332 l 479 0 l 316 0 l 316 332 l 22 982 l 197 982 l 401 510 l 604 982 l 777 982 z "},"Z":{"ha":751,"x_min":50,"x_max":699,"o":"m 699 144 l 699 0 l 50 0 l 50 145 l 507 838 l 68 838 l 68 982 l 692 982 l 692 838 l 233 144 l 699 144 z "},"Ź":{"ha":751,"x_min":50,"x_max":699,"o":"m 401 1059 l 266 1059 l 266 1076 l 465 1256 l 648 1256 l 648 1240 l 401 1059 m 699 144 l 699 0 l 50 0 l 50 145 l 507 838 l 68 838 l 68 982 l 692 982 l 692 838 l 233 144 l 699 144 z "},"Ž":{"ha":751,"x_min":50,"x_max":699,"o":"m 294 1059 l 136 1240 l 136 1256 l 258 1256 l 376 1146 l 494 1256 l 610 1256 l 610 1240 l 452 1059 l 294 1059 m 699 144 l 699 0 l 50 0 l 50 145 l 507 838 l 68 838 l 68 982 l 692 982 l 692 838 l 233 144 l 699 144 z "},"Ẑ":{"ha":751,"x_min":50,"x_max":699,"o":"m 254 1059 l 136 1059 l 136 1076 l 294 1256 l 452 1256 l 610 1076 l 610 1059 l 490 1059 l 370 1169 l 254 1059 m 699 144 l 699 0 l 50 0 l 50 145 l 507 838 l 68 838 l 68 982 l 692 982 l 692 838 l 233 144 l 699 144 z "},"Ⱬ":{"ha":751,"x_min":50,"x_max":699,"o":"m 699 144 l 699 0 l 699 -208 l 576 -208 l 549 0 l 50 0 l 50 145 l 507 838 l 68 838 l 68 982 l 692 982 l 692 838 l 233 144 l 699 144 z "},"Ż":{"ha":751,"x_min":50,"x_max":699,"o":"m 373 1062 q 300 1088 327 1062 q 274 1157 274 1114 q 300 1228 274 1203 q 373 1253 326 1253 q 446 1227 419 1253 q 472 1158 472 1202 q 446 1087 472 1112 q 373 1062 420 1062 m 699 144 l 699 0 l 50 0 l 50 145 l 507 838 l 68 838 l 68 982 l 692 982 l 692 838 l 233 144 l 699 144 z "},"Ẓ":{"ha":751,"x_min":50,"x_max":699,"o":"m 699 144 l 699 0 l 50 0 l 50 145 l 507 838 l 68 838 l 68 982 l 692 982 l 692 838 l 233 144 l 699 144 m 378 -300 q 306 -274 332 -300 q 279 -205 279 -248 q 305 -134 279 -159 q 378 -109 331 -109 q 451 -134 425 -109 q 477 -203 477 -160 q 452 -275 477 -250 q 378 -300 426 -300 z "},"Ȥ":{"ha":751,"x_min":50,"x_max":723,"o":"m 490 144 q 662 81 601 142 q 723 -91 723 20 q 718 -151 723 -125 l 572 -151 q 576 -90 576 -110 q 490 0 576 0 l 464 0 l 50 0 l 50 145 l 507 838 l 68 838 l 68 982 l 692 982 l 692 838 l 233 144 l 490 144 z "},"Ẕ":{"ha":751,"x_min":50,"x_max":699,"o":"m 699 144 l 699 0 l 50 0 l 50 145 l 507 838 l 68 838 l 68 982 l 692 982 l 692 838 l 233 144 l 699 144 m 164 -134 l 593 -134 l 593 -247 l 164 -247 l 164 -134 z "},"Ƶ":{"ha":751,"x_min":50,"x_max":699,"o":"m 699 144 l 699 0 l 50 0 l 50 145 l 252 452 l 106 452 l 106 575 l 334 575 l 507 838 l 68 838 l 68 982 l 692 982 l 692 838 l 518 575 l 643 575 l 643 452 l 437 452 l 233 144 l 699 144 z "},"Ꜣ":{"ha":431,"x_min":62,"x_max":396,"o":"m 80 982 l 174 982 q 338 932 279 982 q 396 792 396 883 q 330 634 396 701 q 117 513 263 567 l 68 604 q 213 690 171 651 q 255 777 255 730 q 151 854 255 854 l 62 854 l 80 982 m 80 465 l 174 465 q 338 415 279 465 q 396 275 396 365 q 330 116 396 183 q 117 -5 263 49 l 68 87 q 212 172 170 133 q 255 259 255 212 q 151 338 255 338 l 62 338 l 80 465 z "},"Ꜥ":{"ha":431,"x_min":35,"x_max":369,"o":"m 281 854 q 176 777 176 854 q 218 690 176 730 q 363 604 260 651 l 315 513 q 102 634 168 567 q 35 792 35 701 q 94 932 35 883 q 258 982 152 982 l 351 982 l 369 854 l 281 854 z "},"ᴁ":{"ha":1059,"x_min":-12,"x_max":1019,"o":"m 1019 142 l 1019 0 l 505 0 l 505 136 l 232 136 l 157 0 l -12 0 l 404 736 l 563 736 l 1002 736 l 1002 593 l 661 593 l 661 448 l 907 448 l 907 304 l 661 304 l 661 142 l 1019 142 m 505 275 l 505 631 l 309 275 l 505 275 z "},"ᴀ":{"ha":769,"x_min":22,"x_max":747,"o":"m 532 145 l 236 145 l 189 0 l 22 0 l 297 736 l 471 736 l 747 0 l 579 0 l 532 145 m 486 283 l 382 598 l 281 283 l 486 283 z "},"ᴃ":{"ha":743,"x_min":15,"x_max":741,"o":"m 741 326 l 659 326 q 692 225 692 285 q 621 59 692 118 q 420 0 549 0 l 174 0 l 87 0 l 87 320 l 15 320 l 15 431 l 87 431 l 87 736 l 245 736 l 384 736 q 577 681 509 736 q 646 522 646 625 q 613 430 646 465 l 741 430 l 741 326 m 245 594 l 245 444 l 384 444 q 483 518 483 444 q 376 594 483 594 l 245 594 m 429 141 q 528 222 528 141 q 420 308 528 308 l 245 308 l 245 141 l 429 141 z "},"ʙ":{"ha":765,"x_min":109,"x_max":712,"o":"m 574 389 q 712 225 712 347 q 642 59 712 118 q 442 0 571 0 l 195 0 l 109 0 l 109 736 l 267 736 l 404 736 q 597 681 529 736 q 666 522 666 625 q 574 389 666 426 m 267 594 l 267 444 l 404 444 q 503 518 503 444 q 477 576 503 557 q 396 594 450 594 l 267 594 m 450 141 q 549 222 549 141 q 442 308 549 308 l 267 308 l 267 141 l 450 141 z "},"ᴄ":{"ha":700,"x_min":53,"x_max":665,"o":"m 431 -12 q 152 83 251 -12 q 53 353 53 178 q 153 643 53 537 q 426 749 252 749 q 551 732 490 749 q 658 686 612 716 l 602 566 q 423 606 515 606 q 271 543 324 606 q 217 363 217 480 q 438 133 217 133 q 609 168 543 133 l 665 50 q 565 4 627 20 q 431 -12 503 -12 z "},"ᴅ":{"ha":817,"x_min":109,"x_max":751,"o":"m 382 736 q 657 644 563 736 q 751 369 751 552 q 657 92 751 184 q 382 0 563 0 l 109 0 l 109 736 l 382 736 m 378 142 q 587 369 587 142 q 536 537 587 481 q 380 593 484 593 l 269 593 l 269 142 l 378 142 z "},"ᴇ":{"ha":684,"x_min":109,"x_max":642,"o":"m 642 142 l 642 0 l 109 0 l 109 736 l 627 736 l 627 593 l 269 593 l 269 448 l 532 448 l 532 304 l 269 304 l 269 142 l 642 142 z "},"ᴆ":{"ha":798,"x_min":15,"x_max":730,"o":"m 361 736 q 635 644 541 736 q 730 369 730 552 q 635 92 730 184 q 361 0 541 0 l 87 0 l 87 313 l 15 313 l 15 431 l 87 431 l 87 736 l 361 736 m 357 142 q 566 369 566 142 q 514 537 566 481 q 358 593 463 593 l 247 593 l 247 431 l 418 431 l 418 313 l 247 313 l 247 142 l 357 142 z "},"ᴣ":{"ha":688,"x_min":11,"x_max":637,"o":"m 381 450 q 569 387 500 437 q 637 235 637 336 q 538 50 637 113 q 289 -14 438 -14 q 11 43 130 -14 l 66 171 q 286 129 178 129 q 423 158 373 129 q 473 237 473 187 q 414 317 473 297 q 233 338 355 338 l 184 338 l 184 452 l 389 597 l 50 597 l 50 736 l 585 736 l 585 591 l 381 450 z "},"ꜰ":{"ha":635,"x_min":109,"x_max":617,"o":"m 269 593 l 269 425 l 552 425 l 552 281 l 269 281 l 269 0 l 109 0 l 109 736 l 617 736 l 617 593 l 269 593 z "},"ɢ":{"ha":784,"x_min":66,"x_max":704,"o":"m 704 433 l 704 47 q 590 3 656 19 q 453 -14 524 -14 q 168 86 269 -14 q 66 368 66 186 q 168 649 66 549 q 453 749 269 749 q 588 732 525 749 q 696 688 651 716 l 650 560 q 450 608 543 608 q 231 368 231 608 q 453 129 231 129 q 544 138 494 129 l 544 292 l 410 292 l 410 433 l 704 433 z "},"ʛ":{"ha":911,"x_min":66,"x_max":856,"o":"m 796 925 q 856 921 827 925 l 856 789 q 795 793 815 793 q 696 692 696 793 l 696 667 l 696 560 l 650 560 q 450 608 543 608 q 231 368 231 608 q 453 129 231 129 q 544 138 494 129 l 544 292 l 410 292 l 410 433 l 704 433 l 704 47 q 590 3 656 19 q 453 -14 524 -14 q 168 86 269 -14 q 66 368 66 186 q 168 649 66 549 q 453 749 269 749 q 564 738 519 749 q 637 876 578 827 q 796 925 697 925 z "},"ʜ":{"ha":838,"x_min":109,"x_max":731,"o":"m 731 736 l 731 0 l 571 0 l 571 302 l 269 302 l 269 0 l 109 0 l 109 736 l 269 736 l 269 444 l 571 444 l 571 736 l 731 736 z "},"ɪ":{"ha":381,"x_min":111,"x_max":271,"o":"m 111 736 l 271 736 l 271 0 l 111 0 l 111 736 z "},"ᴊ":{"ha":555,"x_min":-1,"x_max":453,"o":"m 203 -14 q 89 2 142 -14 q -1 47 35 18 l 54 168 q 195 130 134 130 q 293 206 293 130 l 293 736 l 453 736 l 453 191 q 388 40 453 94 q 203 -14 323 -14 z "},"ᴋ":{"ha":742,"x_min":109,"x_max":760,"o":"m 358 302 l 269 201 l 269 0 l 109 0 l 109 736 l 269 736 l 269 397 l 552 736 l 741 736 l 461 419 l 760 0 l 570 0 l 358 302 z "},"ʟ":{"ha":621,"x_min":106,"x_max":594,"o":"m 594 142 l 594 0 l 106 0 l 106 736 l 266 736 l 266 142 l 594 142 z "},"ᴌ":{"ha":624,"x_min":41,"x_max":594,"o":"m 594 142 l 594 0 l 106 0 l 106 245 l 52 216 l 41 216 l 41 339 l 106 372 l 106 736 l 266 736 l 266 452 l 469 557 l 480 557 l 480 435 l 266 328 l 266 142 l 594 142 z "},"ᴍ":{"ha":1010,"x_min":109,"x_max":902,"o":"m 902 736 l 902 0 l 746 0 l 746 488 l 587 140 l 420 140 l 260 487 l 260 0 l 109 0 l 109 736 l 301 736 l 506 277 l 707 736 l 902 736 z "},"ꟺ":{"ha":1043,"x_min":109,"x_max":935,"o":"m 935 724 l 935 0 l 109 0 l 109 724 l 269 724 l 269 145 l 441 145 l 441 724 l 601 724 l 601 145 l 774 145 l 774 724 l 935 724 z "},"ᴎ":{"ha":864,"x_min":109,"x_max":755,"o":"m 755 736 l 755 0 l 598 0 l 598 468 l 263 0 l 109 0 l 109 736 l 266 736 l 266 270 l 601 736 l 755 736 z "},"ɴ":{"ha":863,"x_min":109,"x_max":755,"o":"m 755 736 l 755 0 l 601 0 l 266 468 l 266 0 l 109 0 l 109 736 l 263 736 l 598 270 l 598 736 l 755 736 z "},"ɶ":{"ha":1111,"x_min":66,"x_max":1070,"o":"m 1070 142 l 1070 0 l 556 0 l 418 0 q 156 92 245 0 q 66 368 66 184 q 157 644 66 551 q 418 736 247 736 l 601 736 l 1054 736 l 1054 593 l 712 593 l 712 448 l 959 448 l 959 304 l 712 304 l 712 142 l 1070 142 m 556 142 l 556 593 l 418 593 q 277 537 324 593 q 231 368 231 481 q 418 142 231 142 l 556 142 z "},"ᴕ":{"ha":758,"x_min":56,"x_max":703,"o":"m 557 381 q 665 308 627 357 q 703 193 703 259 q 618 40 703 94 q 378 -14 533 -14 q 140 40 225 -14 q 56 193 56 94 q 93 308 56 259 q 199 381 130 357 q 106 448 138 404 q 73 549 73 491 q 125 675 73 624 q 273 749 178 727 l 321 629 q 233 533 233 600 q 380 445 233 445 q 489 467 453 445 q 525 532 525 490 q 434 629 525 598 l 484 749 q 631 675 579 727 q 684 549 684 624 q 651 448 684 491 q 557 381 618 404 m 378 123 q 541 217 541 123 q 500 290 541 264 q 378 315 460 315 q 256 289 297 315 q 216 217 216 263 q 378 123 216 123 z "},"ᴐ":{"ha":701,"x_min":35,"x_max":648,"o":"m 269 749 q 549 654 449 749 q 648 384 648 559 q 603 172 648 262 q 473 35 557 83 q 274 -12 389 -12 q 149 4 210 -12 q 42 50 88 20 l 98 171 q 277 130 186 130 q 430 194 376 130 q 484 373 484 258 q 428 546 484 488 q 262 604 372 604 q 91 568 157 604 l 35 686 q 135 732 73 716 q 269 749 197 749 z "},"ᴏ":{"ha":836,"x_min":66,"x_max":769,"o":"m 418 -14 q 156 82 245 -14 q 66 368 66 178 q 156 654 66 559 q 418 749 245 749 q 679 654 589 749 q 769 368 769 559 q 679 82 769 178 q 418 -14 589 -14 m 418 129 q 605 368 605 129 q 558 547 605 488 q 418 606 511 606 q 277 547 324 606 q 231 368 231 488 q 418 129 231 129 z "},"ᴘ":{"ha":703,"x_min":109,"x_max":688,"o":"m 414 736 q 616 669 545 736 q 688 479 688 602 q 614 287 688 355 q 406 218 540 218 l 269 218 l 269 0 l 109 0 l 109 736 l 269 736 l 414 736 m 414 361 q 496 389 469 361 q 524 473 524 416 q 494 564 524 534 q 406 593 465 593 l 269 593 l 269 361 l 414 361 z "},"ᴙ":{"ha":750,"x_min":22,"x_max":642,"o":"m 642 0 l 481 0 l 481 244 l 384 244 l 213 0 l 22 0 l 224 264 q 113 349 152 290 q 75 491 75 407 q 145 672 75 608 q 347 736 216 736 l 642 736 l 642 0 m 481 380 l 481 597 l 351 597 q 239 488 239 597 q 347 380 239 380 l 481 380 z "},"ʀ":{"ha":750,"x_min":109,"x_max":728,"o":"m 365 244 l 269 244 l 269 0 l 109 0 l 109 736 l 269 736 l 403 736 q 605 672 534 736 q 675 491 675 608 q 637 348 675 406 q 526 264 598 290 l 728 0 l 537 0 l 365 244 m 269 380 l 403 380 q 511 488 511 380 q 399 597 511 597 l 269 597 l 269 380 z "},"ʁ":{"ha":750,"x_min":109,"x_max":728,"o":"m 526 472 q 637 388 598 446 q 675 245 675 330 q 605 64 675 129 q 403 0 534 0 l 240 0 l 109 0 l 109 736 l 269 736 l 269 492 l 366 492 l 537 736 l 728 736 l 526 472 m 399 140 q 511 248 511 140 q 403 357 511 357 l 269 357 l 269 140 l 399 140 z "},"ꜱ":{"ha":658,"x_min":41,"x_max":604,"o":"m 312 -12 q 166 6 237 -12 q 41 57 95 24 l 91 180 q 312 125 198 125 q 416 143 382 125 q 450 199 450 161 q 425 251 450 231 q 342 286 399 271 l 250 309 q 97 384 144 335 q 50 517 50 433 q 122 688 50 628 q 327 747 194 747 q 456 734 389 747 q 583 694 522 720 l 530 572 q 324 612 410 612 q 233 595 263 612 q 203 544 203 579 q 229 493 203 513 q 312 458 254 473 l 406 435 q 557 360 511 410 q 604 227 604 311 q 528 50 604 111 q 312 -12 452 -12 z "},"ᴛ":{"ha":610,"x_min":23,"x_max":587,"o":"m 587 591 l 385 591 l 385 0 l 225 0 l 225 591 l 23 591 l 23 736 l 385 736 l 587 736 l 587 591 z "},"ᴚ":{"ha":750,"x_min":22,"x_max":642,"o":"m 642 736 l 642 0 l 481 0 l 347 0 q 145 64 216 0 q 75 245 75 129 q 113 388 75 330 q 224 472 152 446 l 22 736 l 213 736 l 384 492 l 481 492 l 481 736 l 642 736 m 481 140 l 481 357 l 347 357 q 239 248 239 357 q 351 140 239 140 l 481 140 z "},"ⱻ":{"ha":684,"x_min":42,"x_max":575,"o":"m 575 736 l 575 0 l 57 0 l 57 144 l 415 144 l 415 289 l 152 289 l 152 433 l 415 433 l 415 594 l 42 594 l 42 736 l 575 736 z "},"ᴜ":{"ha":818,"x_min":102,"x_max":718,"o":"m 407 -14 q 181 55 260 -14 q 102 251 102 123 l 102 736 l 262 736 l 262 263 q 408 129 262 129 q 521 162 484 129 q 557 263 557 195 l 557 736 l 718 736 l 718 251 q 637 55 718 123 q 407 -14 556 -14 z "},"ᴠ":{"ha":730,"x_min":27,"x_max":703,"o":"m 703 736 l 452 0 l 278 0 l 27 736 l 195 736 l 366 152 l 536 736 l 703 736 z "},"ᴡ":{"ha":1029,"x_min":30,"x_max":1000,"o":"m 1000 736 l 806 0 l 633 0 l 513 541 l 396 0 l 222 0 l 30 736 l 194 736 l 311 168 l 429 735 l 601 735 l 720 171 l 837 736 l 1000 736 z "},"ʏ":{"ha":677,"x_min":16,"x_max":661,"o":"m 661 736 l 416 237 l 416 0 l 256 0 l 256 237 l 16 736 l 187 736 l 340 400 l 492 736 l 661 736 z "},"ᴢ":{"ha":644,"x_min":45,"x_max":597,"o":"m 597 141 l 597 0 l 45 0 l 45 141 l 404 595 l 60 595 l 60 736 l 590 736 l 590 595 l 231 141 l 597 141 z "},"a":{"ha":724,"x_min":42,"x_max":628,"o":"m 349 754 q 554 692 480 754 q 628 514 628 629 l 628 0 l 484 0 l 484 103 q 266 -15 415 -15 q 100 43 159 -15 q 42 206 42 102 q 144 399 42 338 q 469 463 247 461 l 469 496 q 321 610 469 610 q 149 572 235 610 l 109 697 q 349 754 227 754 m 305 122 q 469 198 401 122 l 469 353 q 262 318 327 350 q 197 218 197 286 q 305 122 197 122 z "},"ꜳ":{"ha":1118,"x_min":42,"x_max":1021,"o":"m 745 754 q 949 691 876 754 q 1021 514 1021 628 l 1021 0 l 878 0 l 878 77 q 665 -15 789 -15 q 483 81 532 -15 q 380 8 434 31 q 260 -15 326 -15 q 100 42 157 -15 q 42 202 42 99 q 142 391 42 331 q 460 453 241 450 l 460 496 q 316 610 460 610 q 149 572 233 610 l 109 697 q 345 754 227 754 q 519 697 454 754 q 745 754 621 754 m 863 496 q 718 610 863 610 q 583 587 637 610 q 591 514 591 555 l 591 411 q 863 453 685 453 l 863 496 m 301 122 q 460 198 389 122 l 460 343 q 260 311 323 342 q 197 214 197 279 q 301 122 197 122 m 704 122 q 863 198 795 122 l 863 343 q 663 311 726 342 q 600 214 600 279 q 704 122 600 122 z "},"á":{"ha":724,"x_min":42,"x_max":628,"o":"m 349 754 q 554 692 480 754 q 628 514 628 629 l 628 0 l 484 0 l 484 103 q 266 -15 415 -15 q 100 43 159 -15 q 42 206 42 102 q 144 399 42 338 q 469 463 247 461 l 469 496 q 321 610 469 610 q 149 572 235 610 l 109 697 q 349 754 227 754 m 305 122 q 469 198 401 122 l 469 353 q 262 318 327 350 q 197 218 197 286 q 305 122 197 122 m 256 848 l 388 1063 l 557 1063 l 557 1050 l 378 834 l 256 834 l 256 848 z "},"ă":{"ha":724,"x_min":42,"x_max":628,"o":"m 349 754 q 554 692 480 754 q 628 514 628 629 l 628 0 l 484 0 l 484 103 q 266 -15 415 -15 q 100 43 159 -15 q 42 206 42 102 q 144 399 42 338 q 469 463 247 461 l 469 496 q 321 610 469 610 q 149 572 235 610 l 109 697 q 349 754 227 754 m 305 122 q 469 198 401 122 l 469 353 q 262 318 327 350 q 197 218 197 286 q 305 122 197 122 m 347 829 q 195 886 250 829 q 136 1050 140 944 l 232 1050 q 349 948 245 948 q 467 1050 452 948 l 559 1050 q 500 886 555 944 q 347 829 445 829 z "},"ắ":{"ha":724,"x_min":42,"x_max":628,"o":"m 396 1028 l 290 1028 l 290 1042 l 392 1214 l 534 1214 l 534 1200 l 396 1028 m 347 829 q 197 884 252 829 q 138 1039 142 939 l 229 1039 q 349 939 241 939 q 469 1039 457 939 l 556 1039 q 497 884 552 939 q 347 829 442 829 m 349 754 q 554 692 480 754 q 628 514 628 629 l 628 0 l 484 0 l 484 103 q 266 -15 415 -15 q 100 43 159 -15 q 42 206 42 102 q 144 399 42 338 q 469 463 247 461 l 469 496 q 321 610 469 610 q 149 572 235 610 l 109 697 q 349 754 227 754 m 305 122 q 469 198 401 122 l 469 353 q 262 318 327 350 q 197 218 197 286 q 305 122 197 122 z "},"ặ":{"ha":724,"x_min":42,"x_max":628,"o":"m 349 754 q 554 692 480 754 q 628 514 628 629 l 628 0 l 484 0 l 484 103 q 266 -15 415 -15 q 100 43 159 -15 q 42 206 42 102 q 144 399 42 338 q 469 463 247 461 l 469 496 q 321 610 469 610 q 149 572 235 610 l 109 697 q 349 754 227 754 m 305 122 q 469 198 401 122 l 469 353 q 262 318 327 350 q 197 218 197 286 q 305 122 197 122 m 334 -300 q 261 -274 288 -300 q 235 -205 235 -248 q 260 -134 235 -159 q 334 -109 286 -109 q 406 -134 380 -109 q 433 -203 433 -160 q 407 -275 433 -250 q 334 -300 381 -300 m 347 829 q 195 886 250 829 q 136 1050 140 944 l 232 1050 q 349 948 245 948 q 467 1050 452 948 l 559 1050 q 500 886 555 944 q 347 829 445 829 z "},"ằ":{"ha":724,"x_min":42,"x_max":628,"o":"m 300 1028 l 170 1200 l 170 1214 l 312 1214 l 406 1042 l 406 1028 l 300 1028 m 347 829 q 197 884 252 829 q 138 1039 142 939 l 229 1039 q 349 939 241 939 q 469 1039 457 939 l 556 1039 q 497 884 552 939 q 347 829 442 829 m 349 754 q 554 692 480 754 q 628 514 628 629 l 628 0 l 484 0 l 484 103 q 266 -15 415 -15 q 100 43 159 -15 q 42 206 42 102 q 144 399 42 338 q 469 463 247 461 l 469 496 q 321 610 469 610 q 149 572 235 610 l 109 697 q 349 754 227 754 m 305 122 q 469 198 401 122 l 469 353 q 262 318 327 350 q 197 218 197 286 q 305 122 197 122 z "},"ẳ":{"ha":724,"x_min":42,"x_max":628,"o":"m 328 1175 q 250 1153 293 1175 l 216 1227 q 358 1265 281 1265 q 456 1238 420 1265 q 491 1164 491 1211 q 475 1112 491 1128 q 433 1085 460 1096 q 407 1071 415 1077 q 399 1053 399 1065 q 401 1028 399 1044 l 292 1028 q 289 1057 289 1044 q 300 1097 289 1084 q 334 1122 312 1109 q 355 1136 349 1130 q 362 1153 362 1142 q 328 1175 362 1175 m 347 829 q 197 884 252 829 q 138 1039 142 939 l 229 1039 q 349 939 241 939 q 469 1039 457 939 l 556 1039 q 497 884 552 939 q 347 829 442 829 m 349 754 q 554 692 480 754 q 628 514 628 629 l 628 0 l 484 0 l 484 103 q 266 -15 415 -15 q 100 43 159 -15 q 42 206 42 102 q 144 399 42 338 q 469 463 247 461 l 469 496 q 321 610 469 610 q 149 572 235 610 l 109 697 q 349 754 227 754 m 305 122 q 469 198 401 122 l 469 353 q 262 318 327 350 q 197 218 197 286 q 305 122 197 122 z "},"ẵ":{"ha":724,"x_min":42,"x_max":628,"o":"m 266 1176 q 210 1104 217 1176 l 126 1104 q 163 1234 126 1187 q 269 1280 201 1280 q 326 1269 304 1280 q 370 1236 347 1257 q 399 1212 388 1219 q 429 1204 411 1204 q 484 1278 479 1204 l 568 1278 q 531 1147 568 1194 q 426 1101 494 1101 q 368 1113 389 1101 q 324 1146 346 1124 q 294 1169 305 1162 q 266 1176 283 1176 m 349 939 q 469 1039 457 939 l 556 1039 q 497 884 552 939 q 347 829 442 829 q 197 884 252 829 q 138 1039 142 939 l 229 1039 q 349 939 241 939 m 349 754 q 554 692 480 754 q 628 514 628 629 l 628 0 l 484 0 l 484 103 q 266 -15 415 -15 q 100 43 159 -15 q 42 206 42 102 q 144 399 42 338 q 469 463 247 461 l 469 496 q 321 610 469 610 q 149 572 235 610 l 109 697 q 349 754 227 754 m 305 122 q 469 198 401 122 l 469 353 q 262 318 327 350 q 197 218 197 286 q 305 122 197 122 z "},"ǎ":{"ha":724,"x_min":42,"x_max":628,"o":"m 349 754 q 554 692 480 754 q 628 514 628 629 l 628 0 l 484 0 l 484 103 q 266 -15 415 -15 q 100 43 159 -15 q 42 206 42 102 q 144 399 42 338 q 469 463 247 461 l 469 496 q 321 610 469 610 q 149 572 235 610 l 109 697 q 349 754 227 754 m 305 122 q 469 198 401 122 l 469 353 q 262 318 327 350 q 197 218 197 286 q 305 122 197 122 m 560 1063 l 560 1050 l 422 834 l 273 834 l 134 1050 l 134 1063 l 247 1063 l 349 935 l 450 1063 l 560 1063 z "},"â":{"ha":724,"x_min":42,"x_max":628,"o":"m 349 754 q 554 692 480 754 q 628 514 628 629 l 628 0 l 484 0 l 484 103 q 266 -15 415 -15 q 100 43 159 -15 q 42 206 42 102 q 144 399 42 338 q 469 463 247 461 l 469 496 q 321 610 469 610 q 149 572 235 610 l 109 697 q 349 754 227 754 m 305 122 q 469 198 401 122 l 469 353 q 262 318 327 350 q 197 218 197 286 q 305 122 197 122 m 560 848 l 560 834 l 446 834 l 345 963 l 243 834 l 134 834 l 134 848 l 273 1063 l 422 1063 l 560 848 z "},"ấ":{"ha":724,"x_min":42,"x_max":757,"o":"m 757 1166 l 757 1153 l 618 981 l 513 981 l 513 994 l 614 1166 l 757 1166 m 241 834 l 132 834 l 132 848 l 273 1036 l 422 1036 l 563 848 l 563 834 l 450 834 l 345 945 l 241 834 m 349 754 q 554 692 480 754 q 628 514 628 629 l 628 0 l 484 0 l 484 103 q 266 -15 415 -15 q 100 43 159 -15 q 42 206 42 102 q 144 399 42 338 q 469 463 247 461 l 469 496 q 321 610 469 610 q 149 572 235 610 l 109 697 q 349 754 227 754 m 305 122 q 469 198 401 122 l 469 353 q 262 318 327 350 q 197 218 197 286 q 305 122 197 122 z "},"ậ":{"ha":724,"x_min":42,"x_max":628,"o":"m 349 754 q 554 692 480 754 q 628 514 628 629 l 628 0 l 484 0 l 484 103 q 266 -15 415 -15 q 100 43 159 -15 q 42 206 42 102 q 144 399 42 338 q 469 463 247 461 l 469 496 q 321 610 469 610 q 149 572 235 610 l 109 697 q 349 754 227 754 m 305 122 q 469 198 401 122 l 469 353 q 262 318 327 350 q 197 218 197 286 q 305 122 197 122 m 334 -300 q 261 -274 288 -300 q 235 -205 235 -248 q 260 -134 235 -159 q 334 -109 286 -109 q 406 -134 380 -109 q 433 -203 433 -160 q 407 -275 433 -250 q 334 -300 381 -300 m 560 848 l 560 834 l 446 834 l 345 963 l 243 834 l 134 834 l 134 848 l 273 1063 l 422 1063 l 560 848 z "},"ầ":{"ha":724,"x_min":-54,"x_max":628,"o":"m 76 981 l -54 1153 l -54 1166 l 88 1166 l 182 994 l 182 981 l 76 981 m 132 848 l 273 1036 l 422 1036 l 563 848 l 563 834 l 450 834 l 345 945 l 241 834 l 132 834 l 132 848 m 349 754 q 554 692 480 754 q 628 514 628 629 l 628 0 l 484 0 l 484 103 q 266 -15 415 -15 q 100 43 159 -15 q 42 206 42 102 q 144 399 42 338 q 469 463 247 461 l 469 496 q 321 610 469 610 q 149 572 235 610 l 109 697 q 349 754 227 754 m 305 122 q 469 198 401 122 l 469 353 q 262 318 327 350 q 197 218 197 286 q 305 122 197 122 z "},"ẩ":{"ha":724,"x_min":42,"x_max":713,"o":"m 581 1218 q 678 1191 643 1218 q 713 1116 713 1164 q 698 1065 713 1081 q 655 1038 682 1048 q 629 1023 637 1029 q 621 1005 621 1017 q 624 981 621 997 l 514 981 q 511 1009 511 997 q 523 1049 511 1036 q 556 1074 534 1062 q 578 1088 571 1082 q 585 1105 585 1095 q 551 1127 585 1127 q 472 1105 515 1127 l 438 1180 q 581 1218 503 1218 m 241 834 l 132 834 l 132 848 l 273 1036 l 422 1036 l 563 848 l 563 834 l 450 834 l 345 945 l 241 834 m 349 754 q 554 692 480 754 q 628 514 628 629 l 628 0 l 484 0 l 484 103 q 266 -15 415 -15 q 100 43 159 -15 q 42 206 42 102 q 144 399 42 338 q 469 463 247 461 l 469 496 q 321 610 469 610 q 149 572 235 610 l 109 697 q 349 754 227 754 m 305 122 q 469 198 401 122 l 469 353 q 262 318 327 350 q 197 218 197 286 q 305 122 197 122 z "},"ẫ":{"ha":724,"x_min":42,"x_max":628,"o":"m 266 1160 q 210 1088 217 1160 l 126 1088 q 163 1217 126 1171 q 269 1264 201 1264 q 326 1253 304 1264 q 370 1219 347 1241 q 399 1196 388 1203 q 429 1188 411 1188 q 484 1261 479 1188 l 568 1261 q 531 1131 568 1177 q 426 1085 494 1085 q 368 1097 389 1085 q 324 1130 346 1108 q 294 1153 305 1146 q 266 1160 283 1160 m 422 1036 l 563 848 l 563 834 l 450 834 l 345 945 l 241 834 l 132 834 l 132 848 l 273 1036 l 422 1036 m 349 754 q 554 692 480 754 q 628 514 628 629 l 628 0 l 484 0 l 484 103 q 266 -15 415 -15 q 100 43 159 -15 q 42 206 42 102 q 144 399 42 338 q 469 463 247 461 l 469 496 q 321 610 469 610 q 149 572 235 610 l 109 697 q 349 754 227 754 m 305 122 q 469 198 401 122 l 469 353 q 262 318 327 350 q 197 218 197 286 q 305 122 197 122 z "},"ȁ":{"ha":724,"x_min":42,"x_max":628,"o":"m 349 754 q 554 692 480 754 q 628 514 628 629 l 628 0 l 484 0 l 484 103 q 266 -15 415 -15 q 100 43 159 -15 q 42 206 42 102 q 144 399 42 338 q 469 463 247 461 l 469 496 q 321 610 469 610 q 149 572 235 610 l 109 697 q 349 754 227 754 m 305 122 q 469 198 401 122 l 469 353 q 262 318 327 350 q 197 218 197 286 q 305 122 197 122 m 216 834 l 103 1050 l 103 1063 l 251 1063 l 319 848 l 319 834 l 216 834 m 420 834 l 311 1050 l 311 1063 l 457 1063 l 524 848 l 524 834 l 420 834 z "},"ä":{"ha":724,"x_min":42,"x_max":628,"o":"m 217 838 q 151 862 175 838 q 127 926 127 886 q 151 993 127 970 q 217 1016 175 1016 q 283 992 259 1016 q 307 928 307 968 q 283 862 307 886 q 217 838 259 838 m 477 838 q 412 862 435 838 q 388 926 388 886 q 412 993 388 970 q 477 1016 435 1016 q 543 992 519 1016 q 567 928 567 968 q 543 862 567 886 q 477 838 519 838 m 349 754 q 554 692 480 754 q 628 514 628 629 l 628 0 l 484 0 l 484 103 q 266 -15 415 -15 q 100 43 159 -15 q 42 206 42 102 q 144 399 42 338 q 469 463 247 461 l 469 496 q 321 610 469 610 q 149 572 235 610 l 109 697 q 349 754 227 754 m 305 122 q 469 198 401 122 l 469 353 q 262 318 327 350 q 197 218 197 286 q 305 122 197 122 z "},"ǟ":{"ha":724,"x_min":42,"x_max":628,"o":"m 562 1078 l 133 1078 l 133 1191 l 562 1191 l 562 1078 m 217 838 q 151 862 175 838 q 127 926 127 886 q 151 993 127 970 q 217 1016 175 1016 q 283 992 259 1016 q 307 928 307 968 q 283 862 307 886 q 217 838 259 838 m 477 1016 q 543 992 519 1016 q 567 928 567 968 q 543 862 567 886 q 477 838 519 838 q 412 862 435 838 q 388 926 388 886 q 412 993 388 970 q 477 1016 435 1016 m 349 754 q 554 692 480 754 q 628 514 628 629 l 628 0 l 484 0 l 484 103 q 266 -15 415 -15 q 100 43 159 -15 q 42 206 42 102 q 144 399 42 338 q 469 463 247 461 l 469 496 q 321 610 469 610 q 149 572 235 610 l 109 697 q 349 754 227 754 m 305 122 q 469 198 401 122 l 469 353 q 262 318 327 350 q 197 218 197 286 q 305 122 197 122 z "},"ȧ":{"ha":724,"x_min":42,"x_max":628,"o":"m 349 754 q 554 692 480 754 q 628 514 628 629 l 628 0 l 484 0 l 484 103 q 266 -15 415 -15 q 100 43 159 -15 q 42 206 42 102 q 144 399 42 338 q 469 463 247 461 l 469 496 q 321 610 469 610 q 149 572 235 610 l 109 697 q 349 754 227 754 m 305 122 q 469 198 401 122 l 469 353 q 262 318 327 350 q 197 218 197 286 q 305 122 197 122 m 347 842 q 275 868 301 842 q 248 937 248 894 q 274 1008 248 983 q 347 1034 300 1034 q 420 1008 393 1034 q 446 939 446 982 q 420 867 446 892 q 347 842 395 842 z "},"ạ":{"ha":724,"x_min":42,"x_max":628,"o":"m 349 754 q 554 692 480 754 q 628 514 628 629 l 628 0 l 484 0 l 484 103 q 266 -15 415 -15 q 100 43 159 -15 q 42 206 42 102 q 144 399 42 338 q 469 463 247 461 l 469 496 q 321 610 469 610 q 149 572 235 610 l 109 697 q 349 754 227 754 m 305 122 q 469 198 401 122 l 469 353 q 262 318 327 350 q 197 218 197 286 q 305 122 197 122 m 334 -300 q 261 -274 288 -300 q 235 -205 235 -248 q 260 -134 235 -159 q 334 -109 286 -109 q 406 -134 380 -109 q 433 -203 433 -160 q 407 -275 433 -250 q 334 -300 381 -300 z "},"ǡ":{"ha":724,"x_min":42,"x_max":628,"o":"m 349 754 q 554 692 480 754 q 628 514 628 629 l 628 0 l 484 0 l 484 103 q 266 -15 415 -15 q 100 43 159 -15 q 42 206 42 102 q 144 399 42 338 q 469 463 247 461 l 469 496 q 321 610 469 610 q 149 572 235 610 l 109 697 q 349 754 227 754 m 305 122 q 469 198 401 122 l 469 353 q 262 318 327 350 q 197 218 197 286 q 305 122 197 122 m 347 842 q 275 868 301 842 q 248 937 248 894 q 274 1008 248 983 q 347 1034 300 1034 q 420 1008 393 1034 q 446 939 446 982 q 420 867 446 892 q 347 842 395 842 m 133 1199 l 562 1199 l 562 1086 l 133 1086 l 133 1199 z "},"ᴂ":{"ha":1123,"x_min":52,"x_max":1081,"o":"m 1081 534 q 981 345 1081 406 q 663 283 880 285 l 663 240 q 807 126 663 126 q 974 164 890 126 l 1015 39 q 779 -18 897 -18 q 652 7 705 -18 q 570 79 600 31 q 479 7 533 33 q 357 -18 425 -18 q 132 75 212 -18 q 52 338 52 168 q 58 418 52 380 l 509 418 q 316 608 490 608 q 140 560 231 608 l 83 681 q 199 734 133 715 q 332 753 264 753 q 494 718 425 753 q 605 616 563 682 q 724 719 662 686 q 863 751 787 751 q 1023 694 966 751 q 1081 534 1081 637 m 822 616 q 647 519 724 616 q 666 393 662 468 q 864 426 802 395 q 926 522 926 457 q 822 616 926 616 m 359 123 q 509 305 490 123 l 212 305 q 252 171 213 218 q 359 123 292 123 z "},"à":{"ha":724,"x_min":42,"x_max":628,"o":"m 349 754 q 554 692 480 754 q 628 514 628 629 l 628 0 l 484 0 l 484 103 q 266 -15 415 -15 q 100 43 159 -15 q 42 206 42 102 q 144 399 42 338 q 469 463 247 461 l 469 496 q 321 610 469 610 q 149 572 235 610 l 109 697 q 349 754 227 754 m 305 122 q 469 198 401 122 l 469 353 q 262 318 327 350 q 197 218 197 286 q 305 122 197 122 m 153 1050 l 153 1063 l 323 1063 l 444 848 l 444 834 l 321 834 l 153 1050 z "},"ả":{"ha":724,"x_min":42,"x_max":628,"o":"m 349 754 q 554 692 480 754 q 628 514 628 629 l 628 0 l 484 0 l 484 103 q 266 -15 415 -15 q 100 43 159 -15 q 42 206 42 102 q 144 399 42 338 q 469 463 247 461 l 469 496 q 321 610 469 610 q 149 572 235 610 l 109 697 q 349 754 227 754 m 305 122 q 469 198 401 122 l 469 353 q 262 318 327 350 q 197 218 197 286 q 305 122 197 122 m 290 834 q 288 865 288 850 q 300 914 288 898 q 334 947 312 930 q 354 963 347 955 q 361 982 361 971 q 327 1006 361 1006 q 245 982 288 1006 l 210 1061 q 279 1090 240 1080 q 358 1101 319 1101 q 457 1074 422 1101 q 492 997 492 1047 q 479 947 492 964 q 439 913 465 930 q 410 890 420 901 q 400 861 400 879 q 403 834 400 850 l 290 834 z "},"ᴥ":{"ha":836,"x_min":26,"x_max":810,"o":"m 205 -18 q 115 -3 161 -18 q 26 37 68 11 l 69 152 q 210 110 149 110 q 320 167 274 110 q 201 347 240 264 q 163 506 163 430 q 230 688 163 621 q 418 754 297 754 q 606 688 538 754 q 673 506 673 621 q 633 347 673 430 q 515 167 594 264 q 624 110 562 110 q 765 152 682 110 l 810 37 q 721 -3 768 11 q 631 -18 674 -18 q 418 90 502 -18 q 205 -18 334 -18 z "},"ȃ":{"ha":724,"x_min":42,"x_max":628,"o":"m 349 754 q 554 692 480 754 q 628 514 628 629 l 628 0 l 484 0 l 484 103 q 266 -15 415 -15 q 100 43 159 -15 q 42 206 42 102 q 144 399 42 338 q 469 463 247 461 l 469 496 q 321 610 469 610 q 149 572 235 610 l 109 697 q 349 754 227 754 m 305 122 q 469 198 401 122 l 469 353 q 262 318 327 350 q 197 218 197 286 q 305 122 197 122 m 347 1063 q 500 1006 445 1063 q 559 842 555 948 l 463 842 q 346 944 448 944 q 228 842 241 944 l 136 842 q 195 1006 140 948 q 347 1063 250 1063 z "},"ɑ":{"ha":783,"x_min":60,"x_max":677,"o":"m 677 736 l 677 0 l 532 0 l 532 102 q 326 -18 461 -18 q 130 83 199 -18 q 60 368 60 184 q 131 652 60 551 q 331 754 202 754 q 436 732 388 754 q 517 671 484 711 l 517 736 l 677 736 m 376 132 q 450 149 416 132 q 517 201 484 165 l 517 541 q 450 591 488 574 q 369 609 411 609 q 224 373 224 609 q 376 132 224 132 z "},"ɒ":{"ha":783,"x_min":106,"x_max":723,"o":"m 457 754 q 653 653 583 754 q 723 369 723 552 q 652 84 723 186 q 452 -18 581 -18 q 347 4 395 -18 q 266 65 298 26 l 266 0 l 106 0 l 106 736 l 251 736 l 251 633 q 457 754 321 754 m 414 127 q 559 363 559 127 q 407 605 559 605 q 333 589 366 605 q 266 536 300 572 l 266 195 q 333 145 294 163 q 414 127 372 127 z "},"ā":{"ha":724,"x_min":42,"x_max":628,"o":"m 349 754 q 554 692 480 754 q 628 514 628 629 l 628 0 l 484 0 l 484 103 q 266 -15 415 -15 q 100 43 159 -15 q 42 206 42 102 q 144 399 42 338 q 469 463 247 461 l 469 496 q 321 610 469 610 q 149 572 235 610 l 109 697 q 349 754 227 754 m 305 122 q 469 198 401 122 l 469 353 q 262 318 327 350 q 197 218 197 286 q 305 122 197 122 m 133 977 l 562 977 l 562 864 l 133 864 l 133 977 z "},"ꜵ":{"ha":1137,"x_min":42,"x_max":1077,"o":"m 762 754 q 994 656 911 754 q 1077 369 1077 557 q 994 81 1077 179 q 761 -18 911 -18 q 616 17 678 -18 q 514 117 553 52 q 397 17 458 49 q 260 -15 336 -15 q 100 42 157 -15 q 42 202 42 99 q 142 391 42 331 q 460 453 241 450 l 460 496 q 316 610 460 610 q 149 572 233 610 l 109 697 q 345 754 227 754 q 549 666 484 754 q 762 754 629 754 m 761 125 q 913 369 913 125 q 762 610 913 610 q 610 368 610 610 q 761 125 610 125 m 301 122 q 475 216 401 122 q 458 343 461 273 q 259 311 321 342 q 197 214 197 279 q 301 122 197 122 z "},"ą":{"ha":724,"x_min":42,"x_max":694,"o":"m 694 -266 q 623 -296 663 -285 q 541 -307 583 -307 q 423 -271 465 -307 q 381 -172 381 -236 q 412 -75 381 -119 q 498 0 442 -30 l 486 0 l 486 107 q 391 14 444 43 q 266 -15 338 -15 q 100 43 159 -15 q 42 206 42 102 q 144 399 42 338 q 469 463 247 461 l 469 496 q 321 610 469 610 q 149 572 235 610 l 109 697 q 349 754 227 754 q 554 692 480 754 q 628 514 628 629 l 628 0 q 514 -144 514 -65 q 578 -199 514 -199 q 658 -179 616 -199 l 694 -266 m 305 122 q 469 198 401 122 l 469 353 q 262 319 327 351 q 197 218 197 286 q 305 122 197 122 z "},"ẚ":{"ha":724,"x_min":42,"x_max":628,"o":"m 349 754 q 554 692 480 754 q 628 514 628 629 l 628 0 l 484 0 l 484 103 q 266 -15 415 -15 q 100 43 159 -15 q 42 206 42 102 q 144 399 42 338 q 469 463 247 461 l 469 496 q 321 610 469 610 q 149 572 235 610 l 109 697 q 349 754 227 754 m 305 122 q 469 198 401 122 l 469 353 q 262 318 327 350 q 197 218 197 286 q 305 122 197 122 m 270 895 q 345 972 345 895 q 270 1050 345 1050 l 270 1130 q 400 1088 354 1130 q 446 972 446 1047 q 399 857 446 898 q 270 815 353 815 l 270 895 z "},"å":{"ha":724,"x_min":42,"x_max":628,"o":"m 349 754 q 554 692 480 754 q 628 514 628 629 l 628 0 l 484 0 l 484 103 q 266 -15 415 -15 q 100 43 159 -15 q 42 206 42 102 q 144 399 42 338 q 469 463 247 461 l 469 496 q 321 610 469 610 q 149 572 235 610 l 109 697 q 349 754 227 754 m 305 122 q 469 198 401 122 l 469 353 q 262 318 327 350 q 197 218 197 286 q 305 122 197 122 m 347 815 q 218 857 264 815 q 171 972 171 898 q 217 1088 171 1047 q 347 1130 263 1130 q 477 1088 431 1130 q 524 972 524 1047 q 477 857 524 898 q 347 815 430 815 m 347 895 q 422 972 422 895 q 347 1050 422 1050 q 273 972 273 1050 q 347 895 273 895 z "},"ǻ":{"ha":724,"x_min":42,"x_max":628,"o":"m 396 1179 l 290 1179 l 290 1192 l 392 1364 l 534 1364 l 534 1351 l 396 1179 m 347 815 q 218 857 264 815 q 171 972 171 898 q 217 1088 171 1047 q 347 1130 263 1130 q 477 1088 431 1130 q 524 972 524 1047 q 477 857 524 898 q 347 815 430 815 m 347 1050 q 273 972 273 1050 q 347 895 273 895 q 422 972 422 895 q 347 1050 422 1050 m 349 754 q 554 692 480 754 q 628 514 628 629 l 628 0 l 484 0 l 484 103 q 266 -15 415 -15 q 100 43 159 -15 q 42 206 42 102 q 144 399 42 338 q 469 463 247 461 l 469 496 q 321 610 469 610 q 149 572 235 610 l 109 697 q 349 754 227 754 m 305 122 q 469 198 401 122 l 469 353 q 262 318 327 350 q 197 218 197 286 q 305 122 197 122 z "},"ḁ":{"ha":724,"x_min":42,"x_max":628,"o":"m 349 754 q 554 692 480 754 q 628 514 628 629 l 628 0 l 484 0 l 484 103 q 266 -15 415 -15 q 100 43 159 -15 q 42 206 42 102 q 144 399 42 338 q 469 463 247 461 l 469 496 q 321 610 469 610 q 149 572 235 610 l 109 697 q 349 754 227 754 m 305 122 q 469 198 401 122 l 469 353 q 262 318 327 350 q 197 218 197 286 q 305 122 197 122 m 334 -393 q 203 -352 250 -393 q 157 -236 157 -311 q 204 -120 157 -161 q 334 -79 251 -79 q 463 -120 416 -79 q 510 -236 510 -161 q 464 -352 510 -311 q 334 -393 418 -393 m 334 -313 q 408 -236 408 -313 q 334 -159 408 -159 q 259 -236 259 -159 q 334 -313 259 -313 z "},"ⱥ":{"ha":724,"x_min":42,"x_max":628,"o":"m 511 719 q 598 638 568 690 q 628 514 628 586 l 628 0 l 484 0 l 484 103 q 266 -15 415 -15 l 252 -15 l 205 -149 l 103 -149 l 157 5 q 72 81 102 30 q 42 206 42 132 q 109 372 42 312 q 316 453 175 433 l 370 606 q 321 610 347 610 q 149 572 235 610 l 109 697 q 349 754 227 754 q 420 749 374 754 l 467 882 l 570 882 l 511 719 m 420 463 l 469 463 l 469 496 q 454 557 469 532 l 420 463 m 305 122 q 469 198 401 122 l 469 353 q 381 347 433 353 l 301 122 l 305 122 m 197 218 q 212 159 197 182 l 270 321 q 197 218 197 290 z "},"ã":{"ha":724,"x_min":42,"x_max":628,"o":"m 349 754 q 554 692 480 754 q 628 514 628 629 l 628 0 l 484 0 l 484 103 q 266 -15 415 -15 q 100 43 159 -15 q 42 206 42 102 q 144 399 42 338 q 469 463 247 461 l 469 496 q 321 610 469 610 q 149 572 235 610 l 109 697 q 349 754 227 754 m 305 122 q 469 198 401 122 l 469 353 q 262 318 327 350 q 197 218 197 286 q 305 122 197 122 m 444 836 q 381 848 407 836 q 319 884 355 860 q 283 909 298 901 q 251 917 267 917 q 197 838 205 917 l 104 838 q 146 981 107 930 q 251 1032 184 1032 q 315 1019 288 1032 q 376 983 342 1006 q 413 960 397 967 q 444 952 429 952 q 498 1029 490 952 l 590 1029 q 549 886 587 937 q 444 836 510 836 z "},"ɐ":{"ha":724,"x_min":96,"x_max":682,"o":"m 682 530 q 580 337 682 399 q 255 274 477 275 l 255 240 q 403 126 255 126 q 575 164 490 126 l 616 39 q 376 -18 498 -18 q 170 45 244 -18 q 96 222 96 107 l 96 736 l 240 736 l 240 633 q 458 751 309 751 q 624 693 566 751 q 682 530 682 635 m 419 616 q 255 538 324 616 l 255 384 q 463 418 397 387 q 528 518 528 450 q 419 616 528 616 z "},"ꜷ":{"ha":1135,"x_min":42,"x_max":1029,"o":"m 1029 736 l 1029 0 l 883 0 l 883 99 q 670 -18 803 -18 q 559 9 606 -18 q 487 87 513 35 q 382 9 437 34 q 260 -15 327 -15 q 100 42 157 -15 q 42 202 42 99 q 142 391 42 331 q 460 453 241 450 l 460 496 q 316 610 460 610 q 149 572 233 610 l 109 697 q 345 754 227 754 q 545 690 472 754 q 617 514 617 627 l 617 384 l 617 243 q 646 160 617 189 q 728 132 674 132 q 802 148 768 132 q 869 199 836 164 l 869 736 l 1029 736 m 301 122 q 460 198 392 122 l 460 221 l 460 343 q 260 311 323 342 q 197 214 197 279 q 301 122 197 122 z "},"ꜹ":{"ha":1013,"x_min":42,"x_max":1028,"o":"m 1028 736 l 703 0 l 617 0 l 484 0 l 484 103 q 266 -15 415 -15 q 100 43 159 -15 q 42 206 42 102 q 144 399 42 338 q 469 463 247 461 l 469 496 q 321 610 469 610 q 149 572 235 610 l 109 697 q 349 754 227 754 q 554 692 480 754 q 628 514 628 629 l 628 122 q 671 275 640 194 l 859 736 l 1028 736 m 305 122 q 469 198 401 122 l 469 353 q 262 318 327 350 q 197 218 197 286 q 305 122 197 122 z "},"ꜻ":{"ha":1013,"x_min":42,"x_max":1028,"o":"m 1028 736 l 703 0 l 617 0 l 484 0 l 484 103 q 266 -15 415 -15 q 100 43 159 -15 q 42 206 42 102 q 144 399 42 338 q 469 463 247 461 l 469 496 q 321 610 469 610 q 149 572 235 610 l 109 697 q 349 754 227 754 q 554 692 480 754 q 628 514 628 629 l 628 463 l 747 463 l 859 736 l 1028 736 m 704 355 l 628 355 l 628 122 q 671 275 640 194 l 704 355 m 305 122 q 469 198 401 122 l 469 353 q 262 318 327 350 q 197 218 197 286 q 305 122 197 122 z "},"ꜽ":{"ha":1054,"x_min":42,"x_max":1028,"o":"m 1028 736 l 703 0 q 569 -183 651 -114 q 347 -298 487 -252 l 293 -163 q 446 -92 389 -129 q 545 0 503 -54 l 484 0 l 484 103 q 266 -15 415 -15 q 100 43 159 -15 q 42 206 42 102 q 144 399 42 338 q 469 463 247 461 l 469 496 q 321 610 469 610 q 149 572 235 610 l 109 697 q 349 754 227 754 q 554 692 480 754 q 628 514 628 629 l 628 122 q 671 275 640 194 l 859 736 l 1028 736 m 305 122 q 469 198 401 122 l 469 353 q 262 318 327 350 q 197 218 197 286 q 305 122 197 122 z "},"æ":{"ha":1123,"x_min":42,"x_max":1072,"o":"m 1072 399 q 1065 319 1072 357 l 614 319 q 807 129 633 129 q 983 176 892 129 l 1040 56 q 924 3 990 22 q 791 -16 859 -16 q 629 18 699 -16 q 518 121 560 53 q 399 18 461 50 q 260 -15 336 -15 q 100 42 157 -15 q 42 202 42 99 q 142 391 42 331 q 460 453 241 450 l 460 496 q 316 610 460 610 q 149 572 233 610 l 109 697 q 345 754 227 754 q 553 659 490 754 q 644 730 589 705 q 766 754 699 754 q 991 661 911 754 q 1072 399 1072 568 m 764 613 q 614 431 633 613 l 911 431 q 871 566 910 518 q 764 613 831 613 m 301 122 q 476 217 401 122 q 457 343 458 277 q 259 311 321 342 q 197 214 197 279 q 301 122 197 122 z "},"ǽ":{"ha":1123,"x_min":42,"x_max":1072,"o":"m 1072 399 q 1065 319 1072 357 l 614 319 q 807 129 633 129 q 983 176 892 129 l 1040 56 q 924 3 990 22 q 791 -16 859 -16 q 629 18 699 -16 q 518 121 560 53 q 399 18 461 50 q 260 -15 336 -15 q 100 42 157 -15 q 42 202 42 99 q 142 391 42 331 q 460 453 241 450 l 460 496 q 316 610 460 610 q 149 572 233 610 l 109 697 q 345 754 227 754 q 553 659 490 754 q 644 730 589 705 q 766 754 699 754 q 991 661 911 754 q 1072 399 1072 568 m 764 613 q 614 431 633 613 l 911 431 q 871 566 910 518 q 764 613 831 613 m 301 122 q 476 217 401 122 q 457 343 458 277 q 259 311 321 342 q 197 214 197 279 q 301 122 197 122 m 487 848 l 618 1063 l 788 1063 l 788 1050 l 609 834 l 487 834 l 487 848 z "},"ǣ":{"ha":1123,"x_min":42,"x_max":1072,"o":"m 1072 399 q 1065 319 1072 357 l 614 319 q 807 129 633 129 q 983 176 892 129 l 1040 56 q 924 3 990 22 q 791 -16 859 -16 q 629 18 699 -16 q 518 121 560 53 q 399 18 461 50 q 260 -15 336 -15 q 100 42 157 -15 q 42 202 42 99 q 142 391 42 331 q 460 453 241 450 l 460 496 q 316 610 460 610 q 149 572 233 610 l 109 697 q 345 754 227 754 q 553 659 490 754 q 644 730 589 705 q 766 754 699 754 q 991 661 911 754 q 1072 399 1072 568 m 764 613 q 614 431 633 613 l 911 431 q 871 566 910 518 q 764 613 831 613 m 301 122 q 476 217 401 122 q 457 343 458 277 q 259 311 321 342 q 197 214 197 279 q 301 122 197 122 m 363 977 l 792 977 l 792 864 l 363 864 l 363 977 z "},"b":{"ha":785,"x_min":106,"x_max":726,"o":"m 457 754 q 655 652 585 754 q 726 368 726 551 q 654 83 726 184 q 452 -18 582 -18 q 336 8 388 -18 q 251 81 283 34 l 251 0 l 106 0 l 106 85 l 106 688 l 106 1044 l 266 1044 l 266 658 q 457 754 335 754 m 414 126 q 562 362 562 126 q 407 604 562 604 q 333 587 366 604 q 266 536 300 571 l 266 194 q 333 144 294 161 q 414 126 372 126 z "},"ḃ":{"ha":785,"x_min":106,"x_max":726,"o":"m 457 754 q 655 652 585 754 q 726 368 726 551 q 654 83 726 184 q 452 -18 582 -18 q 336 8 388 -18 q 251 81 283 34 l 251 0 l 106 0 l 106 85 l 106 688 l 106 1044 l 266 1044 l 266 658 q 457 754 335 754 m 414 126 q 562 362 562 126 q 407 604 562 604 q 333 587 366 604 q 266 536 300 571 l 266 194 q 333 144 294 161 q 414 126 372 126 m 395 1135 q 322 1161 349 1135 q 296 1230 296 1187 q 321 1301 296 1276 q 395 1326 347 1326 q 467 1301 441 1326 q 494 1232 494 1275 q 468 1160 494 1185 q 395 1135 442 1135 z "},"ḅ":{"ha":785,"x_min":106,"x_max":726,"o":"m 457 754 q 655 652 585 754 q 726 368 726 551 q 654 83 726 184 q 452 -18 582 -18 q 336 8 388 -18 q 251 81 283 34 l 251 0 l 106 0 l 106 85 l 106 688 l 106 1044 l 266 1044 l 266 658 q 457 754 335 754 m 414 126 q 562 362 562 126 q 407 604 562 604 q 333 587 366 604 q 266 536 300 571 l 266 194 q 333 144 294 161 q 414 126 372 126 m 408 -300 q 336 -274 362 -300 q 309 -205 309 -248 q 335 -134 309 -159 q 408 -109 361 -109 q 481 -134 454 -109 q 507 -203 507 -160 q 481 -275 507 -250 q 408 -300 456 -300 z "},"ɓ":{"ha":785,"x_min":106,"x_max":726,"o":"m 457 754 q 655 652 585 754 q 726 368 726 551 q 654 83 726 184 q 452 -18 582 -18 q 336 8 388 -18 q 251 83 283 34 l 251 0 l 106 0 l 106 543 l 106 736 l 106 869 q 157 1015 106 966 q 308 1063 208 1063 q 410 1044 363 1063 l 388 917 q 324 925 357 925 q 279 909 293 925 q 266 860 266 894 l 266 656 q 457 754 335 754 m 414 126 q 562 362 562 126 q 407 604 562 604 q 332 587 366 604 q 266 534 298 571 l 266 194 q 333 144 294 161 q 414 126 372 126 z "},"ʭ":{"ha":731,"x_min":87,"x_max":644,"o":"m 87 982 l 87 553 l 213 553 l 213 838 l 518 838 l 518 553 l 644 553 l 644 982 l 87 982 m 87 429 l 87 0 l 213 0 l 213 283 l 518 283 l 518 0 l 644 0 l 644 429 l 87 429 z "},"ʘ":{"ha":1160,"x_min":72,"x_max":1088,"o":"m 579 -18 q 309 45 423 -18 q 133 229 194 109 q 72 517 72 350 q 133 804 72 684 q 309 988 194 925 q 579 1051 423 1051 q 851 988 736 1051 q 1027 804 966 925 q 1088 517 1088 684 q 1027 229 1088 350 q 851 45 966 109 q 579 -18 736 -18 m 579 127 q 830 230 741 127 q 920 517 920 332 q 830 804 920 701 q 579 906 741 906 q 329 804 418 906 q 240 517 240 701 q 329 230 240 332 q 579 127 418 127 m 579 420 q 505 447 532 420 q 477 519 477 473 q 505 593 477 567 q 579 618 532 618 q 655 592 628 618 q 682 521 682 566 q 655 447 682 473 q 579 420 628 420 z "},"ʬ":{"ha":769,"x_min":34,"x_max":735,"o":"m 170 553 l 34 982 l 164 982 l 243 671 l 320 982 l 452 982 l 532 671 l 606 982 l 735 982 l 601 553 l 461 553 l 384 848 l 311 553 l 170 553 m 606 429 l 735 429 l 601 0 l 461 0 l 384 296 l 311 0 l 170 0 l 34 429 l 164 429 l 243 118 l 320 429 l 452 429 l 532 118 l 606 429 z "}}}
